<svg width="48" height="48" viewBox="0 0 48 48" fill="none" xmlns="http://www.w3.org/2000/svg">
<g clip-path="url(#clip0_6485_13635)">
<path fill-rule="evenodd" clip-rule="evenodd" d="M6 32.082V15.918C6 14.488 6.762 13.168 8 12.454L22 4.37205C23.238 3.65805 24.762 3.65805 26 4.37205L40 12.454C41.238 13.168 42 14.49 42 15.918V32.084C42 33.514 41.238 34.834 40 35.548L26 43.63C24.762 44.344 23.238 44.344 22 43.63L8 35.548C6.762 34.832 6 33.512 6 32.082Z" stroke="#FD9339" stroke-width="3" stroke-linecap="round" stroke-linejoin="round"/>
<path d="M32.98 25.72V18.792L15 8.41199" stroke="#FD9339" stroke-width="3" stroke-linecap="round" stroke-linejoin="round"/>
<path d="M18.08 34L12 30.48" stroke="#FD9339" stroke-width="3" stroke-linecap="round" stroke-linejoin="round"/>
<path d="M24 24V44.16" stroke="#FD9339" stroke-width="3" stroke-linecap="round" stroke-linejoin="round"/>
<path d="M6.53516 13.918L23.9992 24L41.4632 13.918" stroke="#FD9339" stroke-width="3" stroke-linecap="round" stroke-linejoin="round"/>
</g>
<defs>
<clipPath id="clip0_6485_13635">
<rect width="48" height="48" fill="white"/>
</clipPath>
</defs>
</svg>
