<svg width="118" height="117" viewBox="0 0 118 117" fill="none" xmlns="http://www.w3.org/2000/svg">
<path d="M57.4983 48.4493C56.8164 49.5055 57.2098 51.2746 57.4983 52.0404C57.4983 51.6443 57.5508 50.6673 57.7344 49.9016C57.9704 48.9774 58.5999 48.4493 58.5999 47.1027C58.5999 46.0465 57.5246 44.0925 57 43.2476C57.4459 44.5414 58.1803 47.3931 57.4983 48.4493Z" fill="#4E2D2D"/>
<path d="M64.8421 48.4493C64.1602 49.5055 64.5536 51.2746 64.8421 52.0404C64.8421 51.6443 64.8945 50.6673 65.0781 49.9016C65.3142 48.9774 65.9436 48.4493 65.9436 47.1027C65.9436 46.0465 64.8683 44.0925 64.3438 43.2476C64.7896 44.5414 65.524 47.3931 64.8421 48.4493Z" fill="#4E2D2D"/>
<path d="M62.0887 44.9903C62.587 45.756 62.6919 47.6572 62.0887 48.5549C62.0887 48.3965 62.0362 47.7364 61.8526 46.5218C61.6166 44.9903 60.9871 46.0201 60.515 43.9605C60.1216 42.3234 61.6428 40.6335 62.4559 39.9998C62.5345 40.1318 62.587 40.6599 62.0887 41.7953C61.4854 43.2212 61.6166 44.2245 62.0887 44.9903Z" fill="#4E2D2D"/>
<path fill-rule="evenodd" clip-rule="evenodd" d="M50.4883 58.1829C51.5899 58.1829 52.5078 57.3115 52.5078 56.2289C52.5078 56.0977 52.6169 55.9648 52.7481 55.9648H69.0773C72.0639 55.9648 74.4376 58.5576 72.8982 61.1169C71.5251 63.3996 69.1934 65.5814 65.5425 66.5521C65.4528 66.5759 65.3595 66.4876 65.3595 66.3948C65.3595 65.8931 64.9398 65.4706 64.4153 65.4706C63.8907 65.4706 63.4711 65.8667 63.4711 66.3948C63.4711 66.6321 63.333 66.937 63.0968 66.9594C62.5273 67.0132 61.939 67.0285 61.3204 67.0285C59.6094 67.0464 58.068 66.8327 56.6962 66.4619C55.8749 66.2399 55.7076 65.0275 55.7076 64.1768C55.7076 63.0149 54.7372 62.0908 53.557 62.0908C52.244 62.0908 50.2325 62.7221 49.4269 61.6855C47.9928 59.84 47.2594 57.8947 47.0525 56.4929C47.0244 56.2101 47.2465 55.9648 47.5307 55.9648H48.2294C48.3761 55.9648 48.4688 56.0822 48.4688 56.2289C48.4688 57.3115 49.3605 58.1829 50.4883 58.1829ZM66.4348 62.8829C67.6151 62.8829 68.5855 61.9588 68.5855 60.7969C68.5855 59.6351 67.6151 58.711 66.4348 58.711C65.2546 58.711 64.2841 59.6351 64.2841 60.7969C64.2841 61.9323 65.2546 62.8829 66.4348 62.8829ZM58.1206 59.7407C58.1206 60.3217 57.6485 60.7969 57.0453 60.7969C56.442 60.7969 55.9699 60.3217 55.9699 59.7407C55.9699 59.1598 56.442 58.6845 57.0453 58.6845C57.6485 58.711 58.1206 59.1598 58.1206 59.7407Z" fill="#4E2D2D"/>
<path d="M0.260809 56.2702L4.76733 53.6516L0.98213 50.0889C0.85092 49.9676 0.793097 49.8404 0.808645 49.7071C0.821966 49.5929 0.870764 49.5069 0.955031 49.4492C1.04041 49.3819 1.13091 49.3537 1.22653 49.3648C1.29346 49.3725 1.3624 49.4046 1.43334 49.461L5.42803 53.2216L10.4158 50.3403C10.4979 50.3016 10.5676 50.2855 10.6249 50.2922C10.7301 50.3043 10.8165 50.3529 10.8841 50.4379C10.9517 50.5228 10.9789 50.6224 10.9656 50.7366C10.95 50.8699 10.865 50.9758 10.7104 51.0544L5.97045 53.8051L9.93645 57.5623C10.0761 57.6942 10.1387 57.822 10.1243 57.9457C10.1043 58.117 10.0193 58.2229 9.86917 58.2635C9.70952 58.3029 9.58688 58.2742 9.50126 58.1775L5.30975 54.2351L0.542737 56.9683C0.460691 57.007 0.390981 57.0231 0.333616 57.0164C0.237997 57.0054 0.155836 56.9621 0.0871101 56.8867C0.019506 56.8017 -0.00874564 56.7116 0.00235513 56.6164C0.0179039 56.4832 0.104055 56.3678 0.260809 56.2702Z" fill="black"/>
<path d="M6.64561 44.7323C5.27462 44.1968 4.30346 43.3028 3.73215 42.0504C3.16083 40.7981 3.14068 39.4985 3.67166 38.1518C4.19913 36.8139 5.09297 35.8714 6.35317 35.3241C7.60986 34.7857 8.94162 34.7913 10.3485 35.3408C11.7374 35.8833 12.7085 36.7772 13.2619 38.0226C13.8332 39.275 13.8534 40.5745 13.3224 41.9213C12.7949 43.2591 11.8984 44.1954 10.6327 44.7303C9.37253 45.2776 8.04349 45.2782 6.64561 44.7323ZM4.43757 41.6775C4.93969 42.7382 5.77769 43.4978 6.95154 43.9563C8.12541 44.4148 9.25606 44.419 10.3435 43.9689C11.4274 43.5277 12.1874 42.7542 12.6235 41.6483C13.0736 40.5067 13.0485 39.4162 12.5483 38.3768C12.0427 37.3251 11.2074 36.5717 10.0425 36.1167C8.86867 35.6582 7.73529 35.6478 6.6424 36.0855C5.56391 36.5391 4.80665 37.3188 4.3706 38.4248C3.93104 39.5396 3.95337 40.6239 4.43757 41.6775Z" fill="black"/>
<path d="M11.1796 25.6054L18.5278 30.8443C18.6138 30.9056 18.6658 30.9898 18.6835 31.0967C18.7013 31.2037 18.6765 31.3039 18.6093 31.3974C18.5476 31.483 18.4631 31.5347 18.3556 31.5524C18.2482 31.5701 18.1514 31.5482 18.0653 31.4869L10.7171 26.248L8.74958 28.9819C8.68792 29.0675 8.61008 29.1181 8.51607 29.1336C8.41422 29.1435 8.31635 29.1149 8.22245 29.048C8.02681 28.9085 7.99905 28.7414 8.13919 28.5467L12.5367 22.4363C12.5984 22.3506 12.6801 22.3028 12.782 22.293C12.876 22.2775 12.9699 22.3032 13.0638 22.3702C13.1499 22.4315 13.1979 22.5129 13.2079 22.6143C13.2234 22.7079 13.2031 22.7936 13.1471 22.8715L11.1796 25.6054Z" fill="black"/>
<path d="M23.4718 12.1275L29.5402 19.2724C29.6086 19.3529 29.6382 19.4471 29.6291 19.5551C29.62 19.6632 29.5714 19.7543 29.4832 19.8285C29.4023 19.8965 29.3076 19.926 29.1991 19.917C29.0906 19.9079 29.0021 19.8632 28.9338 19.7827L23.4713 13.3512L23.9342 24.1586C23.9432 24.3769 23.8778 24.5448 23.7381 24.6623C23.547 24.8232 23.3613 24.7975 23.1811 24.5853L17.1034 17.4294C17.035 17.3489 17.0085 17.2583 17.0238 17.1576C17.0329 17.0496 17.0852 16.9554 17.1808 16.875C17.2543 16.8131 17.3453 16.7867 17.4539 16.7958C17.5624 16.8048 17.6477 16.846 17.7099 16.9191L23.1724 23.3506L22.7178 12.6867C22.7168 12.3739 22.7788 12.1649 22.9038 12.0597C23.1023 11.8927 23.2916 11.9153 23.4718 12.1275Z" fill="black"/>
<path d="M32.6556 6.83579L36.6056 14.9278C36.6519 15.0226 36.6572 15.1212 36.6216 15.2236C36.586 15.326 36.5163 15.4024 36.4124 15.4526C36.3171 15.4987 36.218 15.504 36.1151 15.4685C36.0122 15.4331 35.9376 15.368 35.8913 15.2732L31.9413 7.18121L28.9022 8.65083C28.807 8.69689 28.7143 8.70441 28.6243 8.6734C28.53 8.63377 28.4577 8.56224 28.4072 8.45883C28.302 8.24339 28.3577 8.08334 28.5741 7.97866L35.3665 4.69399C35.4617 4.64793 35.5565 4.64471 35.6507 4.68435C35.7408 4.71536 35.8111 4.78259 35.8615 4.88599C35.9078 4.98079 35.911 5.0751 35.8712 5.16892C35.8401 5.25855 35.7812 5.3243 35.6946 5.36617L32.6556 6.83579Z" fill="black"/>
<path d="M43.5379 7.29278L44.4514 11.1684L48.9076 10.1279C49.0107 10.1038 49.1039 10.1214 49.1871 10.1807C49.2681 10.2307 49.3217 10.3117 49.3481 10.4236C49.4031 10.6568 49.3134 10.8008 49.0791 10.8555L44.2574 11.9813C44.145 12.0076 44.0378 11.9933 43.9359 11.9383C43.8411 11.8719 43.7805 11.7827 43.7542 11.6708L41.6369 2.68821C41.6105 2.57628 41.626 2.47425 41.6834 2.38213C41.7479 2.27848 41.8365 2.21352 41.9489 2.18726L46.63 1.0942C46.7331 1.07013 46.8263 1.08775 46.9094 1.14705C46.9904 1.19703 47.0441 1.27799 47.0705 1.38992C47.1255 1.62311 47.0358 1.76706 46.8015 1.82177L42.4859 2.82948L43.3664 6.56522L47.2603 5.65598C47.3634 5.63191 47.4566 5.64952 47.5398 5.70883C47.6207 5.75881 47.6744 5.83976 47.7008 5.95169C47.7228 6.04497 47.7098 6.13658 47.6618 6.22652C47.6116 6.30713 47.5349 6.35947 47.4318 6.38355L43.5379 7.29278Z" fill="black"/>
<path d="M60.3155 4.46968C60.5191 3.01787 61.1661 1.8695 62.2566 1.02458C63.347 0.17966 64.612 -0.142819 66.0516 0.0571701C67.4816 0.255832 68.6109 0.901241 69.4394 1.9934C70.2583 3.08422 70.5634 4.37452 70.3545 5.86428C70.1482 7.33507 69.5012 8.48343 68.4135 9.30938C67.323 10.1543 66.058 10.4768 64.6185 10.2768C63.1884 10.0781 62.0646 9.42865 61.2469 8.32833C60.4184 7.23618 60.108 5.94996 60.3155 4.46968ZM62.7853 1.62042C61.8661 2.35369 61.3193 3.34185 61.145 4.5849C60.9707 5.82796 61.2301 6.92329 61.9234 7.8709C62.6071 8.81717 63.5401 9.37242 64.7222 9.53665C65.9426 9.70618 67.0021 9.42772 67.901 8.7013C68.8107 7.9667 69.3521 6.98262 69.525 5.74906C69.6994 4.506 69.4453 3.4066 68.7629 2.45082C68.0683 1.51271 67.1299 0.961543 65.9478 0.797313C64.7561 0.631763 63.7019 0.906131 62.7853 1.62042Z" fill="black"/>
<path d="M83.103 6.19131C82.6642 5.57226 82.0052 5.07962 81.1261 4.7134C80.0073 4.24729 78.9329 4.2463 77.9029 4.71042C76.8655 5.19221 76.0996 6.02083 75.6052 7.19629C75.0998 8.39825 75.0557 9.53278 75.4731 10.5999C75.8853 11.6545 76.6775 12.4259 77.8496 12.9142C78.6931 13.2656 79.5338 13.351 80.3715 13.1703C80.4612 13.1557 80.537 13.1614 80.5992 13.1873C80.688 13.2243 80.7538 13.3036 80.7965 13.4253C80.8112 13.5145 80.8074 13.5856 80.7851 13.6386C80.7442 13.7358 80.6689 13.8031 80.5593 13.8406C79.5807 14.108 78.563 14.0216 77.5064 13.5814C76.1212 13.0043 75.1756 12.1014 74.6696 10.8728C74.1688 9.65665 74.2232 8.32387 74.8327 6.87445C75.4051 5.5134 76.3 4.55159 77.5175 3.98901C78.7313 3.43527 80.0264 3.4451 81.4027 4.01848C82.4683 4.4624 83.2285 5.04917 83.6835 5.77879C83.7514 5.89019 83.7612 6.00333 83.7129 6.11822C83.6906 6.17125 83.6487 6.2213 83.5871 6.26837C83.4804 6.34853 83.3648 6.36271 83.2405 6.31093C83.1961 6.29243 83.1503 6.25256 83.103 6.19131Z" fill="black"/>
<path d="M92.2914 10.9101L86.9743 18.1854C86.912 18.2707 86.8271 18.3217 86.7195 18.3386C86.6119 18.3555 86.5114 18.3301 86.418 18.2625C86.3324 18.2005 86.2811 18.116 86.2641 18.0089C86.2472 17.9018 86.2698 17.8057 86.3321 17.7205L91.6492 10.4452L88.9169 8.46694C88.8313 8.40494 88.781 8.32711 88.7662 8.23342C88.757 8.13199 88.7864 8.03478 88.8543 7.9418C88.9959 7.74811 89.164 7.72171 89.3586 7.86261L95.4654 12.284C95.551 12.346 95.5985 12.4277 95.6076 12.5292C95.6225 12.6229 95.5959 12.7162 95.528 12.8092C95.4657 12.8944 95.3836 12.9416 95.2817 12.9507C95.1876 12.9655 95.1016 12.9447 95.0237 12.8884L92.2914 10.9101Z" fill="black"/>
<path d="M97.7104 28.459L99.2759 25.2509L96.1036 21.5974L92.6875 22.6744C92.5279 22.7104 92.4009 22.674 92.3065 22.5653C92.2373 22.4855 92.203 22.3947 92.2036 22.2929C92.2178 22.192 92.265 22.1072 92.3451 22.0382C92.3596 22.0257 92.4023 22.0016 92.4732 21.966L102.307 18.9394C102.509 18.8793 102.67 18.9182 102.79 19.0559C102.916 19.2009 102.934 19.3687 102.845 19.5592L98.4134 28.7851C98.3677 28.8497 98.3376 28.8883 98.323 28.9008C98.2502 28.9634 98.1527 28.9903 98.0305 28.9815C97.9218 28.9736 97.8361 28.9334 97.7731 28.8609C97.6724 28.745 97.6515 28.611 97.7104 28.459ZM99.6363 24.523L101.95 19.7592L96.8794 21.348L99.6363 24.523Z" fill="black"/>
<path d="M109.809 33.8022C109.263 34.0863 108.724 34.1669 108.193 34.0437C107.669 33.9161 107.201 33.6246 106.788 33.1693C107.051 33.8759 107.088 34.5052 106.9 35.0571C106.725 35.6131 106.331 36.051 105.717 36.3707C104.881 36.8059 104.096 36.8523 103.362 36.51C102.641 36.1717 102.022 35.5101 101.504 34.5253C101.111 33.7782 100.781 33.1178 100.512 32.5442C100.458 32.4423 100.45 32.3332 100.486 32.2168C100.528 32.1089 100.599 32.0284 100.702 31.9751L108.89 27.7121C108.992 27.6588 109.096 27.6484 109.2 27.6808C109.316 27.7172 109.406 27.7841 109.468 27.8816C110.069 28.9634 110.428 29.6147 110.544 29.8355C111.53 31.7117 111.285 33.0339 109.809 33.8022ZM105.836 32.3509L104.946 30.6572L101.364 32.5223C101.776 33.389 102.049 33.9497 102.183 34.2044C102.598 34.994 103.076 35.5124 103.619 35.7596C104.166 36.0154 104.756 35.9789 105.387 35.6503C105.933 35.3661 106.246 34.9383 106.326 34.3669C106.406 33.7955 106.242 33.1235 105.836 32.3509ZM108.977 28.5591L105.573 30.3308L106.483 32.0628C106.791 32.6485 107.203 33.0503 107.72 33.2681C108.245 33.4813 108.772 33.4503 109.3 33.175C110.426 32.5889 110.615 31.5826 109.865 30.1564C109.673 29.7913 109.377 29.2589 108.977 28.5591Z" fill="black"/>
<path d="M116.555 47.4426L107.412 49.6141C107.309 49.6386 107.211 49.6224 107.118 49.5656C107.025 49.5089 106.965 49.4246 106.939 49.3128C106.914 49.2102 106.93 49.1128 106.987 49.0205C107.044 48.9281 107.124 48.8697 107.227 48.8453L115.458 46.8905L105.556 42.431C105.356 42.3405 105.235 42.2068 105.193 42.0297C105.134 41.7874 105.241 41.634 105.513 41.5695L114.67 39.3947C114.773 39.3702 114.866 39.3875 114.949 39.4465C115.042 39.5032 115.103 39.5922 115.132 39.7133C115.155 39.8065 115.137 39.8993 115.08 39.9916C115.023 40.084 114.948 40.1413 114.854 40.1635L106.624 42.1182L116.393 46.5206C116.674 46.6607 116.834 46.81 116.872 46.9684C116.932 47.22 116.826 47.3781 116.555 47.4426Z" fill="black"/>
<path d="M117.169 58.3091L108.131 58.1355C108.026 58.1335 107.935 58.0934 107.859 58.0153C107.784 57.9372 107.747 57.8406 107.749 57.7257C107.752 57.6203 107.792 57.53 107.87 57.4549C107.949 57.3797 108.041 57.3432 108.147 57.3452L117.184 57.5188L117.249 54.1566C117.251 54.0512 117.287 53.9656 117.355 53.8999C117.434 53.8343 117.53 53.8026 117.646 53.8048C117.887 53.8094 118.005 53.9315 118 54.171L117.854 61.6858C117.852 61.7912 117.812 61.8767 117.734 61.9422C117.665 62.008 117.573 62.0398 117.457 62.0376C117.352 62.0355 117.266 61.9955 117.2 61.9176C117.134 61.8493 117.102 61.7672 117.103 61.6714L117.169 58.3091Z" fill="black"/>
<path d="M112.461 67.702L107.999 66.6243C107.759 67.4835 107.625 67.9735 107.596 68.0946C107.362 69.0536 107.385 69.8331 107.664 70.433C107.951 71.0445 108.483 71.444 109.259 71.6315C109.97 71.8032 110.574 71.6829 111.071 71.2704C111.575 70.8696 111.941 70.199 112.17 69.2586C112.307 68.7 112.403 68.1811 112.461 67.702ZM107.849 65.7749L116.928 67.9675C117.031 67.9923 117.106 68.0499 117.153 68.1402C117.21 68.2327 117.224 68.3349 117.197 68.4466C117.172 68.549 117.113 68.6285 117.02 68.6849C116.937 68.7435 116.843 68.7604 116.74 68.7356L113.204 67.8816C113.07 68.6378 112.965 69.1695 112.89 69.4767C112.595 70.6871 112.12 71.5386 111.465 72.0311C110.807 72.5329 110.011 72.6709 109.076 72.4449C108.075 72.2032 107.386 71.677 107.009 70.8663C106.63 70.0648 106.589 69.0543 106.886 67.8346C106.95 67.5739 107.102 66.9895 107.343 66.0816C107.371 65.9699 107.432 65.8812 107.527 65.8154C107.629 65.7613 107.737 65.7478 107.849 65.7749Z" fill="black"/>
<path d="M105.899 93.3111L98.1422 87.9502C98.0552 87.8901 98.0021 87.8067 97.9828 87.7C97.9634 87.5934 97.984 87.4967 98.0444 87.4102C98.1102 87.3157 98.1968 87.2589 98.304 87.2397C98.4111 87.2204 98.5082 87.2409 98.5952 87.301L102.26 89.8339L105.859 84.6753L102.194 82.1424C102.107 82.0823 102.054 81.9989 102.035 81.8922C102.015 81.7856 102.039 81.685 102.105 81.5906C102.165 81.504 102.249 81.4511 102.356 81.4319C102.463 81.4126 102.56 81.4331 102.647 81.4932L110.404 86.8541C110.491 86.9142 110.54 86.9949 110.551 87.0961C110.571 87.2027 110.545 87.3072 110.473 87.4095C110.418 87.4882 110.337 87.5372 110.23 87.5564C110.123 87.5757 110.03 87.558 109.951 87.5033L106.476 85.1016L102.877 90.2601L106.352 92.6619C106.439 92.722 106.488 92.8026 106.499 92.9039C106.519 93.0105 106.493 93.115 106.421 93.2173C106.366 93.296 106.285 93.345 106.178 93.3642C106.071 93.3835 105.978 93.3658 105.899 93.3111Z" fill="black"/>
<path d="M89.115 96.7969L92.3325 98.3667L96.0147 95.2226L94.9451 91.8186C94.9095 91.6596 94.9465 91.5334 95.0561 91.4398C95.1364 91.3712 95.2278 91.3374 95.3301 91.3384C95.4314 91.3529 95.5165 91.4001 95.5855 91.4801C95.598 91.4946 95.622 91.5372 95.6576 91.6079L98.6626 101.407C98.7222 101.608 98.6826 101.768 98.5438 101.887C98.3977 102.012 98.2291 102.029 98.038 101.94L88.7848 97.4954C88.7201 97.4497 88.6814 97.4195 88.6689 97.405C88.6062 97.3323 88.5795 97.2351 88.5889 97.1135C88.5972 97.0055 88.6379 96.9202 88.7109 96.8578C88.8278 96.758 88.9625 96.7377 89.115 96.7969ZM93.0625 98.7281L97.8402 101.049L96.2625 95.9956L93.0625 98.7281Z" fill="black"/>
<path d="M82.8615 104.909L88.4087 107.769L84.9138 100.257C84.8693 100.161 84.8658 100.063 84.9033 99.9609C84.9408 99.8592 85.0076 99.7862 85.1037 99.7419C85.2085 99.6936 85.3121 99.6881 85.4143 99.7254C85.5165 99.7628 85.5899 99.8292 85.6344 99.9249L89.5844 108.415C89.6289 108.51 89.6344 108.613 89.601 108.724C89.5675 108.834 89.5027 108.911 89.4066 108.956C89.2669 109.02 89.0443 108.975 88.7388 108.82L82.9897 105.8L81.7432 112.013C81.6811 112.358 81.5714 112.567 81.4142 112.64C81.3269 112.68 81.2364 112.679 81.1429 112.638C81.0447 112.609 80.9714 112.543 80.9228 112.439L76.9607 103.923C76.9162 103.827 76.9127 103.728 76.9502 103.627C76.9877 103.525 77.0589 103.45 77.1637 103.402C77.2598 103.357 77.3589 103.354 77.4612 103.391C77.5634 103.429 77.6368 103.495 77.6813 103.591L81.1762 111.102L82.4221 105.127C82.4468 105.021 82.5072 104.946 82.6033 104.901C82.6906 104.861 82.7767 104.864 82.8615 104.909Z" fill="black"/>
<path d="M66.8919 111.723C66.926 113.189 66.4734 114.426 65.534 115.435C64.5946 116.443 63.3983 116.965 61.9452 116.998C60.5017 117.031 59.2827 116.575 58.2882 115.63C57.3033 114.685 56.7934 113.461 56.7584 111.957C56.7239 110.472 57.1765 109.235 58.1163 108.246C59.0557 107.237 60.252 106.716 61.7051 106.682C63.1487 106.649 64.363 107.11 65.348 108.064C66.3425 109.009 66.8571 110.229 66.8919 111.723ZM64.9157 114.931C65.7042 114.06 66.0839 112.997 66.0547 111.743C66.0255 110.488 65.5921 109.448 64.7545 108.624C63.9265 107.8 62.9158 107.402 61.7225 107.429C60.4907 107.458 59.4901 107.902 58.7205 108.763C57.9416 109.634 57.5667 110.692 57.5956 111.938C57.6248 113.192 58.0536 114.237 58.8818 115.071C59.7192 115.885 60.7345 116.278 61.9278 116.251C63.1307 116.223 64.1267 115.783 64.9157 114.931Z" fill="black"/>
<path d="M47.269 114.993L49.3 106.226C49.3238 106.124 49.3818 106.044 49.4742 105.986C49.5665 105.929 49.669 105.913 49.7815 105.939C49.8847 105.962 49.9652 106.02 50.0229 106.112C50.0806 106.204 50.0976 106.301 50.0738 106.404L48.0429 115.17L51.3352 115.926C51.4384 115.95 51.5152 116.002 51.5658 116.082C51.6141 116.172 51.6253 116.273 51.5994 116.385C51.5453 116.618 51.401 116.708 51.1665 116.654L43.808 114.965C43.7048 114.942 43.629 114.885 43.5807 114.795C43.5301 114.715 43.5179 114.619 43.5438 114.507C43.5676 114.404 43.6246 114.328 43.7148 114.28C43.7956 114.23 43.8829 114.216 43.9767 114.237L47.269 114.993Z" fill="black"/>
<path d="M35.5074 112.203C34.7153 111.831 34.1892 111.324 33.9293 110.683C33.6565 110.046 33.6927 109.364 34.038 108.636C34.2476 108.194 34.5731 107.833 35.0146 107.553C35.4433 107.278 35.9202 107.137 36.4454 107.129C35.9555 106.793 35.6484 106.352 35.5241 105.806C35.3998 105.261 35.4691 104.71 35.7322 104.156C36.1185 103.341 36.7163 102.833 37.5256 102.631C38.3476 102.424 39.1895 102.523 40.0513 102.928C41.1306 103.435 41.8525 104.224 42.217 105.296C42.2445 105.373 42.2378 105.454 42.1967 105.541C42.1515 105.636 42.0776 105.702 41.9751 105.739C41.8726 105.775 41.7778 105.773 41.6908 105.732C41.6124 105.696 41.5549 105.626 41.5181 105.524C41.1534 104.632 40.5751 104 39.7829 103.628C39.0605 103.288 38.3953 103.198 37.7875 103.358C37.1755 103.526 36.7195 103.926 36.4195 104.558C36.1729 105.078 36.1518 105.572 36.3561 106.038C36.5563 106.514 36.9567 106.893 37.5574 107.175L38.3669 107.555C38.4626 107.6 38.5266 107.668 38.5587 107.757C38.5868 107.855 38.5762 107.956 38.5268 108.06C38.4816 108.155 38.4142 108.219 38.3245 108.251C38.2261 108.279 38.1333 108.272 38.0463 108.231L37.3151 107.888C36.8799 107.683 36.4083 107.679 35.9003 107.874C35.3923 108.07 35.0191 108.419 34.7808 108.922C34.5218 109.467 34.4945 109.974 34.6989 110.441C34.9032 110.907 35.297 111.278 35.8802 111.552C36.6897 111.932 37.4833 111.988 38.2608 111.717C38.3633 111.681 38.4668 111.687 38.5713 111.736C38.6496 111.773 38.7069 111.832 38.7432 111.912C38.7754 112.001 38.7709 112.089 38.7298 112.176C38.6846 112.271 38.6235 112.333 38.5467 112.36C37.5476 112.738 36.5345 112.686 35.5074 112.203Z" fill="black"/>
<path d="M19.7873 101.573L25.8046 94.329C25.8721 94.2478 25.96 94.2021 26.0684 94.1918C26.1769 94.1816 26.2719 94.2101 26.3535 94.2772C26.4425 94.3505 26.4922 94.4411 26.5024 94.549C26.5127 94.6569 26.4841 94.7515 26.4166 94.8327L20.3994 102.076C20.3319 102.158 20.247 102.2 20.1447 102.202C20.0363 102.213 19.9339 102.178 19.8374 102.099C19.7632 102.038 19.721 101.953 19.7107 101.845C19.7005 101.737 19.726 101.647 19.7873 101.573ZM28.7362 103.25L31.6621 99.7274C30.9905 99.1375 30.6325 98.8242 30.588 98.7875C29.8313 98.1648 29.1245 97.8504 28.4675 97.8444C27.8031 97.8322 27.2133 98.1363 26.6981 98.7565C26.2319 99.3177 26.0728 99.9077 26.2206 100.527C26.3549 101.147 26.793 101.762 27.5348 102.373C27.928 102.696 28.3285 102.989 28.7362 103.25ZM32.4949 99.9652L26.5421 107.131C26.4746 107.213 26.3897 107.255 26.2874 107.257C26.179 107.268 26.0803 107.236 25.9912 107.163C25.9096 107.096 25.8637 107.008 25.8534 106.9C25.837 106.8 25.8625 106.709 25.93 106.628L28.2486 103.837C27.6244 103.385 27.2159 103.08 27.023 102.921C26.0734 102.14 25.5194 101.348 25.361 100.547C25.2026 99.7449 25.4301 98.9748 26.0435 98.2364C26.6998 97.4464 27.4729 97.057 28.3628 97.0683C29.2527 97.0796 30.1762 97.479 31.1332 98.2665C31.3187 98.4192 31.7539 98.7898 32.439 99.3785C32.5281 99.4517 32.5814 99.5454 32.5991 99.6594C32.6033 99.7747 32.5685 99.8766 32.4949 99.9652Z" fill="black"/>
<path d="M12.4275 89.9362C12.927 89.5773 13.4488 89.421 13.9929 89.4673C14.5291 89.5192 15.0344 89.7411 15.5086 90.133C15.1472 89.471 15.0198 88.8535 15.1266 88.2805C15.22 87.7053 15.5476 87.2159 16.1096 86.8121C16.8745 86.2626 17.6447 86.105 18.4203 86.3395C19.1823 86.5719 19.8902 87.1386 20.5437 88.0397C21.0395 88.7234 21.4616 89.33 21.8101 89.8595C21.8777 89.9527 21.9017 90.0595 21.8822 90.1799C21.857 90.2925 21.7976 90.3825 21.7039 90.4498L14.2111 95.8331C14.1174 95.9004 14.0168 95.9254 13.9093 95.9081C13.7884 95.8887 13.6902 95.8351 13.6148 95.7475C12.8646 94.7622 12.4162 94.1686 12.2698 93.9666C11.0246 92.2498 11.0772 90.9063 12.4275 89.9362ZM16.5677 90.8077L17.6917 92.3575L20.9698 90.0023C20.4377 89.2031 20.0871 88.6869 19.918 88.4538C19.3941 87.7314 18.8457 87.2864 18.2731 87.1188C17.6948 86.9435 17.1169 87.0633 16.5393 87.4782C16.0398 87.8371 15.7915 88.305 15.7944 88.882C15.7972 89.4589 16.055 90.1008 16.5677 90.8077ZM14.0038 95.0072L17.1181 92.7697L15.9687 91.1849C15.58 90.6489 15.1144 90.3099 14.5721 90.1678C14.022 90.0313 13.505 90.1369 13.0211 90.4845C11.9908 91.2247 11.9489 92.2474 12.8954 93.5525C13.1377 93.8865 13.5072 94.3714 14.0038 95.0072Z" fill="black"/>
<path d="M12.3186 81.0789L12.3582 81.0614C12.6396 80.9367 12.8234 80.9707 12.9095 81.1632C13.0113 81.3908 12.8731 81.5884 12.495 81.7559C12.3543 81.8183 12.2165 81.8636 12.0816 81.8919C11.934 81.9153 11.8041 81.9309 11.6917 81.9388C11.5793 81.9466 11.4463 81.9321 11.2929 81.8952C11.1355 81.8496 11.0206 81.8166 10.9483 81.7962C10.8632 81.7709 10.7342 81.718 10.5612 81.6374C10.3842 81.548 10.2747 81.4916 10.2327 81.4683C10.1779 81.4401 10.0562 81.3682 9.86748 81.2525C9.67878 81.1369 9.57173 81.0742 9.54631 81.0645C8.8365 80.6553 8.13862 80.6027 7.45268 80.9066C6.969 81.1209 6.64471 81.4796 6.47982 81.9826C6.31494 82.4856 6.3558 83.0129 6.60241 83.5643C6.93515 84.3083 7.49058 84.7963 8.26871 85.0284C8.35375 85.0536 8.41781 85.1144 8.46087 85.2107C8.50002 85.2982 8.50251 85.3862 8.46836 85.4748C8.43908 85.5507 8.38487 85.6062 8.30572 85.6412C8.20898 85.6841 8.11174 85.6905 8.01398 85.6604C7.57116 85.5419 7.16102 85.3199 6.78357 84.9942C6.3934 84.6637 6.09655 84.2708 5.89299 83.8157C5.53285 83.0104 5.46646 82.2847 5.69381 81.6387C5.92117 80.9926 6.35144 80.5293 6.98462 80.2488C7.3188 80.1007 7.64373 80.0145 7.95941 79.99C8.26238 79.9606 8.58347 80.0071 8.92269 80.1295C9.2492 80.247 9.48627 80.3412 9.63389 80.4122C9.76881 80.4782 10.0083 80.6133 10.3525 80.8174C11.0916 81.245 11.747 81.3322 12.3186 81.0789ZM15.1773 80.7563C15.0454 80.8147 14.9139 80.8153 14.7829 80.758C14.6431 80.7046 14.54 80.6034 14.4734 80.4546C14.4147 80.3233 14.4122 80.1881 14.4658 80.049C14.5195 79.9098 14.6079 79.813 14.731 79.7585C14.8717 79.6961 15.0164 79.6897 15.165 79.7392C15.3136 79.7888 15.4172 79.8792 15.4759 80.0105C15.5425 80.1593 15.5445 80.3052 15.4821 80.4482C15.4196 80.5913 15.318 80.6939 15.1773 80.7563Z" fill="black"/>
</svg>
