<svg width="48" height="48" viewBox="0 0 48 48" fill="none" xmlns="http://www.w3.org/2000/svg">
<g clip-path="url(#clip0_6485_13606)">
<path d="M37.9291 33.2199L35.5831 30.8739C34.4111 29.7019 32.5111 29.7019 31.3411 30.8739L29.4971 32.7179C29.0851 33.1299 28.4611 33.2679 27.9291 33.0339C25.2571 31.8639 22.6171 30.0899 20.2631 27.7359C17.9191 25.3919 16.1511 22.7639 14.9791 20.1019C14.7351 19.5519 14.8771 18.9059 15.3031 18.4799L16.9551 16.8279C18.2971 15.4859 18.2971 13.5879 17.1251 12.4159L14.7791 10.0699C13.2171 8.50794 10.6851 8.50794 9.12307 10.0699L7.81907 11.3719C6.33707 12.8539 5.71907 14.9919 6.11907 17.1119C7.10707 22.3379 10.1431 28.0599 15.0411 32.9579C19.9391 37.8559 25.6611 40.8919 30.8871 41.8799C33.0071 42.2799 35.1451 41.6619 36.6271 40.1799L37.9291 38.8779C39.4911 37.3159 39.4911 34.7839 37.9291 33.2199Z" stroke="#FD9339" stroke-width="3" stroke-miterlimit="10" stroke-linecap="round" stroke-linejoin="round"/>
<path d="M26 13.9819C28.062 13.9539 30.134 14.7179 31.708 16.2919" stroke="#FD9339" stroke-width="3" stroke-miterlimit="10" stroke-linecap="round" stroke-linejoin="round"/>
<path d="M37.364 10.636C34.226 7.49798 30.112 5.92798 26 5.92798" stroke="#FD9339" stroke-width="3" stroke-miterlimit="10" stroke-linecap="round" stroke-linejoin="round"/>
<path d="M34.017 22C34.045 19.938 33.281 17.866 31.707 16.292" stroke="#FD9339" stroke-width="3" stroke-miterlimit="10" stroke-linecap="round" stroke-linejoin="round"/>
<path d="M37.3633 10.636C40.5013 13.774 42.0713 17.888 42.0713 22" stroke="#FD9339" stroke-width="3" stroke-miterlimit="10" stroke-linecap="round" stroke-linejoin="round"/>
</g>
<defs>
<clipPath id="clip0_6485_13606">
<rect width="48" height="48" fill="white"/>
</clipPath>
</defs>
</svg>
