<svg width="98" height="18" viewBox="0 0 98 18" fill="none" xmlns="http://www.w3.org/2000/svg">
<path d="M8.55163 0.908492C8.73504 0.536869 9.26496 0.53687 9.44837 0.908493L11.5287 5.1237C11.6015 5.27127 11.7423 5.37356 11.9052 5.39722L16.5569 6.07316C16.967 6.13276 17.1308 6.63674 16.834 6.92601L13.468 10.2071C13.3501 10.322 13.2964 10.4875 13.3242 10.6497L14.1188 15.2826C14.1889 15.6911 13.7601 16.0026 13.3933 15.8097L9.23267 13.6223C9.08701 13.5457 8.91299 13.5457 8.76733 13.6223L4.60667 15.8097C4.23985 16.0026 3.81114 15.6911 3.88119 15.2826L4.67581 10.6497C4.70363 10.4875 4.64985 10.322 4.53201 10.2071L1.16597 6.92601C0.869207 6.63674 1.03296 6.13276 1.44307 6.07316L6.09483 5.39722C6.25769 5.37356 6.39847 5.27127 6.4713 5.1237L8.55163 0.908492Z" fill="#FBCC42"/>
<path d="M28.5516 0.908492C28.735 0.536869 29.265 0.53687 29.4484 0.908493L31.5287 5.1237C31.6015 5.27127 31.7423 5.37356 31.9052 5.39722L36.5569 6.07316C36.967 6.13276 37.1308 6.63674 36.834 6.92601L33.468 10.2071C33.3501 10.322 33.2964 10.4875 33.3242 10.6497L34.1188 15.2826C34.1889 15.6911 33.7601 16.0026 33.3933 15.8097L29.2327 13.6223C29.087 13.5457 28.913 13.5457 28.7673 13.6223L24.6067 15.8097C24.2399 16.0026 23.8111 15.6911 23.8812 15.2826L24.6758 10.6497C24.7036 10.4875 24.6499 10.322 24.532 10.2071L21.166 6.92601C20.8692 6.63674 21.033 6.13276 21.4431 6.07316L26.0948 5.39722C26.2577 5.37356 26.3985 5.27127 26.4713 5.1237L28.5516 0.908492Z" fill="#FBCC42"/>
<path d="M48.5516 0.908492C48.735 0.536869 49.265 0.53687 49.4484 0.908493L51.5287 5.1237C51.6015 5.27127 51.7423 5.37356 51.9052 5.39722L56.5569 6.07316C56.967 6.13276 57.1308 6.63674 56.834 6.92601L53.468 10.2071C53.3501 10.322 53.2964 10.4875 53.3242 10.6497L54.1188 15.2826C54.1889 15.6911 53.7601 16.0026 53.3933 15.8097L49.2327 13.6223C49.087 13.5457 48.913 13.5457 48.7673 13.6223L44.6067 15.8097C44.2399 16.0026 43.8111 15.6911 43.8812 15.2826L44.6758 10.6497C44.7036 10.4875 44.6499 10.322 44.532 10.2071L41.166 6.92601C40.8692 6.63674 41.033 6.13276 41.4431 6.07316L46.0948 5.39722C46.2577 5.37356 46.3985 5.27127 46.4713 5.1237L48.5516 0.908492Z" fill="#FBCC42"/>
<path d="M68.5516 0.908492C68.735 0.536869 69.265 0.53687 69.4484 0.908493L71.5287 5.1237C71.6015 5.27127 71.7423 5.37356 71.9052 5.39722L76.5569 6.07316C76.967 6.13276 77.1308 6.63674 76.834 6.92601L73.468 10.2071C73.3501 10.322 73.2964 10.4875 73.3242 10.6497L74.1188 15.2826C74.1889 15.6911 73.7601 16.0026 73.3933 15.8097L69.2327 13.6223C69.087 13.5457 68.913 13.5457 68.7673 13.6223L64.6067 15.8097C64.2399 16.0026 63.8111 15.6911 63.8812 15.2826L64.6758 10.6497C64.7036 10.4875 64.6499 10.322 64.532 10.2071L61.166 6.92601C60.8692 6.63674 61.033 6.13276 61.4431 6.07316L66.0948 5.39722C66.2577 5.37356 66.3985 5.27127 66.4713 5.1237L68.5516 0.908492Z" fill="#FBCC42"/>
<path d="M89 1.12978L91.0803 5.34499C91.226 5.64013 91.5076 5.8447 91.8333 5.89203L96.485 6.56797L93.119 9.84905C92.8833 10.0788 92.7757 10.4098 92.8314 10.7342L93.626 15.3671L89.4653 13.1798C89.174 13.0266 88.826 13.0266 88.5347 13.1798L84.374 15.3671L85.1686 10.7342C85.2243 10.4098 85.1167 10.0788 84.881 9.84905L81.515 6.56797L86.1667 5.89203C86.4924 5.8447 86.774 5.64013 86.9197 5.34499L89 1.12978Z" stroke="#FBCC42"/>
</svg>
