<svg width="34" height="34" viewBox="0 0 34 34" fill="none" xmlns="http://www.w3.org/2000/svg">
<path d="M28.6579 10.797C25.2241 7.65402 21.8224 4.51102 18.3565 1.40009C17.8751 0.983163 17.2654 0.566234 16.6556 0.47002C13.3181 -0.20348 10.2694 0.309663 7.76622 2.84331C7.4774 3.09988 7.25276 3.42059 7.06021 3.70923C6.86766 3.96581 6.73929 4.28652 6.51465 4.67138C7.02812 4.83173 7.44531 4.99209 7.8625 5.15245C11.6493 6.46738 15.4361 7.7823 19.223 9.06516C19.8969 9.28966 20.3462 9.8028 20.7954 10.4122C21.0201 10.7008 21.7903 10.9574 22.1433 10.8932C23.106 10.6687 23.8442 10.7008 24.7427 11.0215C26.7966 11.7271 28.8184 12.4327 30.9685 12.9779C30.1983 12.2402 29.4281 11.5026 28.6579 10.797ZM16.8482 4.12616C16.6556 4.70345 15.5324 4.83173 14.3771 4.41481C13.2218 3.99788 12.4516 3.19609 12.6442 2.61881C12.8367 2.04152 13.9599 1.91323 15.1152 2.33016C16.2705 2.74709 17.0407 3.54888 16.8482 4.12616ZM23.6195 8.61616C23.4591 9.06516 22.6568 9.22552 21.8545 8.93688C21.0522 8.64823 20.5387 8.03888 20.6992 7.58988C20.8596 7.14088 21.6619 6.98052 22.4642 7.26916C23.2665 7.52573 23.78 8.13509 23.6195 8.61616Z" fill="#FD9339"/>
<path d="M32.7011 15.3514C29.7808 14.3252 26.8604 13.3309 23.9401 12.3047C23.2983 12.0802 22.849 12.2726 22.143 12.465C21.3407 12.6895 20.41 12.3688 19.8324 11.7594C19.5435 11.4387 19.2868 10.7332 18.9017 10.5728C14.8261 9.12959 10.7183 7.71844 6.61059 6.3073C6.41804 6.24316 6.22549 6.21109 5.96876 6.17902C5.74412 6.85252 5.51948 7.49394 5.29483 8.16744C7.25243 10.0597 6.89942 13.2668 3.30515 13.9403C2.85586 15.2873 2.37449 16.6664 1.92521 18.0775C1.34756 19.8414 0.737813 21.6054 0.160163 23.3693C-0.128662 24.2994 -0.0644788 24.4597 0.834089 24.8125C1.5722 25.1012 2.3424 25.3257 3.08051 25.5822C7.38079 27.0575 11.6811 28.5649 15.9814 30.0402C16.3344 30.1684 16.6874 30.2967 16.9762 30.3929C19.9607 28.2121 21.9504 28.9177 22.7527 32.3814C24.0043 32.8304 25.3521 33.2794 26.6679 33.7284C27.2456 33.9208 27.6306 33.7284 27.8232 33.119C28.1441 32.0927 28.5292 31.0344 28.8822 29.9439C27.4381 29.0139 26.5074 27.7952 27.0851 26.0312C27.6627 24.2673 29.1069 23.7862 30.8077 23.9787C31.7384 21.2205 32.637 18.4944 33.5676 15.7042C33.2788 15.6401 32.99 15.4797 32.7011 15.3514ZM6.48223 22.9524C6.41804 23.1127 6.32177 23.2731 6.1934 23.4014C5.8083 23.7862 5.19856 23.9787 4.653 23.8183C3.97907 23.6259 3.56188 22.8882 3.62607 22.1827C3.62607 22.0864 3.65816 21.9902 3.69025 21.894C3.72234 21.7337 3.81862 21.6054 3.94698 21.4771C3.94698 21.445 3.97907 21.445 3.97907 21.4129C4.17162 21.2205 4.39627 21.0922 4.653 20.996C4.68509 20.996 4.74927 20.9639 4.78137 20.9639C5.07019 20.8998 5.35902 20.8998 5.61575 20.996C5.8083 21.0602 5.96876 21.1564 6.09713 21.3167C6.16131 21.3809 6.22549 21.445 6.28968 21.5412C6.45013 21.7978 6.54641 22.0864 6.5785 22.3751C6.5785 22.5675 6.54641 22.7599 6.48223 22.9524ZM16.0135 17.8851C15.6284 18.1417 15.1791 18.302 14.6977 18.3341C14.6656 18.3341 14.6335 18.3341 14.6335 18.3341C14.441 18.3341 14.2484 18.3341 14.0238 18.302C13.8312 18.2699 13.6066 18.2379 13.414 18.1417C13.2215 18.0775 13.061 17.9813 12.9006 17.8851C12.0983 17.404 11.5848 16.506 11.4885 15.5439C11.4564 15.159 11.4885 14.7742 11.6169 14.4214C11.7453 14.0686 11.9057 13.7799 12.0983 13.4913C12.1304 13.4272 12.1625 13.363 12.1945 13.3309C12.355 13.1385 12.5796 12.9461 12.7722 12.8178C12.9327 12.6895 13.1252 12.5933 13.2857 12.5292C13.9275 12.2726 14.6335 12.2084 15.3716 12.465C16.5269 12.8819 17.265 13.9082 17.3292 15.0628C17.3613 15.4477 17.2971 15.8646 17.1688 16.2494C17.1046 16.4419 17.0083 16.6343 16.912 16.8267C16.7195 17.3078 16.3986 17.6285 16.0135 17.8851ZM18.6771 25.9671C17.618 25.9671 16.7516 25.1012 16.7516 24.0428C16.7516 22.9844 17.618 22.1185 18.6771 22.1185C19.7361 22.1185 20.6026 22.9844 20.6026 24.0428C20.6026 25.1012 19.7361 25.9671 18.6771 25.9671ZM26.9567 19.6169C26.8605 19.9697 26.6358 20.2584 26.3149 20.4508C26.2507 20.4829 26.1865 20.547 26.0903 20.5791C25.7693 20.7074 25.4163 20.7715 25.0954 20.6753C24.4215 20.4508 24.0043 19.7773 24.0685 19.0717C24.0685 19.0397 24.0685 19.0397 24.0685 19.0076C24.0685 18.9434 24.1006 18.8472 24.1327 18.7831C24.1968 18.5907 24.2931 18.3982 24.4215 18.2699C24.614 18.0454 24.8708 17.8851 25.1596 17.8209C25.4484 17.7568 25.7372 17.7568 26.0261 17.853C26.2186 17.9172 26.3791 18.0134 26.5074 18.1417C26.8604 18.4624 27.053 18.9114 27.0209 19.3924C26.9888 19.4245 26.9888 19.5207 26.9567 19.6169Z" fill="#FD9339"/>
</svg>
