<svg width="1180" height="440" viewBox="0 0 1180 440" fill="none" xmlns="http://www.w3.org/2000/svg">
<path fill-rule="evenodd" clip-rule="evenodd" d="M1107.82 36C1127.75 36 1143.92 19.8823 1143.92 0H1170C1175.52 0 1180 4.47715 1180 10V430C1180 435.523 1175.52 440 1170 440H562.102C561.088 428.787 551.638 420 540.13 420C528.622 420 519.172 428.787 518.159 440H120.919C114.547 429.793 103.194 423 90.25 423C77.3062 423 65.9534 429.793 59.5815 440H10C4.47717 440 0 435.523 0 430V114.975C9.70579 108.522 16.0999 97.5055 16.0999 85C16.0999 72.4945 9.70579 61.4783 0 55.0253V9.99999C0 4.47714 4.47715 0 10 0H304.934C314.309 11.5877 328.666 19 344.758 19C360.851 19 375.208 11.5877 384.582 0H1071.72C1071.72 19.8823 1087.88 36 1107.82 36Z" fill="#FEE9A5"/>
</svg>
