<svg width="22" height="22" viewBox="0 0 22 22" fill="none" xmlns="http://www.w3.org/2000/svg">
<path d="M18.3333 2.75V10.0833" stroke="#4E2D2D" stroke-width="1.4" stroke-linecap="round" stroke-linejoin="round"/>
<path d="M20.1667 4.58333L18.3333 2.75H3.66668H18.3333H3.66668L1.83334 4.58333" stroke="#4E2D2D" stroke-width="1.4" stroke-linecap="round" stroke-linejoin="round"/>
<path d="M3.66666 2.75V17.4167C3.66666 17.9029 3.85981 18.3692 4.20363 18.713C4.54744 19.0568 5.01376 19.25 5.49999 19.25H7.33332" stroke="#4E2D2D" stroke-width="1.4" stroke-linecap="round" stroke-linejoin="round"/>
<path d="M4.04861 2.75L5.64325 5.14195C5.81067 5.39308 6.0375 5.59899 6.3036 5.7414C6.56971 5.88382 6.86686 5.95833 7.16867 5.95833H14.8313C15.1331 5.95833 15.4303 5.88382 15.6964 5.7414C15.9625 5.59899 16.1893 5.39308 16.3568 5.14195L17.9514 2.75" stroke="#4E2D2D" stroke-width="1.4" stroke-linecap="round" stroke-linejoin="round"/>
<path d="M16.7191 20.1667H12.6143C12.4319 20.1667 12.2571 20.0942 12.1281 19.9653C11.9992 19.8364 11.9268 19.6615 11.9268 19.4792V18.6844C11.2259 18.2796 10.6191 17.7304 10.1465 17.0733C9.674 16.4162 9.34652 15.6662 9.18581 14.8729C9.1566 14.7384 9.15772 14.5991 9.18909 14.4651C9.22045 14.3312 9.28128 14.2058 9.36715 14.0983C9.45302 13.9908 9.56176 13.9037 9.68549 13.8434C9.80922 13.7832 9.94481 13.7513 10.0824 13.75H19.2509C19.3885 13.7513 19.5241 13.7832 19.6479 13.8434C19.7716 13.9037 19.8804 13.9907 19.9662 14.0983C20.0521 14.2058 20.113 14.3311 20.1443 14.4651C20.1757 14.5991 20.1768 14.7384 20.1476 14.8729C19.9869 15.6662 19.6594 16.4162 19.1868 17.0733C18.7143 17.7304 18.1075 18.2796 17.4066 18.6844V19.4792C17.4066 19.6615 17.3342 19.8364 17.2052 19.9653C17.0763 20.0942 16.9014 20.1667 16.7191 20.1667V20.1667Z" stroke="#4E2D2D" stroke-width="1.4" stroke-linecap="round" stroke-linejoin="round"/>
</svg>
