<svg width="1218" height="557" viewBox="0 0 1218 557" fill="none" xmlns="http://www.w3.org/2000/svg">
<g filter="url(#filter0_d_6485_15664)">
<path fill-rule="evenodd" clip-rule="evenodd" d="M701 231C698.239 231 696 233.238 696 236V306.707C695.896 308.671 695.812 310.686 695.749 312.752C695.293 327.489 677.727 334.926 669 336.803C684.373 336.803 697.42 335.426 708.419 333H919C921.761 333 924 330.761 924 328V236C924 233.238 921.761 231 919 231H701Z" fill="white"/>
<path d="M696 306.707H696.5V306.721L696.499 306.734L696 306.707ZM695.749 312.752L696.248 312.767L695.749 312.752ZM669 336.803V337.303L668.895 336.314L669 336.803ZM708.419 333L708.311 332.511L708.364 332.5H708.419V333ZM695.5 236C695.5 232.962 697.962 230.5 701 230.5V231.5C698.515 231.5 696.5 233.514 696.5 236H695.5ZM695.5 306.707V236H696.5V306.707H695.5ZM695.249 312.737C695.313 310.667 695.397 308.649 695.501 306.681L696.499 306.734C696.396 308.694 696.312 310.705 696.248 312.767L695.249 312.737ZM668.895 336.314C673.208 335.387 679.714 333.081 685.186 329.193C690.659 325.304 695.028 319.887 695.249 312.737L696.248 312.767C696.014 320.354 691.372 326.024 685.766 330.008C680.159 333.992 673.519 336.343 669.105 337.292L668.895 336.314ZM708.527 333.488C697.486 335.923 684.402 337.303 669 337.303V336.303C684.344 336.303 697.354 334.928 708.311 332.511L708.527 333.488ZM919 333.5H708.419V332.5H919V333.5ZM924.5 328C924.5 331.037 922.038 333.5 919 333.5V332.5C921.485 332.5 923.5 330.485 923.5 328H924.5ZM924.5 236V328H923.5V236H924.5ZM919 230.5C922.038 230.5 924.5 232.962 924.5 236H923.5C923.5 233.514 921.485 231.5 919 231.5V230.5ZM701 230.5H919V231.5H701V230.5Z" fill="#FF9E4C"/>
</g>
<path d="M768.641 264.752C768.417 264.752 767.617 264.768 766.241 264.8C765.873 264.8 765.569 265.12 765.569 265.488V275.328C765.569 275.696 765.873 276 766.241 276.016C767.153 276.032 767.937 276.048 768.577 276.048C771.025 276.048 772.641 274.976 772.641 272.8C772.641 271.312 771.745 270.384 770.321 270.128C771.473 269.728 772.241 268.864 772.241 267.52C772.241 265.84 771.153 264.752 768.641 264.752ZM768.737 270.896C770.353 270.896 771.281 271.552 771.281 272.72C771.281 274.064 770.337 274.768 768.657 274.768C768.001 274.768 767.425 274.752 766.929 274.704V270.896H768.737ZM766.929 266.08C767.729 266.048 768.289 266.032 768.609 266.032C770.129 266.032 770.881 266.624 770.881 267.824C770.881 268.992 769.953 269.696 768.721 269.696H766.929V266.08ZM776.196 269.328C776.26 268.544 774.852 268.544 774.916 269.328V275.392C774.916 275.728 775.188 276 775.524 276H777.236C779.332 276 780.228 274.896 780.228 273.44C780.228 271.984 779.428 270.96 777.38 270.96H776.196V269.328ZM782.884 269.328C782.948 268.544 781.54 268.544 781.604 269.328V275.504C781.54 276.288 782.948 276.288 782.884 275.504V269.328ZM776.196 272.16H777.14C778.292 272.16 778.868 272.608 778.868 273.488C778.868 274.368 778.356 274.8 777.124 274.8H776.196V272.16ZM789.133 270C789.469 270 789.741 269.728 789.741 269.392C789.741 269.072 789.469 268.8 789.133 268.8H785.789C785.453 268.8 785.181 269.072 785.181 269.408V275.504C785.117 276.288 786.525 276.288 786.461 275.504V270H789.133ZM791.336 275.088C792.04 275.808 792.968 276.16 794.104 276.16C795.24 276.16 796.168 275.808 796.888 275.088C797.592 274.384 797.944 273.488 797.944 272.4C797.944 271.312 797.592 270.416 796.888 269.696C796.168 268.992 795.24 268.64 794.104 268.64C792.968 268.64 792.04 268.992 791.336 269.696C790.616 270.416 790.264 271.312 790.264 272.4C790.264 273.488 790.616 274.384 791.336 275.088ZM791.624 272.4C791.624 270.88 792.68 269.84 794.104 269.84C795.56 269.84 796.584 270.912 796.584 272.4C796.584 273.92 795.56 274.96 794.104 274.96C792.648 274.96 791.624 273.888 791.624 272.4ZM805.526 276V277.152C805.526 277.488 805.798 277.76 806.134 277.76C806.454 277.76 806.726 277.488 806.726 277.152V275.408C806.726 275.072 806.454 274.8 806.118 274.8H805.526V269.408C805.526 269.072 805.254 268.8 804.918 268.8H801.222C800.886 268.8 800.598 269.072 800.582 269.408L800.502 270.704C800.374 272.576 799.91 274.16 799.398 274.8H799.11C798.774 274.8 798.502 275.072 798.502 275.408V277.152C798.502 277.488 798.774 277.76 799.11 277.76C799.43 277.76 799.702 277.488 799.702 277.152V276H805.526ZM800.758 274.8C801.142 274.288 801.59 272.88 801.734 271.2L801.814 270H804.246V274.8H800.758ZM814.601 269.328C814.665 268.544 813.257 268.544 813.321 269.328V271.76H809.321V269.328C809.385 268.544 807.977 268.544 808.041 269.328V275.504C807.977 276.288 809.385 276.288 809.321 275.504V272.96H813.321V275.504C813.257 276.288 814.665 276.288 814.601 275.504V269.328ZM818.18 269.328C818.244 268.544 816.836 268.544 816.9 269.328V275.392C816.9 275.728 817.172 276 817.508 276H819.22C821.316 276 822.212 274.896 822.212 273.44C822.212 271.984 821.412 270.96 819.364 270.96H818.18V269.328ZM824.868 269.328C824.932 268.544 823.524 268.544 823.588 269.328V275.504C823.524 276.288 824.932 276.288 824.868 275.504V269.328ZM818.18 272.16H819.124C820.276 272.16 820.852 272.608 820.852 273.488C820.852 274.368 820.34 274.8 819.108 274.8H818.18V272.16ZM828.046 271.76C828.19 270.624 829.054 269.84 830.334 269.84C831.566 269.84 832.35 270.56 832.414 271.76H828.046ZM833.742 271.936C833.742 270.96 833.422 270.176 832.782 269.552C832.142 268.944 831.342 268.64 830.398 268.64C829.246 268.64 828.334 268.992 827.678 269.696C827.022 270.416 826.686 271.312 826.686 272.4C826.686 273.536 827.038 274.448 827.742 275.136C828.446 275.824 829.374 276.16 830.542 276.16C831.486 276.16 832.334 275.888 833.086 275.36C833.214 275.28 833.278 275.136 833.278 274.928C833.278 274.816 833.246 274.72 833.182 274.64C833.054 274.496 832.91 274.432 832.75 274.432C832.638 274.432 832.51 274.464 832.398 274.528C831.902 274.816 831.31 274.96 830.638 274.96C829.214 274.96 828.238 274.144 828.126 272.8H833.182C833.438 272.8 833.71 272.544 833.726 272.288C833.742 272.208 833.742 272.096 833.742 271.936ZM772.641 296.408C772.641 296.072 772.369 295.8 772.033 295.8H771.441V290.328C771.505 289.544 770.097 289.544 770.161 290.328V295.8H766.321V290.328C766.385 289.544 764.977 289.544 765.041 290.328V296.392C765.041 296.728 765.313 297 765.649 297H771.441V298.152C771.441 298.488 771.713 298.76 772.049 298.76C772.369 298.76 772.641 298.488 772.641 298.152V296.408ZM774.905 292.76C775.049 291.624 775.913 290.84 777.193 290.84C778.425 290.84 779.209 291.56 779.273 292.76H774.905ZM780.601 292.936C780.601 291.96 780.281 291.176 779.641 290.552C779.001 289.944 778.201 289.64 777.257 289.64C776.105 289.64 775.193 289.992 774.537 290.696C773.881 291.416 773.545 292.312 773.545 293.4C773.545 294.536 773.897 295.448 774.601 296.136C775.305 296.824 776.233 297.16 777.401 297.16C778.345 297.16 779.193 296.888 779.945 296.36C780.073 296.28 780.137 296.136 780.137 295.928C780.137 295.816 780.105 295.72 780.041 295.64C779.913 295.496 779.769 295.432 779.609 295.432C779.497 295.432 779.369 295.464 779.257 295.528C778.761 295.816 778.169 295.96 777.497 295.96C776.073 295.96 775.097 295.144 774.985 293.8H780.041C780.297 293.8 780.569 293.544 780.585 293.288C780.601 293.208 780.601 293.096 780.601 292.936ZM788.991 290.328C789.055 289.544 787.647 289.544 787.711 290.328V292.76H783.711V290.328C783.775 289.544 782.367 289.544 782.431 290.328V296.504C782.367 297.288 783.775 297.288 783.711 296.504V293.96H787.711V296.504C787.647 297.288 789.055 297.288 788.991 296.504V290.328ZM792.571 290.328C792.635 289.544 791.227 289.544 791.291 290.328V296.392C791.291 296.728 791.563 297 791.899 297H793.611C795.707 297 796.603 295.896 796.603 294.44C796.603 292.984 795.803 291.96 793.755 291.96H792.571V290.328ZM799.259 290.328C799.323 289.544 797.915 289.544 797.979 290.328V296.504C797.915 297.288 799.323 297.288 799.259 296.504V290.328ZM792.571 293.16H793.515C794.667 293.16 795.243 293.608 795.243 294.488C795.243 295.368 794.731 295.8 793.499 295.8H792.571V293.16ZM811.87 290.376C811.87 290.04 811.598 289.72 811.23 289.72C810.958 289.72 810.654 289.912 810.318 290.312L806.43 295.096V290.328C806.494 289.544 805.086 289.544 805.15 290.328V296.472C805.15 296.808 805.422 297.112 805.79 297.112C806.078 297.112 806.382 296.92 806.702 296.536L810.59 291.752V296.504C810.526 297.288 811.934 297.288 811.87 296.504V290.376ZM818.319 290.12C818.191 289.848 817.983 289.72 817.711 289.72C817.279 289.72 817.007 290.024 817.007 290.392C817.007 290.504 817.023 290.616 817.071 290.696L820.095 297L819.935 297.384C819.439 298.536 818.991 299.016 818.399 299.016C818.207 299.016 817.887 298.936 817.775 298.936C817.439 298.936 817.263 299.112 817.263 299.448C817.263 299.944 817.695 300.2 818.543 300.2C819.071 300.2 819.551 299.976 819.951 299.544C820.351 299.096 820.799 298.248 821.295 297L823.839 290.648C823.887 290.52 823.903 290.424 823.903 290.344C823.903 289.976 823.647 289.72 823.199 289.72C822.895 289.72 822.687 289.88 822.575 290.216L821.055 294.36C820.927 294.744 820.815 295.112 820.719 295.464C820.447 294.792 820.303 294.424 820.287 294.376L818.319 290.12ZM830.078 291.256C830.158 291.304 830.27 291.32 830.382 291.32C830.622 291.32 830.798 291.224 830.91 291.032C830.958 290.952 830.99 290.856 830.99 290.744C830.99 290.504 830.878 290.312 830.654 290.2C829.998 289.832 829.214 289.64 828.318 289.64C827.278 289.64 826.398 290.008 825.71 290.728C825.022 291.448 824.67 292.344 824.67 293.4C824.67 294.536 825.022 295.432 825.742 296.12C826.446 296.808 827.374 297.16 828.526 297.16C829.502 297.16 830.334 296.856 831.022 296.232C831.134 296.136 831.198 295.992 831.198 295.816C831.198 295.656 831.134 295.528 831.022 295.416C830.91 295.304 830.798 295.256 830.654 295.256C830.494 295.256 830.334 295.32 830.158 295.464C829.726 295.8 829.214 295.96 828.622 295.96C827.886 295.96 827.278 295.72 826.782 295.256C826.286 294.792 826.03 294.168 826.03 293.4C826.03 292.664 826.27 292.056 826.766 291.56C827.246 291.08 827.822 290.84 828.494 290.84C829.022 290.84 829.55 290.984 830.078 291.256ZM838.73 290.408C838.73 290.072 838.458 289.8 838.122 289.8H834.33C833.994 289.8 833.706 290.072 833.69 290.408L833.594 292.04C833.514 293.336 833.37 294.248 833.162 294.808C832.954 295.368 832.666 295.72 832.298 295.864C831.962 296.008 831.786 296.216 831.786 296.52C831.786 296.888 832.042 297.112 832.426 297.112C833.626 297.112 834.634 295.64 834.842 292.296L834.922 291.08H837.45V296.504C837.386 297.288 838.794 297.288 838.73 296.504V290.408ZM841.633 296.088C842.337 296.808 843.265 297.16 844.401 297.16C845.537 297.16 846.465 296.808 847.185 296.088C847.889 295.384 848.241 294.488 848.241 293.4C848.241 292.312 847.889 291.416 847.185 290.696C846.465 289.992 845.537 289.64 844.401 289.64C843.265 289.64 842.337 289.992 841.633 290.696C840.913 291.416 840.561 292.312 840.561 293.4C840.561 294.488 840.913 295.384 841.633 296.088ZM841.921 293.4C841.921 291.88 842.977 290.84 844.401 290.84C845.857 290.84 846.881 291.912 846.881 293.4C846.881 294.92 845.857 295.96 844.401 295.96C842.945 295.96 841.921 294.888 841.921 293.4ZM855.784 291.592C855.784 290.36 854.744 289.736 852.68 289.736C852.504 289.736 851.832 289.752 850.68 289.784C850.344 289.8 850.072 290.088 850.072 290.424V296.376C850.072 296.712 850.344 297 850.68 297.016C851.928 297.048 852.6 297.064 852.712 297.064C854.92 297.064 856.024 296.36 856.024 294.968C856.024 294.04 855.464 293.464 854.344 293.256C855.192 293.112 855.784 292.44 855.784 291.592ZM852.888 293.768C854.072 293.768 854.664 294.136 854.664 294.872C854.664 295.64 854.056 296.024 852.824 296.024C852.616 296.024 852.12 296.008 851.352 295.976V293.768H852.888ZM851.352 290.824C851.992 290.792 852.472 290.776 852.776 290.776C853.88 290.776 854.424 291.128 854.424 291.848C854.424 292.536 853.848 292.968 852.968 292.968H851.352V290.824ZM864.698 290.376C864.698 290.04 864.426 289.72 864.058 289.72C863.786 289.72 863.482 289.912 863.146 290.312L859.258 295.096V290.328C859.322 289.544 857.914 289.544 857.978 290.328V296.472C857.978 296.808 858.25 297.112 858.618 297.112C858.906 297.112 859.21 296.92 859.53 296.536L863.418 291.752V296.504C863.354 297.288 864.762 297.288 864.698 296.504V290.376ZM866.817 296.088C866.705 296.264 866.641 296.408 866.641 296.552C866.641 296.872 866.897 297.112 867.281 297.112C867.489 297.112 867.665 297 867.841 296.76L869.425 294.6H870.817V296.504C870.753 297.288 872.161 297.288 872.097 296.504V290.408C872.097 290.072 871.825 289.8 871.489 289.8H869.857C867.617 289.8 866.641 290.808 866.641 292.2C866.641 293.304 867.361 294.088 868.193 294.28L866.817 296.088ZM869.345 293.4C868.657 293.4 868.001 292.936 868.001 292.232C868.001 291.512 868.513 291 869.649 291H870.817V293.4H869.345Z" fill="#666666"/>
<circle cx="652.5" cy="336.5" r="25.5" fill="#FD9339"/>
<g filter="url(#filter1_d_6485_15664)">
<circle cx="652.5" cy="336.5" r="16.5" fill="#FF9E4D"/>
</g>
<path d="M652.976 337.15H655.838C656.594 337.15 656.594 335.89 655.838 335.89H652.976V333.082C652.976 332.74 652.706 332.452 652.292 332.452C651.878 332.452 651.626 332.74 651.626 333.082V335.89H648.818C648.062 335.89 648.062 337.15 648.818 337.15H651.626V339.994C651.626 340.336 651.914 340.642 652.292 340.642C652.706 340.642 652.976 340.336 652.976 339.994V337.15Z" fill="white"/>
<path d="M737 223.749V256.092" stroke="#FD9339" stroke-width="3" stroke-linecap="round" stroke-linejoin="round"/>
<path d="M744.5 229.629H733.25C731.858 229.629 730.522 230.171 729.538 231.136C728.553 232.101 728 233.41 728 234.775C728 236.139 728.553 237.448 729.538 238.413C730.522 239.378 731.858 239.92 733.25 239.92H740.75C742.142 239.92 743.478 240.462 744.462 241.427C745.447 242.392 746 243.701 746 245.066C746 246.431 745.447 247.739 744.462 248.704C743.478 249.669 742.142 250.211 740.75 250.211H728" stroke="#FD9339" stroke-width="3" stroke-linecap="round" stroke-linejoin="round"/>
<g filter="url(#filter2_d_6485_15664)">
<path fill-rule="evenodd" clip-rule="evenodd" d="M931 426C928.239 426 926 428.239 926 431V501.707C925.896 503.671 925.812 505.686 925.749 507.752C925.293 522.49 907.727 529.927 899 531.803C914.373 531.803 927.42 530.426 938.419 528H1199C1201.76 528 1204 525.761 1204 523V431C1204 428.239 1201.76 426 1199 426H931Z" fill="white"/>
<path d="M926 501.707H926.5V501.721L926.499 501.734L926 501.707ZM925.749 507.752L925.249 507.737L925.749 507.752ZM899 531.803V532.303L898.895 531.314L899 531.803ZM938.419 528L938.311 527.512L938.365 527.5H938.419V528ZM925.5 431C925.5 427.962 927.962 425.5 931 425.5V426.5C928.515 426.5 926.5 428.515 926.5 431H925.5ZM925.5 501.707V431H926.5V501.707H925.5ZM925.249 507.737C925.313 505.667 925.397 503.649 925.501 501.681L926.499 501.734C926.396 503.694 926.312 505.705 926.248 507.768L925.249 507.737ZM898.895 531.314C903.208 530.387 909.714 528.081 915.186 524.193C920.659 520.305 925.028 514.887 925.249 507.737L926.248 507.768C926.014 515.354 921.372 521.024 915.766 525.008C910.159 528.992 903.519 531.343 899.105 532.292L898.895 531.314ZM938.527 528.488C927.486 530.923 914.402 532.303 899 532.303V531.303C914.344 531.303 927.354 529.928 938.311 527.512L938.527 528.488ZM1199 528.5H938.419V527.5H1199V528.5ZM1204.5 523C1204.5 526.038 1202.04 528.5 1199 528.5V527.5C1201.49 527.5 1203.5 525.485 1203.5 523H1204.5ZM1204.5 431V523H1203.5V431H1204.5ZM1199 425.5C1202.04 425.5 1204.5 427.962 1204.5 431H1203.5C1203.5 428.515 1201.49 426.5 1199 426.5V425.5ZM931 425.5H1199V426.5H931V425.5Z" fill="#FF9E4C"/>
</g>
<path d="M1005.51 471.16C1007.14 471.16 1008.5 470.616 1009.59 469.512C1010.68 468.424 1011.22 467.048 1011.22 465.4C1011.22 463.72 1010.68 462.328 1009.61 461.256C1008.52 460.184 1007.16 459.64 1005.51 459.64C1003.86 459.64 1002.49 460.184 1001.42 461.288C1000.34 462.392 999.8 463.768 999.8 465.4C999.8 467.08 1000.34 468.472 1001.43 469.544C1002.5 470.616 1003.86 471.16 1005.51 471.16ZM1005.51 460.92C1006.71 460.92 1007.74 461.336 1008.55 462.184C1009.37 463.032 1009.78 464.104 1009.78 465.4C1009.78 466.68 1009.38 467.752 1008.6 468.6C1007.8 469.448 1006.78 469.88 1005.51 469.88C1004.31 469.88 1003.29 469.448 1002.47 468.584C1001.66 467.736 1001.24 466.664 1001.24 465.4C1001.24 464.104 1001.64 463.032 1002.46 462.184C1003.27 461.336 1004.28 460.92 1005.51 460.92ZM1020.18 467.464C1020.18 465.288 1018.88 463.88 1016.83 463.88C1015.62 463.88 1014.43 464.552 1013.97 465.56C1014.08 463.752 1014.67 462.584 1015.78 462.088C1016.16 461.912 1016.75 461.752 1017.54 461.608C1018.32 461.464 1018.9 461.224 1019.26 460.888C1019.41 460.76 1019.49 460.6 1019.49 460.408C1019.49 460.264 1019.44 460.136 1019.34 460.024C1019.23 459.88 1019.09 459.8 1018.91 459.8C1018.74 459.8 1018.53 459.88 1018.32 460.024C1018.08 460.168 1017.63 460.296 1016.99 460.408C1016.35 460.52 1015.81 460.664 1015.34 460.872C1013.57 461.624 1012.67 463.56 1012.67 466.68C1012.67 469.448 1014.13 471.16 1016.48 471.16C1017.55 471.16 1018.45 470.792 1019.14 470.072C1019.82 469.352 1020.18 468.488 1020.18 467.464ZM1014.03 466.92C1014.27 465.912 1015.23 465.08 1016.51 465.08C1017.97 465.08 1018.82 466.072 1018.82 467.528C1018.82 468.216 1018.59 468.792 1018.16 469.256C1017.71 469.72 1017.14 469.96 1016.45 469.96C1015.02 469.96 1014.03 468.76 1014.03 466.92ZM1022.84 466.76C1022.99 465.624 1023.85 464.84 1025.13 464.84C1026.36 464.84 1027.15 465.56 1027.21 466.76H1022.84ZM1028.54 466.936C1028.54 465.96 1028.22 465.176 1027.58 464.552C1026.94 463.944 1026.14 463.64 1025.2 463.64C1024.04 463.64 1023.13 463.992 1022.48 464.696C1021.82 465.416 1021.48 466.312 1021.48 467.4C1021.48 468.536 1021.84 469.448 1022.54 470.136C1023.24 470.824 1024.17 471.16 1025.34 471.16C1026.28 471.16 1027.13 470.888 1027.88 470.36C1028.01 470.28 1028.08 470.136 1028.08 469.928C1028.08 469.816 1028.04 469.72 1027.98 469.64C1027.85 469.496 1027.71 469.432 1027.55 469.432C1027.44 469.432 1027.31 469.464 1027.2 469.528C1026.7 469.816 1026.11 469.96 1025.44 469.96C1024.01 469.96 1023.04 469.144 1022.92 467.8H1027.98C1028.24 467.8 1028.51 467.544 1028.52 467.288C1028.54 467.208 1028.54 467.096 1028.54 466.936ZM1035.21 465.256C1035.29 465.304 1035.4 465.32 1035.51 465.32C1035.75 465.32 1035.93 465.224 1036.04 465.032C1036.09 464.952 1036.12 464.856 1036.12 464.744C1036.12 464.504 1036.01 464.312 1035.78 464.2C1035.13 463.832 1034.34 463.64 1033.45 463.64C1032.41 463.64 1031.53 464.008 1030.84 464.728C1030.15 465.448 1029.8 466.344 1029.8 467.4C1029.8 468.536 1030.15 469.432 1030.87 470.12C1031.57 470.808 1032.5 471.16 1033.65 471.16C1034.63 471.16 1035.46 470.856 1036.15 470.232C1036.26 470.136 1036.33 469.992 1036.33 469.816C1036.33 469.656 1036.26 469.528 1036.15 469.416C1036.04 469.304 1035.93 469.256 1035.78 469.256C1035.62 469.256 1035.46 469.32 1035.29 469.464C1034.85 469.8 1034.34 469.96 1033.75 469.96C1033.01 469.96 1032.41 469.72 1031.91 469.256C1031.41 468.792 1031.16 468.168 1031.16 467.4C1031.16 466.664 1031.4 466.056 1031.89 465.56C1032.37 465.08 1032.95 464.84 1033.62 464.84C1034.15 464.84 1034.68 464.984 1035.21 465.256ZM1044.38 464.408C1044.38 464.072 1044.11 463.8 1043.77 463.8H1038.51C1038.17 463.8 1037.9 464.072 1037.9 464.408V470.504C1037.84 471.288 1039.25 471.288 1039.18 470.504V465H1043.1V470.504C1043.04 471.288 1044.45 471.288 1044.38 470.504V464.408ZM1047.56 466.76C1047.71 465.624 1048.57 464.84 1049.85 464.84C1051.08 464.84 1051.87 465.56 1051.93 466.76H1047.56ZM1053.26 466.936C1053.26 465.96 1052.94 465.176 1052.3 464.552C1051.66 463.944 1050.86 463.64 1049.92 463.64C1048.76 463.64 1047.85 463.992 1047.2 464.696C1046.54 465.416 1046.2 466.312 1046.2 467.4C1046.2 468.536 1046.56 469.448 1047.26 470.136C1047.96 470.824 1048.89 471.16 1050.06 471.16C1051 471.16 1051.85 470.888 1052.6 470.36C1052.73 470.28 1052.8 470.136 1052.8 469.928C1052.8 469.816 1052.76 469.72 1052.7 469.64C1052.57 469.496 1052.43 469.432 1052.27 469.432C1052.16 469.432 1052.03 469.464 1051.92 469.528C1051.42 469.816 1050.83 469.96 1050.16 469.96C1048.73 469.96 1047.76 469.144 1047.64 467.8H1052.7C1052.96 467.8 1053.23 467.544 1053.24 467.288C1053.26 467.208 1053.26 467.096 1053.26 466.936ZM1059.22 467.08C1058.79 467.384 1058.24 467.528 1057.57 467.528C1056.53 467.528 1056.02 466.968 1056.02 465.832V464.328C1056.02 463.992 1055.73 463.72 1055.35 463.72C1054.95 463.72 1054.66 463.992 1054.66 464.328V465.976C1054.66 467.816 1055.51 468.728 1057.22 468.728C1058 468.728 1058.66 468.552 1059.22 468.2V470.504C1059.15 471.288 1060.56 471.288 1060.5 470.504V464.328C1060.56 463.544 1059.15 463.544 1059.22 464.328V467.08ZM1069.53 464.376C1069.53 464.04 1069.26 463.72 1068.89 463.72C1068.62 463.72 1068.31 463.912 1067.98 464.312L1064.09 469.096V464.328C1064.15 463.544 1062.74 463.544 1062.81 464.328V470.472C1062.81 470.808 1063.08 471.112 1063.45 471.112C1063.74 471.112 1064.04 470.92 1064.36 470.536L1068.25 465.752V470.504C1068.18 471.288 1069.59 471.288 1069.53 470.504V464.376ZM1077.55 465.592C1077.55 464.36 1076.51 463.736 1074.45 463.736C1074.27 463.736 1073.6 463.752 1072.45 463.784C1072.11 463.8 1071.84 464.088 1071.84 464.424V470.376C1071.84 470.712 1072.11 471 1072.45 471.016C1073.7 471.048 1074.37 471.064 1074.48 471.064C1076.69 471.064 1077.79 470.36 1077.79 468.968C1077.79 468.04 1077.23 467.464 1076.11 467.256C1076.96 467.112 1077.55 466.44 1077.55 465.592ZM1074.66 467.768C1075.84 467.768 1076.43 468.136 1076.43 468.872C1076.43 469.64 1075.82 470.024 1074.59 470.024C1074.38 470.024 1073.89 470.008 1073.12 469.976V467.768H1074.66ZM1073.12 464.824C1073.76 464.792 1074.24 464.776 1074.54 464.776C1075.65 464.776 1076.19 465.128 1076.19 465.848C1076.19 466.536 1075.62 466.968 1074.74 466.968H1073.12V464.824ZM1079.23 468.888C1079.23 470.248 1080.11 471.112 1081.44 471.112C1082.42 471.112 1083.19 470.76 1083.75 470.072V470.552C1083.75 470.856 1084.02 471.112 1084.35 471.112C1084.69 471.112 1084.96 470.856 1084.96 470.552V466.584C1084.96 464.616 1084.18 463.64 1082.19 463.64C1081.57 463.64 1080.9 463.784 1080.21 464.072C1080 464.152 1079.89 464.328 1079.89 464.584C1079.89 464.664 1079.91 464.728 1079.94 464.808C1080.03 465.016 1080.19 465.128 1080.43 465.128C1080.51 465.128 1080.59 465.112 1080.67 465.08C1081.17 464.888 1081.65 464.792 1082.11 464.792C1083.44 464.792 1083.75 465.528 1083.75 467.064C1083.31 466.76 1082.72 466.6 1081.95 466.6C1080.35 466.6 1079.23 467.464 1079.23 468.888ZM1083.75 469.032C1083.22 469.656 1082.61 469.96 1081.89 469.96C1081.07 469.96 1080.59 469.528 1080.59 468.824C1080.59 468.056 1081.28 467.64 1082.13 467.64C1082.75 467.64 1083.3 467.8 1083.75 468.12V469.032ZM1087.99 466.76C1088.13 465.624 1088.99 464.84 1090.27 464.84C1091.51 464.84 1092.29 465.56 1092.35 466.76H1087.99ZM1093.68 466.936C1093.68 465.96 1093.36 465.176 1092.72 464.552C1092.08 463.944 1091.28 463.64 1090.34 463.64C1089.19 463.64 1088.27 463.992 1087.62 464.696C1086.96 465.416 1086.63 466.312 1086.63 467.4C1086.63 468.536 1086.98 469.448 1087.68 470.136C1088.39 470.824 1089.31 471.16 1090.48 471.16C1091.43 471.16 1092.27 470.888 1093.03 470.36C1093.15 470.28 1093.22 470.136 1093.22 469.928C1093.22 469.816 1093.19 469.72 1093.12 469.64C1092.99 469.496 1092.85 469.432 1092.69 469.432C1092.58 469.432 1092.45 469.464 1092.34 469.528C1091.84 469.816 1091.25 469.96 1090.58 469.96C1089.15 469.96 1088.18 469.144 1088.07 467.8H1093.12C1093.38 467.8 1093.65 467.544 1093.67 467.288C1093.68 467.208 1093.68 467.096 1093.68 466.936ZM1098.9 468.456C1099.16 468.776 1099.64 468.776 1099.9 468.44L1101.93 465.864V470.504C1101.86 471.288 1103.27 471.288 1103.21 470.504V464.328C1103.21 463.992 1102.92 463.72 1102.58 463.72C1102.33 463.72 1102.06 463.912 1101.77 464.312L1099.45 467.368L1097.02 464.344C1096.65 463.88 1096.46 463.72 1096.14 463.72C1095.8 463.72 1095.51 463.992 1095.51 464.328V470.504C1095.45 471.288 1096.86 471.288 1096.79 470.504V465.864L1098.9 468.456ZM1005.86 486.592C1005.86 485.36 1004.82 484.736 1002.76 484.736C1002.58 484.736 1001.91 484.752 1000.76 484.784C1000.42 484.8 1000.15 485.088 1000.15 485.424V491.376C1000.15 491.712 1000.42 492 1000.76 492.016C1002.01 492.048 1002.68 492.064 1002.79 492.064C1005 492.064 1006.1 491.36 1006.1 489.968C1006.1 489.04 1005.54 488.464 1004.42 488.256C1005.27 488.112 1005.86 487.44 1005.86 486.592ZM1002.97 488.768C1004.15 488.768 1004.74 489.136 1004.74 489.872C1004.74 490.64 1004.14 491.024 1002.9 491.024C1002.7 491.024 1002.2 491.008 1001.43 490.976V488.768H1002.97ZM1001.43 485.824C1002.07 485.792 1002.55 485.776 1002.86 485.776C1003.96 485.776 1004.5 486.128 1004.5 486.848C1004.5 487.536 1003.93 487.968 1003.05 487.968H1001.43V485.824ZM1009.34 485.328C1009.4 484.544 1007.99 484.544 1008.06 485.328V491.392C1008.06 491.728 1008.33 492 1008.67 492H1010.38C1012.47 492 1013.37 490.896 1013.37 489.44C1013.37 487.984 1012.57 486.96 1010.52 486.96H1009.34V485.328ZM1016.03 485.328C1016.09 484.544 1014.68 484.544 1014.75 485.328V491.504C1014.68 492.288 1016.09 492.288 1016.03 491.504V485.328ZM1009.34 488.16H1010.28C1011.43 488.16 1012.01 488.608 1012.01 489.488C1012.01 490.368 1011.5 490.8 1010.27 490.8H1009.34V488.16ZM1023.25 486.256C1023.33 486.304 1023.44 486.32 1023.56 486.32C1023.8 486.32 1023.97 486.224 1024.08 486.032C1024.13 485.952 1024.16 485.856 1024.16 485.744C1024.16 485.504 1024.05 485.312 1023.83 485.2C1023.17 484.832 1022.39 484.64 1021.49 484.64C1020.45 484.64 1019.57 485.008 1018.88 485.728C1018.2 486.448 1017.84 487.344 1017.84 488.4C1017.84 489.536 1018.2 490.432 1018.92 491.12C1019.62 491.808 1020.55 492.16 1021.7 492.16C1022.68 492.16 1023.51 491.856 1024.2 491.232C1024.31 491.136 1024.37 490.992 1024.37 490.816C1024.37 490.656 1024.31 490.528 1024.2 490.416C1024.08 490.304 1023.97 490.256 1023.83 490.256C1023.67 490.256 1023.51 490.32 1023.33 490.464C1022.9 490.8 1022.39 490.96 1021.8 490.96C1021.06 490.96 1020.45 490.72 1019.96 490.256C1019.46 489.792 1019.2 489.168 1019.2 488.4C1019.2 487.664 1019.44 487.056 1019.94 486.56C1020.42 486.08 1021 485.84 1021.67 485.84C1022.2 485.84 1022.72 485.984 1023.25 486.256ZM1026.15 491.088C1026.85 491.808 1027.78 492.16 1028.92 492.16C1030.05 492.16 1030.98 491.808 1031.7 491.088C1032.41 490.384 1032.76 489.488 1032.76 488.4C1032.76 487.312 1032.41 486.416 1031.7 485.696C1030.98 484.992 1030.05 484.64 1028.92 484.64C1027.78 484.64 1026.85 484.992 1026.15 485.696C1025.43 486.416 1025.08 487.312 1025.08 488.4C1025.08 489.488 1025.43 490.384 1026.15 491.088ZM1026.44 488.4C1026.44 486.88 1027.49 485.84 1028.92 485.84C1030.37 485.84 1031.4 486.912 1031.4 488.4C1031.4 489.92 1030.37 490.96 1028.92 490.96C1027.46 490.96 1026.44 489.888 1026.44 488.4ZM1039.23 491.792C1039.41 492 1039.61 492.112 1039.85 492.112C1040.25 492.112 1040.49 491.824 1040.49 491.504C1040.49 491.328 1040.43 491.168 1040.3 491.024L1037.74 488.24L1040.06 485.712C1040.27 485.504 1040.29 485.136 1040.06 484.896C1039.84 484.656 1039.37 484.608 1038.99 485.056L1036.57 487.856C1036.37 488.096 1036.37 488.512 1036.57 488.784L1039.23 491.792ZM1035.87 485.328C1035.93 484.544 1034.53 484.544 1034.59 485.328V491.504C1034.53 492.288 1035.93 492.288 1035.87 491.504V485.328ZM1049.03 485.376C1049.03 485.04 1048.76 484.72 1048.39 484.72C1048.12 484.72 1047.81 484.912 1047.48 485.312L1043.59 490.096V485.328C1043.65 484.544 1042.24 484.544 1042.31 485.328V491.472C1042.31 491.808 1042.58 492.112 1042.95 492.112C1043.24 492.112 1043.54 491.92 1043.86 491.536L1047.75 486.752V491.504C1047.68 492.288 1049.09 492.288 1049.03 491.504V485.376ZM1058.06 485.376C1058.06 485.04 1057.79 484.72 1057.42 484.72C1057.15 484.72 1056.84 484.912 1056.51 485.312L1052.62 490.096V485.328C1052.68 484.544 1051.28 484.544 1051.34 485.328V491.472C1051.34 491.808 1051.61 492.112 1051.98 492.112C1052.27 492.112 1052.57 491.92 1052.89 491.536L1056.78 486.752V491.504C1056.72 492.288 1058.12 492.288 1058.06 491.504V485.376ZM1055.87 481.632C1055.71 482.128 1055.36 482.384 1054.8 482.384C1054.2 482.384 1053.82 482.128 1053.66 481.632C1053.55 481.296 1053.34 481.12 1053.04 481.12C1052.67 481.12 1052.44 481.328 1052.44 481.696C1052.44 481.776 1052.44 481.84 1052.46 481.888C1052.64 482.704 1053.52 483.36 1054.8 483.36C1055.96 483.36 1056.86 482.704 1057.05 481.888C1057.07 481.776 1057.08 481.712 1057.08 481.68C1057.08 481.344 1056.83 481.12 1056.49 481.12C1056.19 481.12 1055.98 481.296 1055.87 481.632ZM1064.51 485.12C1064.38 484.848 1064.17 484.72 1063.9 484.72C1063.47 484.72 1063.2 485.024 1063.2 485.392C1063.2 485.504 1063.21 485.616 1063.26 485.696L1066.28 492L1066.12 492.384C1065.63 493.536 1065.18 494.016 1064.59 494.016C1064.4 494.016 1064.08 493.936 1063.96 493.936C1063.63 493.936 1063.45 494.112 1063.45 494.448C1063.45 494.944 1063.88 495.2 1064.73 495.2C1065.26 495.2 1065.74 494.976 1066.14 494.544C1066.54 494.096 1066.99 493.248 1067.48 492L1070.03 485.648C1070.08 485.52 1070.09 485.424 1070.09 485.344C1070.09 484.976 1069.84 484.72 1069.39 484.72C1069.08 484.72 1068.88 484.88 1068.76 485.216L1067.24 489.36C1067.12 489.744 1067 490.112 1066.91 490.464C1066.64 489.792 1066.49 489.424 1066.48 489.376L1064.51 485.12ZM1072.9 491.664C1073.4 492 1074.08 492.16 1074.93 492.16C1076.04 492.16 1076.95 491.792 1077.64 491.056C1078.32 490.32 1078.68 489.392 1078.68 488.288C1078.68 487.216 1078.37 486.336 1077.78 485.648C1077.17 484.976 1076.36 484.64 1075.35 484.64C1074.37 484.64 1073.41 485.056 1072.9 485.648V485.328C1072.96 484.544 1071.56 484.544 1071.62 485.328V494.592C1071.56 495.376 1072.96 495.376 1072.9 494.592V491.664ZM1072.9 486.832C1073.43 486.176 1074.13 485.84 1074.98 485.84C1076.44 485.84 1077.32 486.848 1077.32 488.336C1077.32 489.872 1076.34 490.96 1074.82 490.96C1074.1 490.96 1073.46 490.768 1072.9 490.4V486.832ZM1081.1 491.088C1081.81 491.808 1082.74 492.16 1083.87 492.16C1085.01 492.16 1085.94 491.808 1086.66 491.088C1087.36 490.384 1087.71 489.488 1087.71 488.4C1087.71 487.312 1087.36 486.416 1086.66 485.696C1085.94 484.992 1085.01 484.64 1083.87 484.64C1082.74 484.64 1081.81 484.992 1081.1 485.696C1080.38 486.416 1080.03 487.312 1080.03 488.4C1080.03 489.488 1080.38 490.384 1081.1 491.088ZM1081.39 488.4C1081.39 486.88 1082.45 485.84 1083.87 485.84C1085.33 485.84 1086.35 486.912 1086.35 488.4C1086.35 489.92 1085.33 490.96 1083.87 490.96C1082.42 490.96 1081.39 489.888 1081.39 488.4ZM1095.25 486.592C1095.25 485.36 1094.21 484.736 1092.15 484.736C1091.97 484.736 1091.3 484.752 1090.15 484.784C1089.81 484.8 1089.54 485.088 1089.54 485.424V491.376C1089.54 491.712 1089.81 492 1090.15 492.016C1091.4 492.048 1092.07 492.064 1092.18 492.064C1094.39 492.064 1095.49 491.36 1095.49 489.968C1095.49 489.04 1094.93 488.464 1093.81 488.256C1094.66 488.112 1095.25 487.44 1095.25 486.592ZM1092.36 488.768C1093.54 488.768 1094.13 489.136 1094.13 489.872C1094.13 490.64 1093.53 491.024 1092.29 491.024C1092.09 491.024 1091.59 491.008 1090.82 490.976V488.768H1092.36ZM1090.82 485.824C1091.46 485.792 1091.94 485.776 1092.25 485.776C1093.35 485.776 1093.89 486.128 1093.89 486.848C1093.89 487.536 1093.32 487.968 1092.44 487.968H1090.82V485.824ZM1098.33 487.76C1098.47 486.624 1099.34 485.84 1100.62 485.84C1101.85 485.84 1102.63 486.56 1102.7 487.76H1098.33ZM1104.02 487.936C1104.02 486.96 1103.7 486.176 1103.06 485.552C1102.42 484.944 1101.62 484.64 1100.68 484.64C1099.53 484.64 1098.62 484.992 1097.96 485.696C1097.3 486.416 1096.97 487.312 1096.97 488.4C1096.97 489.536 1097.32 490.448 1098.02 491.136C1098.73 491.824 1099.66 492.16 1100.82 492.16C1101.77 492.16 1102.62 491.888 1103.37 491.36C1103.5 491.28 1103.56 491.136 1103.56 490.928C1103.56 490.816 1103.53 490.72 1103.46 490.64C1103.34 490.496 1103.19 490.432 1103.03 490.432C1102.92 490.432 1102.79 490.464 1102.68 490.528C1102.18 490.816 1101.59 490.96 1100.92 490.96C1099.5 490.96 1098.52 490.144 1098.41 488.8H1103.46C1103.72 488.8 1103.99 488.544 1104.01 488.288C1104.02 488.208 1104.02 488.096 1104.02 487.936ZM1112.42 485.328C1112.48 484.544 1111.07 484.544 1111.14 485.328V487.76H1107.14V485.328C1107.2 484.544 1105.79 484.544 1105.86 485.328V491.504C1105.79 492.288 1107.2 492.288 1107.14 491.504V488.96H1111.14V491.504C1111.07 492.288 1112.48 492.288 1112.42 491.504V485.328ZM1115.99 485.328C1116.06 484.544 1114.65 484.544 1114.71 485.328V491.392C1114.71 491.728 1114.99 492 1115.32 492H1117.15C1119.24 492 1120.15 490.896 1120.15 489.44C1120.15 487.984 1119.35 486.96 1117.31 486.96H1115.99V485.328ZM1115.99 488.16H1117.07C1118.22 488.16 1118.79 488.608 1118.79 489.488C1118.79 490.368 1118.22 490.8 1117.05 490.8H1115.99V488.16ZM1130.39 486.256C1130.47 486.304 1130.58 486.32 1130.7 486.32C1130.94 486.32 1131.11 486.224 1131.22 486.032C1131.27 485.952 1131.3 485.856 1131.3 485.744C1131.3 485.504 1131.19 485.312 1130.97 485.2C1130.31 484.832 1129.53 484.64 1128.63 484.64C1127.59 484.64 1126.71 485.008 1126.02 485.728C1125.34 486.448 1124.98 487.344 1124.98 488.4C1124.98 489.536 1125.34 490.432 1126.06 491.12C1126.76 491.808 1127.69 492.16 1128.84 492.16C1129.82 492.16 1130.65 491.856 1131.34 491.232C1131.45 491.136 1131.51 490.992 1131.51 490.816C1131.51 490.656 1131.45 490.528 1131.34 490.416C1131.22 490.304 1131.11 490.256 1130.97 490.256C1130.81 490.256 1130.65 490.32 1130.47 490.464C1130.04 490.8 1129.53 490.96 1128.94 490.96C1128.2 490.96 1127.59 490.72 1127.1 490.256C1126.6 489.792 1126.34 489.168 1126.34 488.4C1126.34 487.664 1126.58 487.056 1127.08 486.56C1127.56 486.08 1128.14 485.84 1128.81 485.84C1129.34 485.84 1129.86 485.984 1130.39 486.256ZM1133.58 487.76C1133.72 486.624 1134.59 485.84 1135.87 485.84C1137.1 485.84 1137.88 486.56 1137.95 487.76H1133.58ZM1139.27 487.936C1139.27 486.96 1138.95 486.176 1138.31 485.552C1137.67 484.944 1136.87 484.64 1135.93 484.64C1134.78 484.64 1133.87 484.992 1133.21 485.696C1132.55 486.416 1132.22 487.312 1132.22 488.4C1132.22 489.536 1132.57 490.448 1133.27 491.136C1133.98 491.824 1134.91 492.16 1136.07 492.16C1137.02 492.16 1137.87 491.888 1138.62 491.36C1138.75 491.28 1138.81 491.136 1138.81 490.928C1138.81 490.816 1138.78 490.72 1138.71 490.64C1138.59 490.496 1138.44 490.432 1138.28 490.432C1138.17 490.432 1138.04 490.464 1137.93 490.528C1137.43 490.816 1136.84 490.96 1136.17 490.96C1134.75 490.96 1133.77 490.144 1133.66 488.8H1138.71C1138.97 488.8 1139.24 488.544 1139.26 488.288C1139.27 488.208 1139.27 488.096 1139.27 487.936ZM1142.39 491.664C1142.88 492 1143.57 492.16 1144.42 492.16C1145.52 492.16 1146.43 491.792 1147.12 491.056C1147.81 490.32 1148.16 489.392 1148.16 488.288C1148.16 487.216 1147.86 486.336 1147.27 485.648C1146.66 484.976 1145.84 484.64 1144.83 484.64C1143.86 484.64 1142.9 485.056 1142.39 485.648V485.328C1142.45 484.544 1141.04 484.544 1141.11 485.328V494.592C1141.04 495.376 1142.45 495.376 1142.39 494.592V491.664ZM1142.39 486.832C1142.91 486.176 1143.62 485.84 1144.47 485.84C1145.92 485.84 1146.8 486.848 1146.8 488.336C1146.8 489.872 1145.83 490.96 1144.31 490.96C1143.59 490.96 1142.95 490.768 1142.39 490.4V486.832ZM1155.71 486.592C1155.71 485.36 1154.67 484.736 1152.6 484.736C1152.43 484.736 1151.76 484.752 1150.6 484.784C1150.27 484.8 1150 485.088 1150 485.424V491.376C1150 491.712 1150.27 492 1150.6 492.016C1151.85 492.048 1152.52 492.064 1152.64 492.064C1154.84 492.064 1155.95 491.36 1155.95 489.968C1155.95 489.04 1155.39 488.464 1154.27 488.256C1155.12 488.112 1155.71 487.44 1155.71 486.592ZM1152.81 488.768C1154 488.768 1154.59 489.136 1154.59 489.872C1154.59 490.64 1153.98 491.024 1152.75 491.024C1152.54 491.024 1152.04 491.008 1151.28 490.976V488.768H1152.81ZM1151.28 485.824C1151.92 485.792 1152.4 485.776 1152.7 485.776C1153.8 485.776 1154.35 486.128 1154.35 486.848C1154.35 487.536 1153.77 487.968 1152.89 487.968H1151.28V485.824ZM1164.62 485.376C1164.62 485.04 1164.35 484.72 1163.98 484.72C1163.71 484.72 1163.41 484.912 1163.07 485.312L1159.18 490.096V485.328C1159.25 484.544 1157.84 484.544 1157.9 485.328V491.472C1157.9 491.808 1158.17 492.112 1158.54 492.112C1158.83 492.112 1159.13 491.92 1159.45 491.536L1163.34 486.752V491.504C1163.28 492.288 1164.69 492.288 1164.62 491.504V485.376ZM1171.86 486.256C1171.94 486.304 1172.05 486.32 1172.17 486.32C1172.41 486.32 1172.58 486.224 1172.69 486.032C1172.74 485.952 1172.77 485.856 1172.77 485.744C1172.77 485.504 1172.66 485.312 1172.44 485.2C1171.78 484.832 1171 484.64 1170.1 484.64C1169.06 484.64 1168.18 485.008 1167.49 485.728C1166.81 486.448 1166.45 487.344 1166.45 488.4C1166.45 489.536 1166.81 490.432 1167.53 491.12C1168.23 491.808 1169.16 492.16 1170.31 492.16C1171.29 492.16 1172.12 491.856 1172.81 491.232C1172.92 491.136 1172.98 490.992 1172.98 490.816C1172.98 490.656 1172.92 490.528 1172.81 490.416C1172.69 490.304 1172.58 490.256 1172.44 490.256C1172.28 490.256 1172.12 490.32 1171.94 490.464C1171.51 490.8 1171 490.96 1170.41 490.96C1169.67 490.96 1169.06 490.72 1168.57 490.256C1168.07 489.792 1167.81 489.168 1167.81 488.4C1167.81 487.664 1168.05 487.056 1168.55 486.56C1169.03 486.08 1169.61 485.84 1170.28 485.84C1170.81 485.84 1171.33 485.984 1171.86 486.256ZM1174.05 489.888C1174.05 491.248 1174.93 492.112 1176.25 492.112C1177.23 492.112 1178 491.76 1178.56 491.072V491.552C1178.56 491.856 1178.83 492.112 1179.17 492.112C1179.5 492.112 1179.77 491.856 1179.77 491.552V487.584C1179.77 485.616 1178.99 484.64 1177.01 484.64C1176.38 484.64 1175.71 484.784 1175.02 485.072C1174.81 485.152 1174.7 485.328 1174.7 485.584C1174.7 485.664 1174.72 485.728 1174.75 485.808C1174.85 486.016 1175.01 486.128 1175.25 486.128C1175.33 486.128 1175.41 486.112 1175.49 486.08C1175.98 485.888 1176.46 485.792 1176.93 485.792C1178.25 485.792 1178.56 486.528 1178.56 488.064C1178.13 487.76 1177.53 487.6 1176.77 487.6C1175.17 487.6 1174.05 488.464 1174.05 489.888ZM1178.56 490.032C1178.03 490.656 1177.42 490.96 1176.7 490.96C1175.89 490.96 1175.41 490.528 1175.41 489.824C1175.41 489.056 1176.09 488.64 1176.94 488.64C1177.57 488.64 1178.11 488.8 1178.56 489.12V490.032Z" fill="#666666"/>
<circle cx="882.5" cy="531.5" r="25.5" fill="#FD9339"/>
<g filter="url(#filter3_d_6485_15664)">
<circle cx="882.5" cy="531.5" r="16.5" fill="#FF9E4D"/>
</g>
<path d="M882.976 532.15H885.838C886.594 532.15 886.594 530.89 885.838 530.89H882.976V528.082C882.976 527.74 882.706 527.452 882.292 527.452C881.878 527.452 881.626 527.74 881.626 528.082V530.89H878.818C878.062 530.89 878.062 532.15 878.818 532.15H881.626V534.994C881.626 535.336 881.914 535.642 882.292 535.642C882.706 535.642 882.976 535.336 882.976 534.994V532.15Z" fill="white"/>
<path d="M956.302 446.439H951.321C950.44 446.439 949.595 446.096 948.973 445.486C948.35 444.875 948 444.048 948 443.184V431.792C948 430.929 948.35 430.101 948.973 429.491C949.595 428.88 950.44 428.537 951.321 428.537H956.302M967.926 425.282V418.773C967.926 417.478 967.401 416.236 966.467 415.32C965.533 414.405 964.265 413.89 962.944 413.89L956.302 428.537V446.439H975.033C975.833 446.448 976.611 446.173 977.221 445.665C977.831 445.156 978.233 444.449 978.354 443.673L980.645 429.025C980.717 428.559 980.685 428.083 980.551 427.63C980.417 427.176 980.184 426.757 979.868 426.401C979.552 426.045 979.161 425.761 978.721 425.567C978.282 425.374 977.805 425.277 977.324 425.282H967.926Z" stroke="#FD9339" stroke-width="3" stroke-linecap="round" stroke-linejoin="round"/>
<g filter="url(#filter4_d_6485_15664)">
<path fill-rule="evenodd" clip-rule="evenodd" d="M845 10C842.239 10 840 12.2386 840 15V85.7074C839.896 87.6714 839.812 89.686 839.749 91.7522C839.293 106.49 821.727 113.927 813 115.803C828.373 115.803 841.42 114.426 852.419 112H1099C1101.76 112 1104 109.761 1104 107V15C1104 12.2386 1101.76 10 1099 10H845Z" fill="white"/>
<path d="M840 85.7074H840.5V85.7206L840.499 85.7338L840 85.7074ZM839.749 91.7522L839.249 91.7368L839.749 91.7522ZM813 115.803V116.303L812.895 115.314L813 115.803ZM852.419 112L852.311 111.512L852.364 111.5H852.419V112ZM839.5 15C839.5 11.9624 841.962 9.5 845 9.5V10.5C842.515 10.5 840.5 12.5147 840.5 15H839.5ZM839.5 85.7074V15H840.5V85.7074H839.5ZM839.249 91.7368C839.313 89.667 839.397 87.6488 839.501 85.6811L840.499 85.7338C840.396 87.6939 840.312 89.7049 840.248 91.7676L839.249 91.7368ZM812.895 115.314C817.208 114.387 823.714 112.081 829.186 108.193C834.659 104.305 839.028 98.8874 839.249 91.7368L840.248 91.7676C840.014 99.3544 835.372 105.024 829.766 109.008C824.159 112.992 817.519 115.343 813.105 116.292L812.895 115.314ZM852.527 112.488C841.486 114.923 828.402 116.303 813 116.303V115.303C828.344 115.303 841.354 113.928 852.311 111.512L852.527 112.488ZM1099 112.5H852.419V111.5H1099V112.5ZM1104.5 107C1104.5 110.038 1102.04 112.5 1099 112.5V111.5C1101.49 111.5 1103.5 109.485 1103.5 107H1104.5ZM1104.5 15V107H1103.5V15H1104.5ZM1099 9.5C1102.04 9.5 1104.5 11.9624 1104.5 15H1103.5C1103.5 12.5147 1101.49 10.5 1099 10.5V9.5ZM845 9.5H1099V10.5H845V9.5Z" fill="#FF9E4C"/>
</g>
<path d="M917.241 43.8C916.873 43.8 916.569 44.104 916.569 44.472V54.44C916.569 54.808 916.873 55.112 917.257 55.112C917.625 55.112 917.929 54.808 917.929 54.44V45.08H924.009V54.44C924.009 54.808 924.313 55.112 924.697 55.112C925.065 55.112 925.369 54.808 925.369 54.44V44.472C925.369 44.104 925.065 43.8 924.697 43.8H917.241ZM929.477 54.664C929.973 55 930.661 55.16 931.509 55.16C932.613 55.16 933.525 54.792 934.213 54.056C934.901 53.32 935.253 52.392 935.253 51.288C935.253 50.216 934.949 49.336 934.357 48.648C933.749 47.976 932.933 47.64 931.925 47.64C930.949 47.64 929.989 48.056 929.477 48.648V48.328C929.541 47.544 928.133 47.544 928.197 48.328V57.592C928.133 58.376 929.541 58.376 929.477 57.592V54.664ZM929.477 49.832C930.005 49.176 930.709 48.84 931.557 48.84C933.013 48.84 933.893 49.848 933.893 51.336C933.893 52.872 932.917 53.96 931.397 53.96C930.677 53.96 930.037 53.768 929.477 53.4V49.832ZM943.808 48.376C943.808 48.04 943.536 47.72 943.168 47.72C942.896 47.72 942.592 47.912 942.256 48.312L938.368 53.096V48.328C938.432 47.544 937.024 47.544 937.088 48.328V54.472C937.088 54.808 937.36 55.112 937.728 55.112C938.016 55.112 938.32 54.92 938.64 54.536L942.528 49.752V54.504C942.464 55.288 943.872 55.288 943.808 54.504V48.376ZM946.999 50.76C947.143 49.624 948.007 48.84 949.287 48.84C950.519 48.84 951.303 49.56 951.367 50.76H946.999ZM952.695 50.936C952.695 49.96 952.375 49.176 951.735 48.552C951.095 47.944 950.295 47.64 949.351 47.64C948.199 47.64 947.287 47.992 946.631 48.696C945.975 49.416 945.639 50.312 945.639 51.4C945.639 52.536 945.991 53.448 946.695 54.136C947.399 54.824 948.327 55.16 949.495 55.16C950.439 55.16 951.287 54.888 952.039 54.36C952.167 54.28 952.231 54.136 952.231 53.928C952.231 53.816 952.199 53.72 952.135 53.64C952.007 53.496 951.863 53.432 951.703 53.432C951.591 53.432 951.463 53.464 951.351 53.528C950.855 53.816 950.263 53.96 949.591 53.96C948.167 53.96 947.191 53.144 947.079 51.8H952.135C952.391 51.8 952.663 51.544 952.679 51.288C952.695 51.208 952.695 51.096 952.695 50.936ZM957.917 52.456C958.173 52.776 958.653 52.776 958.909 52.44L960.941 49.864V54.504C960.877 55.288 962.285 55.288 962.221 54.504V48.328C962.221 47.992 961.933 47.72 961.597 47.72C961.341 47.72 961.069 47.912 960.781 48.312L958.461 51.368L956.029 48.344C955.661 47.88 955.469 47.72 955.149 47.72C954.813 47.72 954.525 47.992 954.525 48.328V54.504C954.461 55.288 955.869 55.288 955.805 54.504V49.864L957.917 52.456ZM918.313 68.64C917.385 68.64 916.601 68.832 915.961 69.2C915.737 69.344 915.625 69.504 915.625 69.712C915.625 69.808 915.641 69.888 915.689 69.968C915.801 70.144 915.961 70.24 916.169 70.24C916.281 70.24 916.393 70.224 916.473 70.176C917.017 69.92 917.561 69.792 918.121 69.792C919.065 69.792 919.657 70.192 919.657 70.832C919.657 71.408 919.129 71.856 918.409 71.856H917.817C917.513 71.856 917.273 72.096 917.273 72.368C917.273 72.672 917.513 72.896 917.817 72.896H918.489C919.369 72.896 919.897 73.232 919.897 73.824C919.897 74.528 919.113 75.008 918.009 75.008C917.497 75.008 916.953 74.848 916.377 74.512C916.265 74.448 916.153 74.416 916.041 74.416C915.833 74.416 915.673 74.496 915.561 74.672C915.481 74.8 915.449 74.912 915.449 75.008C915.449 75.216 915.545 75.376 915.721 75.504C916.377 75.936 917.193 76.16 918.201 76.16C920.009 76.16 921.257 75.328 921.257 74C921.257 73.12 920.713 72.416 919.753 72.288C920.601 71.984 921.017 71.408 921.017 70.576C921.017 69.376 920.041 68.64 918.313 68.64ZM922.701 73.888C922.701 75.248 923.581 76.112 924.909 76.112C925.885 76.112 926.653 75.76 927.213 75.072V75.552C927.213 75.856 927.485 76.112 927.821 76.112C928.157 76.112 928.429 75.856 928.429 75.552V71.584C928.429 69.616 927.645 68.64 925.661 68.64C925.037 68.64 924.365 68.784 923.677 69.072C923.469 69.152 923.357 69.328 923.357 69.584C923.357 69.664 923.373 69.728 923.405 69.808C923.501 70.016 923.661 70.128 923.901 70.128C923.981 70.128 924.061 70.112 924.141 70.08C924.637 69.888 925.117 69.792 925.581 69.792C926.909 69.792 927.213 70.528 927.213 72.064C926.781 71.76 926.189 71.6 925.421 71.6C923.821 71.6 922.701 72.464 922.701 73.888ZM927.213 74.032C926.685 74.656 926.077 74.96 925.357 74.96C924.541 74.96 924.061 74.528 924.061 73.824C924.061 73.056 924.749 72.64 925.597 72.64C926.221 72.64 926.765 72.8 927.213 73.12V74.032ZM935.212 75.792C935.388 76 935.596 76.112 935.836 76.112C936.236 76.112 936.476 75.824 936.476 75.504C936.476 75.328 936.412 75.168 936.284 75.024L933.724 72.24L936.044 69.712C936.252 69.504 936.268 69.136 936.044 68.896C935.82 68.656 935.356 68.608 934.972 69.056L932.556 71.856C932.348 72.096 932.348 72.512 932.556 72.784L935.212 75.792ZM931.852 69.328C931.916 68.544 930.508 68.544 930.572 69.328V75.504C930.508 76.288 931.916 76.288 931.852 75.504V69.328ZM937.779 73.888C937.779 75.248 938.659 76.112 939.987 76.112C940.963 76.112 941.731 75.76 942.291 75.072V75.552C942.291 75.856 942.563 76.112 942.899 76.112C943.235 76.112 943.507 75.856 943.507 75.552V71.584C943.507 69.616 942.723 68.64 940.739 68.64C940.115 68.64 939.443 68.784 938.755 69.072C938.547 69.152 938.435 69.328 938.435 69.584C938.435 69.664 938.451 69.728 938.483 69.808C938.579 70.016 938.739 70.128 938.979 70.128C939.059 70.128 939.139 70.112 939.219 70.08C939.715 69.888 940.195 69.792 940.659 69.792C941.987 69.792 942.291 70.528 942.291 72.064C941.859 71.76 941.267 71.6 940.499 71.6C938.899 71.6 937.779 72.464 937.779 73.888ZM942.291 74.032C941.763 74.656 941.155 74.96 940.435 74.96C939.619 74.96 939.139 74.528 939.139 73.824C939.139 73.056 939.827 72.64 940.675 72.64C941.299 72.64 941.843 72.8 942.291 73.12V74.032ZM947.922 68.64C946.994 68.64 946.21 68.832 945.57 69.2C945.346 69.344 945.234 69.504 945.234 69.712C945.234 69.808 945.25 69.888 945.298 69.968C945.41 70.144 945.57 70.24 945.778 70.24C945.89 70.24 946.002 70.224 946.082 70.176C946.626 69.92 947.17 69.792 947.73 69.792C948.674 69.792 949.266 70.192 949.266 70.832C949.266 71.408 948.738 71.856 948.018 71.856H947.426C947.122 71.856 946.882 72.096 946.882 72.368C946.882 72.672 947.122 72.896 947.426 72.896H948.098C948.978 72.896 949.506 73.232 949.506 73.824C949.506 74.528 948.722 75.008 947.618 75.008C947.106 75.008 946.562 74.848 945.986 74.512C945.874 74.448 945.762 74.416 945.65 74.416C945.442 74.416 945.282 74.496 945.17 74.672C945.09 74.8 945.058 74.912 945.058 75.008C945.058 75.216 945.154 75.376 945.33 75.504C945.986 75.936 946.802 76.16 947.81 76.16C949.618 76.16 950.866 75.328 950.866 74C950.866 73.12 950.322 72.416 949.362 72.288C950.21 71.984 950.626 71.408 950.626 70.576C950.626 69.376 949.65 68.64 947.922 68.64ZM953.414 75.088C954.118 75.808 955.046 76.16 956.182 76.16C957.318 76.16 958.246 75.808 958.966 75.088C959.67 74.384 960.022 73.488 960.022 72.4C960.022 71.312 959.67 70.416 958.966 69.696C958.246 68.992 957.318 68.64 956.182 68.64C955.046 68.64 954.118 68.992 953.414 69.696C952.694 70.416 952.342 71.312 952.342 72.4C952.342 73.488 952.694 74.384 953.414 75.088ZM953.702 72.4C953.702 70.88 954.758 69.84 956.182 69.84C957.638 69.84 958.662 70.912 958.662 72.4C958.662 73.92 957.638 74.96 956.182 74.96C954.726 74.96 953.702 73.888 953.702 72.4ZM967.565 70.592C967.565 69.36 966.525 68.736 964.461 68.736C964.285 68.736 963.613 68.752 962.461 68.784C962.125 68.8 961.853 69.088 961.853 69.424V75.376C961.853 75.712 962.125 76 962.461 76.016C963.709 76.048 964.381 76.064 964.493 76.064C966.701 76.064 967.805 75.36 967.805 73.968C967.805 73.04 967.245 72.464 966.125 72.256C966.973 72.112 967.565 71.44 967.565 70.592ZM964.669 72.768C965.853 72.768 966.445 73.136 966.445 73.872C966.445 74.64 965.837 75.024 964.605 75.024C964.397 75.024 963.901 75.008 963.133 74.976V72.768H964.669ZM963.133 69.824C963.773 69.792 964.253 69.776 964.557 69.776C965.661 69.776 966.205 70.128 966.205 70.848C966.205 71.536 965.629 71.968 964.749 71.968H963.133V69.824ZM977.993 75.792C978.169 76 978.377 76.112 978.617 76.112C979.017 76.112 979.257 75.824 979.257 75.504C979.257 75.328 979.193 75.168 979.065 75.024L976.505 72.24L978.825 69.712C979.033 69.504 979.049 69.136 978.825 68.896C978.601 68.656 978.137 68.608 977.753 69.056L975.337 71.856C975.129 72.096 975.129 72.512 975.337 72.784L977.993 75.792ZM974.633 69.328C974.697 68.544 973.289 68.544 973.353 69.328V75.504C973.289 76.288 974.697 76.288 974.633 75.504V69.328ZM982.352 75.664C982.848 76 983.536 76.16 984.384 76.16C985.488 76.16 986.4 75.792 987.088 75.056C987.776 74.32 988.128 73.392 988.128 72.288C988.128 71.216 987.824 70.336 987.232 69.648C986.624 68.976 985.808 68.64 984.8 68.64C983.824 68.64 982.864 69.056 982.352 69.648V69.328C982.416 68.544 981.008 68.544 981.072 69.328V78.592C981.008 79.376 982.416 79.376 982.352 78.592V75.664ZM982.352 70.832C982.88 70.176 983.584 69.84 984.432 69.84C985.888 69.84 986.768 70.848 986.768 72.336C986.768 73.872 985.792 74.96 984.272 74.96C983.552 74.96 982.912 74.768 982.352 74.4V70.832ZM990.225 69.12C990.097 68.848 989.889 68.72 989.617 68.72C989.185 68.72 988.913 69.024 988.913 69.392C988.913 69.504 988.929 69.616 988.977 69.696L992.001 76L991.841 76.384C991.345 77.536 990.897 78.016 990.305 78.016C990.113 78.016 989.793 77.936 989.681 77.936C989.345 77.936 989.169 78.112 989.169 78.448C989.169 78.944 989.601 79.2 990.449 79.2C990.977 79.2 991.457 78.976 991.857 78.544C992.257 78.096 992.705 77.248 993.201 76L995.745 69.648C995.793 69.52 995.809 69.424 995.809 69.344C995.809 68.976 995.553 68.72 995.105 68.72C994.801 68.72 994.593 68.88 994.481 69.216L992.961 73.36C992.833 73.744 992.721 74.112 992.625 74.464C992.353 73.792 992.209 73.424 992.193 73.376L990.225 69.12ZM1001.29 70C1001.63 70 1001.9 69.728 1001.9 69.392C1001.9 69.072 1001.63 68.8 1001.29 68.8H997.946C997.61 68.8 997.338 69.072 997.338 69.408V75.504C997.274 76.288 998.682 76.288 998.618 75.504V70H1001.29ZM1008.75 69.408C1008.75 69.072 1008.47 68.8 1008.14 68.8H1004.35C1004.01 68.8 1003.72 69.072 1003.71 69.408L1003.61 71.04C1003.53 72.336 1003.39 73.248 1003.18 73.808C1002.97 74.368 1002.68 74.72 1002.31 74.864C1001.98 75.008 1001.8 75.216 1001.8 75.52C1001.8 75.888 1002.06 76.112 1002.44 76.112C1003.64 76.112 1004.65 74.64 1004.86 71.296L1004.94 70.08H1007.47V75.504C1007.4 76.288 1008.81 76.288 1008.75 75.504V69.408ZM1011.65 75.088C1012.35 75.808 1013.28 76.16 1014.42 76.16C1015.55 76.16 1016.48 75.808 1017.2 75.088C1017.9 74.384 1018.26 73.488 1018.26 72.4C1018.26 71.312 1017.9 70.416 1017.2 69.696C1016.48 68.992 1015.55 68.64 1014.42 68.64C1013.28 68.64 1012.35 68.992 1011.65 69.696C1010.93 70.416 1010.58 71.312 1010.58 72.4C1010.58 73.488 1010.93 74.384 1011.65 75.088ZM1011.94 72.4C1011.94 70.88 1012.99 69.84 1014.42 69.84C1015.87 69.84 1016.9 70.912 1016.9 72.4C1016.9 73.92 1015.87 74.96 1014.42 74.96C1012.96 74.96 1011.94 73.888 1011.94 72.4ZM1025.02 70.256C1025.1 70.304 1025.21 70.32 1025.32 70.32C1025.56 70.32 1025.74 70.224 1025.85 70.032C1025.9 69.952 1025.93 69.856 1025.93 69.744C1025.93 69.504 1025.82 69.312 1025.59 69.2C1024.94 68.832 1024.15 68.64 1023.26 68.64C1022.22 68.64 1021.34 69.008 1020.65 69.728C1019.96 70.448 1019.61 71.344 1019.61 72.4C1019.61 73.536 1019.96 74.432 1020.68 75.12C1021.38 75.808 1022.31 76.16 1023.46 76.16C1024.44 76.16 1025.27 75.856 1025.96 75.232C1026.07 75.136 1026.14 74.992 1026.14 74.816C1026.14 74.656 1026.07 74.528 1025.96 74.416C1025.85 74.304 1025.74 74.256 1025.59 74.256C1025.43 74.256 1025.27 74.32 1025.1 74.464C1024.66 74.8 1024.15 74.96 1023.56 74.96C1022.82 74.96 1022.22 74.72 1021.72 74.256C1021.22 73.792 1020.97 73.168 1020.97 72.4C1020.97 71.664 1021.21 71.056 1021.7 70.56C1022.18 70.08 1022.76 69.84 1023.43 69.84C1023.96 69.84 1024.49 69.984 1025.02 70.256ZM1030.63 70.08H1032.66C1033.44 70.144 1033.44 68.736 1032.66 68.8H1027.31C1026.53 68.736 1026.53 70.144 1027.31 70.08H1029.35V75.504C1029.28 76.288 1030.69 76.288 1030.63 75.504V70.08ZM1035.4 69.12C1035.27 68.848 1035.06 68.72 1034.79 68.72C1034.36 68.72 1034.09 69.024 1034.09 69.392C1034.09 69.504 1034.1 69.616 1034.15 69.696L1037.17 76L1037.01 76.384C1036.52 77.536 1036.07 78.016 1035.48 78.016C1035.29 78.016 1034.97 77.936 1034.85 77.936C1034.52 77.936 1034.34 78.112 1034.34 78.448C1034.34 78.944 1034.77 79.2 1035.62 79.2C1036.15 79.2 1036.63 78.976 1037.03 78.544C1037.43 78.096 1037.88 77.248 1038.37 76L1040.92 69.648C1040.97 69.52 1040.98 69.424 1040.98 69.344C1040.98 68.976 1040.73 68.72 1040.28 68.72C1039.97 68.72 1039.77 68.88 1039.65 69.216L1038.13 73.36C1038.01 73.744 1037.89 74.112 1037.8 74.464C1037.53 73.792 1037.38 73.424 1037.37 73.376L1035.4 69.12ZM1045.66 70.08H1047.69C1048.47 70.144 1048.47 68.736 1047.69 68.8H1042.35C1041.56 68.736 1041.56 70.144 1042.35 70.08H1044.38V75.504C1044.31 76.288 1045.72 76.288 1045.66 75.504V70.08ZM1050.05 75.088C1050.76 75.808 1051.69 76.16 1052.82 76.16C1053.96 76.16 1054.89 75.808 1055.61 75.088C1056.31 74.384 1056.66 73.488 1056.66 72.4C1056.66 71.312 1056.31 70.416 1055.61 69.696C1054.89 68.992 1053.96 68.64 1052.82 68.64C1051.69 68.64 1050.76 68.992 1050.05 69.696C1049.33 70.416 1048.98 71.312 1048.98 72.4C1048.98 73.488 1049.33 74.384 1050.05 75.088ZM1050.34 72.4C1050.34 70.88 1051.4 69.84 1052.82 69.84C1054.28 69.84 1055.3 70.912 1055.3 72.4C1055.3 73.92 1054.28 74.96 1052.82 74.96C1051.37 74.96 1050.34 73.888 1050.34 72.4ZM1062.62 72.08C1062.19 72.384 1061.65 72.528 1060.97 72.528C1059.93 72.528 1059.42 71.968 1059.42 70.832V69.328C1059.42 68.992 1059.13 68.72 1058.75 68.72C1058.35 68.72 1058.06 68.992 1058.06 69.328V70.976C1058.06 72.816 1058.91 73.728 1060.62 73.728C1061.41 73.728 1062.06 73.552 1062.62 73.2V75.504C1062.56 76.288 1063.97 76.288 1063.9 75.504V69.328C1063.97 68.544 1062.56 68.544 1062.62 69.328V72.08ZM1072.77 69.328C1072.84 68.544 1071.43 68.544 1071.49 69.328V71.76H1067.49V69.328C1067.56 68.544 1066.15 68.544 1066.21 69.328V75.504C1066.15 76.288 1067.56 76.288 1067.49 75.504V72.96H1071.49V75.504C1071.43 76.288 1072.84 76.288 1072.77 75.504V69.328ZM1075.66 75.088C1076.37 75.808 1077.3 76.16 1078.43 76.16C1079.57 76.16 1080.5 75.808 1081.22 75.088C1081.92 74.384 1082.27 73.488 1082.27 72.4C1082.27 71.312 1081.92 70.416 1081.22 69.696C1080.5 68.992 1079.57 68.64 1078.43 68.64C1077.3 68.64 1076.37 68.992 1075.66 69.696C1074.94 70.416 1074.59 71.312 1074.59 72.4C1074.59 73.488 1074.94 74.384 1075.66 75.088ZM1075.95 72.4C1075.95 70.88 1077.01 69.84 1078.43 69.84C1079.89 69.84 1080.91 70.912 1080.91 72.4C1080.91 73.92 1079.89 74.96 1078.43 74.96C1076.98 74.96 1075.95 73.888 1075.95 72.4Z" fill="#666666"/>
<circle cx="796.5" cy="115.5" r="25.5" fill="#FD9339"/>
<g filter="url(#filter5_d_6485_15664)">
<circle cx="796.5" cy="115.5" r="16.5" fill="#FF9E4D"/>
</g>
<path d="M796.976 116.15H799.838C800.594 116.15 800.594 114.89 799.838 114.89H796.976V112.082C796.976 111.74 796.706 111.452 796.292 111.452C795.878 111.452 795.626 111.74 795.626 112.082V114.89H792.818C792.062 114.89 792.062 116.15 792.818 116.15H795.626V118.994C795.626 119.336 795.914 119.642 796.292 119.642C796.706 119.642 796.976 119.336 796.976 118.994V116.15Z" fill="white"/>
<path d="M879 39.4878C888.389 39.4878 896 32.028 896 22.8259C896 13.6238 888.389 6.16406 879 6.16406C869.611 6.16406 862 13.6238 862 22.8259C862 32.028 869.611 39.4878 879 39.4878Z" stroke="#FD9339" stroke-width="3" stroke-linecap="round" stroke-linejoin="round"/>
<path d="M879 12.8291V22.8262L885.8 26.1586" stroke="#FD9339" stroke-width="3" stroke-linecap="round" stroke-linejoin="round"/>
<g filter="url(#filter6_d_6485_15664)">
<path fill-rule="evenodd" clip-rule="evenodd" d="M273 378C275.761 378 278 380.238 278 383V453.707C278.104 455.671 278.188 457.686 278.251 459.752C278.707 474.489 296.274 481.926 305 483.803C289.627 483.803 276.58 482.426 265.581 480H19C16.2386 480 14 477.761 14 475V383C14 380.238 16.2386 378 19 378H273Z" fill="white"/>
<path d="M278 453.707L277.501 453.734L277.5 453.721V453.707H278ZM278.251 459.752L278.751 459.737L278.251 459.752ZM305 483.803L305.105 483.314L305 484.303V483.803ZM265.581 480V479.5H265.636L265.689 479.511L265.581 480ZM277.5 383C277.5 380.514 275.485 378.5 273 378.5V377.5C276.038 377.5 278.5 379.962 278.5 383H277.5ZM277.5 453.707V383H278.5V453.707H277.5ZM277.752 459.767C277.688 457.705 277.604 455.694 277.501 453.734L278.499 453.681C278.603 455.649 278.687 457.667 278.751 459.737L277.752 459.767ZM304.895 484.291C300.481 483.342 293.841 480.992 288.234 477.008C282.628 473.024 277.986 467.354 277.752 459.767L278.751 459.737C278.972 466.887 283.341 472.304 288.814 476.193C294.286 480.081 300.792 482.387 305.105 483.314L304.895 484.291ZM265.689 479.511C276.646 481.928 289.656 483.303 305 483.303V484.303C289.598 484.303 276.514 482.923 265.473 480.488L265.689 479.511ZM19 479.5H265.581V480.5H19V479.5ZM14.5 475C14.5 477.485 16.5147 479.5 19 479.5V480.5C15.9624 480.5 13.5 478.037 13.5 475H14.5ZM14.5 383V475H13.5V383H14.5ZM19 378.5C16.5147 378.5 14.5 380.514 14.5 383H13.5C13.5 379.962 15.9624 377.5 19 377.5V378.5ZM273 378.5H19V377.5H273V378.5Z" fill="#FF9E4C"/>
</g>
<path d="M93.752 411.752C93.528 411.752 92.728 411.768 91.352 411.8C90.984 411.8 90.68 412.12 90.68 412.488V422.328C90.68 422.696 90.984 423 91.352 423.016C92.264 423.032 93.048 423.048 93.688 423.048C96.136 423.048 97.752 421.976 97.752 419.8C97.752 418.312 96.856 417.384 95.432 417.128C96.584 416.728 97.352 415.864 97.352 414.52C97.352 412.84 96.264 411.752 93.752 411.752ZM93.848 417.896C95.464 417.896 96.392 418.552 96.392 419.72C96.392 421.064 95.448 421.768 93.768 421.768C93.112 421.768 92.536 421.752 92.04 421.704V417.896H93.848ZM92.04 413.08C92.84 413.048 93.4 413.032 93.72 413.032C95.24 413.032 95.992 413.624 95.992 414.824C95.992 415.992 95.064 416.696 93.832 416.696H92.04V413.08ZM101.307 416.328C101.371 415.544 99.963 415.544 100.027 416.328V422.392C100.027 422.728 100.299 423 100.635 423H102.347C104.443 423 105.339 421.896 105.339 420.44C105.339 418.984 104.539 417.96 102.491 417.96H101.307V416.328ZM107.995 416.328C108.059 415.544 106.651 415.544 106.715 416.328V422.504C106.651 423.288 108.059 423.288 107.995 422.504V416.328ZM101.307 419.16H102.251C103.403 419.16 103.979 419.608 103.979 420.488C103.979 421.368 103.467 421.8 102.235 421.8H101.307V419.16ZM114.245 417C114.581 417 114.853 416.728 114.853 416.392C114.853 416.072 114.581 415.8 114.245 415.8H110.901C110.565 415.8 110.293 416.072 110.293 416.408V422.504C110.229 423.288 111.637 423.288 111.573 422.504V417H114.245ZM116.447 422.088C117.151 422.808 118.079 423.16 119.215 423.16C120.351 423.16 121.279 422.808 121.999 422.088C122.703 421.384 123.055 420.488 123.055 419.4C123.055 418.312 122.703 417.416 121.999 416.696C121.279 415.992 120.351 415.64 119.215 415.64C118.079 415.64 117.151 415.992 116.447 416.696C115.727 417.416 115.375 418.312 115.375 419.4C115.375 420.488 115.727 421.384 116.447 422.088ZM116.735 419.4C116.735 417.88 117.791 416.84 119.215 416.84C120.671 416.84 121.695 417.912 121.695 419.4C121.695 420.92 120.671 421.96 119.215 421.96C117.759 421.96 116.735 420.888 116.735 419.4ZM130.637 423V424.152C130.637 424.488 130.909 424.76 131.245 424.76C131.565 424.76 131.837 424.488 131.837 424.152V422.408C131.837 422.072 131.565 421.8 131.229 421.8H130.637V416.408C130.637 416.072 130.365 415.8 130.029 415.8H126.333C125.997 415.8 125.709 416.072 125.693 416.408L125.613 417.704C125.485 419.576 125.021 421.16 124.509 421.8H124.221C123.885 421.8 123.613 422.072 123.613 422.408V424.152C123.613 424.488 123.885 424.76 124.221 424.76C124.541 424.76 124.813 424.488 124.813 424.152V423H130.637ZM125.869 421.8C126.253 421.288 126.701 419.88 126.845 418.2L126.925 417H129.357V421.8H125.869ZM139.712 416.328C139.776 415.544 138.368 415.544 138.432 416.328V418.76H134.432V416.328C134.496 415.544 133.088 415.544 133.152 416.328V422.504C133.088 423.288 134.496 423.288 134.432 422.504V419.96H138.432V422.504C138.368 423.288 139.776 423.288 139.712 422.504V416.328ZM143.291 416.328C143.355 415.544 141.947 415.544 142.011 416.328V422.392C142.011 422.728 142.283 423 142.619 423H144.331C146.427 423 147.323 421.896 147.323 420.44C147.323 418.984 146.523 417.96 144.475 417.96H143.291V416.328ZM149.979 416.328C150.043 415.544 148.635 415.544 148.699 416.328V422.504C148.635 423.288 150.043 423.288 149.979 422.504V416.328ZM143.291 419.16H144.235C145.387 419.16 145.963 419.608 145.963 420.488C145.963 421.368 145.451 421.8 144.219 421.8H143.291V419.16ZM153.157 418.76C153.301 417.624 154.165 416.84 155.445 416.84C156.677 416.84 157.461 417.56 157.525 418.76H153.157ZM158.853 418.936C158.853 417.96 158.533 417.176 157.893 416.552C157.253 415.944 156.453 415.64 155.509 415.64C154.357 415.64 153.445 415.992 152.789 416.696C152.133 417.416 151.797 418.312 151.797 419.4C151.797 420.536 152.149 421.448 152.853 422.136C153.557 422.824 154.485 423.16 155.653 423.16C156.597 423.16 157.445 422.888 158.197 422.36C158.325 422.28 158.389 422.136 158.389 421.928C158.389 421.816 158.357 421.72 158.293 421.64C158.165 421.496 158.021 421.432 157.861 421.432C157.749 421.432 157.621 421.464 157.509 421.528C157.013 421.816 156.421 421.96 155.749 421.96C154.325 421.96 153.349 421.144 153.237 419.8H158.293C158.549 419.8 158.821 419.544 158.837 419.288C158.853 419.208 158.853 419.096 158.853 418.936ZM169.205 417.256C169.285 417.304 169.397 417.32 169.509 417.32C169.749 417.32 169.925 417.224 170.037 417.032C170.085 416.952 170.117 416.856 170.117 416.744C170.117 416.504 170.005 416.312 169.781 416.2C169.125 415.832 168.341 415.64 167.445 415.64C166.405 415.64 165.525 416.008 164.837 416.728C164.149 417.448 163.797 418.344 163.797 419.4C163.797 420.536 164.149 421.432 164.869 422.12C165.573 422.808 166.501 423.16 167.653 423.16C168.629 423.16 169.461 422.856 170.149 422.232C170.261 422.136 170.325 421.992 170.325 421.816C170.325 421.656 170.261 421.528 170.149 421.416C170.037 421.304 169.925 421.256 169.781 421.256C169.621 421.256 169.461 421.32 169.285 421.464C168.853 421.8 168.341 421.96 167.749 421.96C167.013 421.96 166.405 421.72 165.909 421.256C165.413 420.792 165.157 420.168 165.157 419.4C165.157 418.664 165.397 418.056 165.893 417.56C166.373 417.08 166.949 416.84 167.621 416.84C168.149 416.84 168.677 416.984 169.205 417.256ZM176.542 422.792C176.718 423 176.926 423.112 177.166 423.112C177.566 423.112 177.806 422.824 177.806 422.504C177.806 422.328 177.742 422.168 177.614 422.024L175.054 419.24L177.374 416.712C177.582 416.504 177.598 416.136 177.374 415.896C177.15 415.656 176.686 415.608 176.302 416.056L173.886 418.856C173.678 419.096 173.678 419.512 173.886 419.784L176.542 422.792ZM173.182 416.328C173.246 415.544 171.838 415.544 171.902 416.328V422.504C171.838 423.288 173.246 423.288 173.182 422.504V416.328ZM186.341 416.376C186.341 416.04 186.069 415.72 185.701 415.72C185.429 415.72 185.125 415.912 184.789 416.312L180.901 421.096V416.328C180.965 415.544 179.557 415.544 179.621 416.328V422.472C179.621 422.808 179.893 423.112 180.261 423.112C180.549 423.112 180.853 422.92 181.173 422.536L185.061 417.752V422.504C184.997 423.288 186.405 423.288 186.341 422.504V416.376ZM194.684 423V424.152C194.684 424.488 194.956 424.76 195.292 424.76C195.612 424.76 195.884 424.488 195.884 424.152V422.408C195.884 422.072 195.612 421.8 195.276 421.8H194.684V416.408C194.684 416.072 194.412 415.8 194.076 415.8H190.38C190.044 415.8 189.756 416.072 189.74 416.408L189.66 417.704C189.532 419.576 189.068 421.16 188.556 421.8H188.268C187.932 421.8 187.66 422.072 187.66 422.408V424.152C187.66 424.488 187.932 424.76 188.268 424.76C188.588 424.76 188.86 424.488 188.86 424.152V423H194.684ZM189.916 421.8C190.3 421.288 190.748 419.88 190.892 418.2L190.972 417H193.404V421.8H189.916ZM201.839 422.792C202.015 423 202.223 423.112 202.463 423.112C202.863 423.112 203.103 422.824 203.103 422.504C203.103 422.328 203.039 422.168 202.911 422.024L200.351 419.24L202.671 416.712C202.879 416.504 202.895 416.136 202.671 415.896C202.447 415.656 201.983 415.608 201.599 416.056L199.183 418.856C198.975 419.096 198.975 419.512 199.183 419.784L201.839 422.792ZM198.479 416.328C198.543 415.544 197.135 415.544 197.199 416.328V422.504C197.135 423.288 198.543 423.288 198.479 422.504V416.328ZM211.638 416.376C211.638 416.04 211.366 415.72 210.998 415.72C210.726 415.72 210.422 415.912 210.086 416.312L206.198 421.096V416.328C206.262 415.544 204.854 415.544 204.918 416.328V422.472C204.918 422.808 205.19 423.112 205.558 423.112C205.846 423.112 206.15 422.92 206.47 422.536L210.358 417.752V422.504C210.294 423.288 211.702 423.288 211.638 422.504V416.376ZM96.632 437.408C96.632 437.072 96.36 436.8 96.024 436.8H90.76C90.424 436.8 90.152 437.072 90.152 437.408V443.504C90.088 444.288 91.496 444.288 91.432 443.504V438H95.352V443.504C95.288 444.288 96.696 444.288 96.632 443.504V437.408ZM100.213 443.664C100.709 444 101.397 444.16 102.245 444.16C103.349 444.16 104.261 443.792 104.949 443.056C105.637 442.32 105.989 441.392 105.989 440.288C105.989 439.216 105.685 438.336 105.093 437.648C104.485 436.976 103.669 436.64 102.661 436.64C101.685 436.64 100.725 437.056 100.213 437.648V437.328C100.277 436.544 98.8693 436.544 98.9333 437.328V446.592C98.8693 447.376 100.277 447.376 100.213 446.592V443.664ZM100.213 438.832C100.741 438.176 101.445 437.84 102.293 437.84C103.749 437.84 104.629 438.848 104.629 440.336C104.629 441.872 103.653 442.96 102.133 442.96C101.413 442.96 100.773 442.768 100.213 442.4V438.832ZM114.544 437.376C114.544 437.04 114.272 436.72 113.904 436.72C113.632 436.72 113.328 436.912 112.992 437.312L109.104 442.096V437.328C109.168 436.544 107.76 436.544 107.824 437.328V443.472C107.824 443.808 108.096 444.112 108.464 444.112C108.752 444.112 109.056 443.92 109.376 443.536L113.264 438.752V443.504C113.2 444.288 114.608 444.288 114.544 443.504V437.376ZM121.041 443.088C121.745 443.808 122.673 444.16 123.809 444.16C124.945 444.16 125.873 443.808 126.593 443.088C127.297 442.384 127.649 441.488 127.649 440.4C127.649 439.312 127.297 438.416 126.593 437.696C125.873 436.992 124.945 436.64 123.809 436.64C122.673 436.64 121.745 436.992 121.041 437.696C120.321 438.416 119.969 439.312 119.969 440.4C119.969 441.488 120.321 442.384 121.041 443.088ZM121.329 440.4C121.329 438.88 122.385 437.84 123.809 437.84C125.265 437.84 126.289 438.912 126.289 440.4C126.289 441.92 125.265 442.96 123.809 442.96C122.353 442.96 121.329 441.888 121.329 440.4ZM135.96 437.408C135.96 437.072 135.688 436.8 135.352 436.8H130.088C129.752 436.8 129.48 437.072 129.48 437.408V443.504C129.416 444.288 130.824 444.288 130.76 443.504V438H134.68V443.504C134.616 444.288 136.024 444.288 135.96 443.504V437.408ZM144.357 437.408C144.357 437.072 144.085 436.8 143.749 436.8H139.957C139.621 436.8 139.333 437.072 139.317 437.408L139.221 439.04C139.141 440.336 138.997 441.248 138.789 441.808C138.581 442.368 138.293 442.72 137.925 442.864C137.589 443.008 137.413 443.216 137.413 443.52C137.413 443.888 137.669 444.112 138.053 444.112C139.253 444.112 140.261 442.64 140.469 439.296L140.549 438.08H143.077V443.504C143.013 444.288 144.421 444.288 144.357 443.504V437.408ZM146.156 441.888C146.156 443.248 147.036 444.112 148.364 444.112C149.34 444.112 150.108 443.76 150.668 443.072V443.552C150.668 443.856 150.94 444.112 151.276 444.112C151.612 444.112 151.884 443.856 151.884 443.552V439.584C151.884 437.616 151.1 436.64 149.116 436.64C148.492 436.64 147.82 436.784 147.132 437.072C146.924 437.152 146.812 437.328 146.812 437.584C146.812 437.664 146.828 437.728 146.86 437.808C146.956 438.016 147.116 438.128 147.356 438.128C147.436 438.128 147.516 438.112 147.596 438.08C148.092 437.888 148.572 437.792 149.036 437.792C150.364 437.792 150.668 438.528 150.668 440.064C150.236 439.76 149.644 439.6 148.876 439.6C147.276 439.6 146.156 440.464 146.156 441.888ZM150.668 442.032C150.14 442.656 149.532 442.96 148.812 442.96C147.996 442.96 147.516 442.528 147.516 441.824C147.516 441.056 148.204 440.64 149.052 440.64C149.676 440.64 150.22 440.8 150.668 441.12V442.032ZM157.035 438.08H159.067C159.851 438.144 159.851 436.736 159.067 436.8H153.723C152.939 436.736 152.939 438.144 153.723 438.08H155.755V443.504C155.691 444.288 157.099 444.288 157.035 443.504V438.08ZM161.72 439.76C161.864 438.624 162.728 437.84 164.008 437.84C165.24 437.84 166.024 438.56 166.088 439.76H161.72ZM167.416 439.936C167.416 438.96 167.096 438.176 166.456 437.552C165.816 436.944 165.016 436.64 164.072 436.64C162.92 436.64 162.008 436.992 161.352 437.696C160.696 438.416 160.36 439.312 160.36 440.4C160.36 441.536 160.712 442.448 161.416 443.136C162.12 443.824 163.048 444.16 164.216 444.16C165.16 444.16 166.008 443.888 166.76 443.36C166.888 443.28 166.952 443.136 166.952 442.928C166.952 442.816 166.92 442.72 166.856 442.64C166.728 442.496 166.584 442.432 166.424 442.432C166.312 442.432 166.184 442.464 166.072 442.528C165.576 442.816 164.984 442.96 164.312 442.96C162.888 442.96 161.912 442.144 161.799 440.8H166.856C167.112 440.8 167.384 440.544 167.4 440.288C167.416 440.208 167.416 440.096 167.416 439.936Z" fill="#666666"/>
<circle cx="25.5" cy="25.5" r="25.5" transform="matrix(-1 0 0 1 347 458)" fill="#FD9339"/>
<g filter="url(#filter7_d_6485_15664)">
<circle cx="16.5" cy="16.5" r="16.5" transform="matrix(-1 0 0 1 338 467)" fill="#FF9E4D"/>
</g>
<path d="M321.024 484.15H318.162C317.406 484.15 317.406 482.89 318.162 482.89H321.024V480.082C321.024 479.74 321.294 479.452 321.708 479.452C322.122 479.452 322.374 479.74 322.374 480.082V482.89H325.182C325.938 482.89 325.938 484.15 325.182 484.15H322.374V486.994C322.374 487.336 322.086 487.642 321.708 487.642C321.294 487.642 321.024 487.336 321.024 486.994V484.15Z" fill="white"/>
<path d="M66.9375 370.826L38.0625 399.127" stroke="#FD9339" stroke-width="3" stroke-linecap="round" stroke-linejoin="round"/>
<path d="M41.1562 378.912C44.004 378.912 46.3125 376.649 46.3125 373.858C46.3125 371.067 44.004 368.805 41.1562 368.805C38.3085 368.805 36 371.067 36 373.858C36 376.649 38.3085 378.912 41.1562 378.912Z" stroke="#FD9339" stroke-width="3" stroke-linecap="round" stroke-linejoin="round"/>
<path d="M63.8438 401.148C66.6915 401.148 69 398.886 69 396.095C69 393.304 66.6915 391.041 63.8438 391.041C60.996 391.041 58.6875 393.304 58.6875 396.095C58.6875 398.886 60.996 401.148 63.8438 401.148Z" stroke="#FD9339" stroke-width="3" stroke-linecap="round" stroke-linejoin="round"/>
<g filter="url(#filter8_d_6485_15664)">
<path fill-rule="evenodd" clip-rule="evenodd" d="M397 159C399.761 159 402 161.238 402 164V234.707C402.104 236.671 402.188 238.686 402.251 240.752C402.707 255.489 420.274 262.926 429 264.803C413.627 264.803 400.58 263.426 389.581 261H143C140.239 261 138 258.761 138 256V164C138 161.238 140.239 159 143 159H397Z" fill="white"/>
<path d="M402 234.707L401.501 234.734L401.5 234.721V234.707H402ZM402.251 240.752L402.751 240.737L402.251 240.752ZM429 264.803L429.105 264.314L429 265.303V264.803ZM389.581 261V260.5H389.636L389.689 260.511L389.581 261ZM401.5 164C401.5 161.514 399.485 159.5 397 159.5V158.5C400.038 158.5 402.5 160.962 402.5 164H401.5ZM401.5 234.707V164H402.5V234.707H401.5ZM401.752 240.767C401.688 238.705 401.604 236.694 401.501 234.734L402.499 234.681C402.603 236.649 402.687 238.667 402.751 240.737L401.752 240.767ZM428.895 265.291C424.481 264.342 417.841 261.992 412.234 258.008C406.628 254.024 401.986 248.354 401.752 240.767L402.751 240.737C402.972 247.887 407.341 253.304 412.814 257.193C418.286 261.081 424.792 263.387 429.105 264.314L428.895 265.291ZM389.689 260.511C400.646 262.928 413.656 264.303 429 264.303V265.303C413.598 265.303 400.514 263.923 389.473 261.488L389.689 260.511ZM143 260.5H389.581V261.5H143V260.5ZM138.5 256C138.5 258.485 140.515 260.5 143 260.5V261.5C139.962 261.5 137.5 259.037 137.5 256H138.5ZM138.5 164V256H137.5V164H138.5ZM143 159.5C140.515 159.5 138.5 161.514 138.5 164H137.5C137.5 160.962 139.962 158.5 143 158.5V159.5ZM397 159.5H143V158.5H397V159.5Z" fill="#FF9E4C"/>
</g>
<path d="M221.2 197.648H215.04V193.376C215.04 193.008 214.736 192.72 214.368 192.72C213.984 192.72 213.68 193.008 213.68 193.376V203.44C213.68 203.808 213.984 204.112 214.368 204.112C214.736 204.112 215.04 203.808 215.04 203.44V198.928H221.2V203.44C221.2 203.808 221.504 204.112 221.888 204.112C222.256 204.112 222.56 203.808 222.56 203.44V193.376C222.56 193.008 222.256 192.72 221.888 192.72C221.504 192.72 221.2 193.008 221.2 193.376V197.648ZM224.874 201.888C224.874 203.248 225.754 204.112 227.082 204.112C228.058 204.112 228.826 203.76 229.386 203.072V203.552C229.386 203.856 229.658 204.112 229.994 204.112C230.33 204.112 230.602 203.856 230.602 203.552V199.584C230.602 197.616 229.818 196.64 227.834 196.64C227.21 196.64 226.538 196.784 225.85 197.072C225.642 197.152 225.53 197.328 225.53 197.584C225.53 197.664 225.546 197.728 225.578 197.808C225.674 198.016 225.834 198.128 226.074 198.128C226.154 198.128 226.234 198.112 226.314 198.08C226.81 197.888 227.29 197.792 227.754 197.792C229.082 197.792 229.386 198.528 229.386 200.064C228.954 199.76 228.362 199.6 227.594 199.6C225.994 199.6 224.874 200.464 224.874 201.888ZM229.386 202.032C228.858 202.656 228.25 202.96 227.53 202.96C226.714 202.96 226.234 202.528 226.234 201.824C226.234 201.056 226.922 200.64 227.77 200.64C228.394 200.64 228.938 200.8 229.386 201.12V202.032ZM239.466 197.376C239.466 197.04 239.194 196.72 238.826 196.72C238.554 196.72 238.25 196.912 237.914 197.312L234.026 202.096V197.328C234.09 196.544 232.682 196.544 232.746 197.328V203.472C232.746 203.808 233.018 204.112 233.386 204.112C233.674 204.112 233.978 203.92 234.298 203.536L238.186 198.752V203.504C238.122 204.288 239.53 204.288 239.466 203.504V197.376ZM247.489 198.592C247.489 197.36 246.449 196.736 244.385 196.736C244.209 196.736 243.537 196.752 242.385 196.784C242.049 196.8 241.777 197.088 241.777 197.424V203.376C241.777 203.712 242.049 204 242.385 204.016C243.633 204.048 244.305 204.064 244.417 204.064C246.625 204.064 247.729 203.36 247.729 201.968C247.729 201.04 247.169 200.464 246.049 200.256C246.897 200.112 247.489 199.44 247.489 198.592ZM244.593 200.768C245.777 200.768 246.369 201.136 246.369 201.872C246.369 202.64 245.761 203.024 244.529 203.024C244.321 203.024 243.825 203.008 243.057 202.976V200.768H244.593ZM243.057 197.824C243.697 197.792 244.177 197.776 244.481 197.776C245.585 197.776 246.129 198.128 246.129 198.848C246.129 199.536 245.553 199.968 244.673 199.968H243.057V197.824ZM250.963 197.328C251.027 196.544 249.619 196.544 249.683 197.328V203.392C249.683 203.728 249.955 204 250.291 204H252.003C254.099 204 254.995 202.896 254.995 201.44C254.995 199.984 254.195 198.96 252.147 198.96H250.963V197.328ZM257.651 197.328C257.715 196.544 256.307 196.544 256.371 197.328V203.504C256.307 204.288 257.715 204.288 257.651 203.504V197.328ZM250.963 200.16H251.907C253.059 200.16 253.635 200.608 253.635 201.488C253.635 202.368 253.123 202.8 251.891 202.8H250.963V200.16ZM264.877 198.256C264.957 198.304 265.069 198.32 265.181 198.32C265.421 198.32 265.597 198.224 265.709 198.032C265.757 197.952 265.789 197.856 265.789 197.744C265.789 197.504 265.677 197.312 265.453 197.2C264.797 196.832 264.013 196.64 263.117 196.64C262.077 196.64 261.197 197.008 260.509 197.728C259.821 198.448 259.469 199.344 259.469 200.4C259.469 201.536 259.821 202.432 260.541 203.12C261.245 203.808 262.173 204.16 263.325 204.16C264.301 204.16 265.133 203.856 265.821 203.232C265.933 203.136 265.997 202.992 265.997 202.816C265.997 202.656 265.933 202.528 265.821 202.416C265.709 202.304 265.597 202.256 265.453 202.256C265.293 202.256 265.133 202.32 264.957 202.464C264.525 202.8 264.013 202.96 263.421 202.96C262.685 202.96 262.077 202.72 261.581 202.256C261.085 201.792 260.829 201.168 260.829 200.4C260.829 199.664 261.069 199.056 261.565 198.56C262.045 198.08 262.621 197.84 263.293 197.84C263.821 197.84 264.349 197.984 264.877 198.256ZM276.694 197.328C276.758 196.544 275.35 196.544 275.414 197.328V202.8H272.774V197.328C272.838 196.544 271.43 196.544 271.494 197.328V202.8H268.854V197.328C268.918 196.544 267.51 196.544 267.574 197.328V203.392C267.574 203.728 267.846 204 268.182 204H276.086C276.422 204 276.694 203.728 276.694 203.392V197.328ZM279.876 199.76C280.02 198.624 280.884 197.84 282.164 197.84C283.396 197.84 284.18 198.56 284.244 199.76H279.876ZM285.572 199.936C285.572 198.96 285.252 198.176 284.612 197.552C283.972 196.944 283.172 196.64 282.228 196.64C281.076 196.64 280.164 196.992 279.508 197.696C278.852 198.416 278.516 199.312 278.516 200.4C278.516 201.536 278.868 202.448 279.572 203.136C280.276 203.824 281.204 204.16 282.372 204.16C283.316 204.16 284.164 203.888 284.916 203.36C285.044 203.28 285.108 203.136 285.108 202.928C285.108 202.816 285.076 202.72 285.012 202.64C284.884 202.496 284.74 202.432 284.58 202.432C284.468 202.432 284.34 202.464 284.228 202.528C283.732 202.816 283.14 202.96 282.468 202.96C281.044 202.96 280.068 202.144 279.956 200.8H285.012C285.268 200.8 285.54 200.544 285.556 200.288C285.572 200.208 285.572 200.096 285.572 199.936ZM288.188 199.76C288.332 198.624 289.196 197.84 290.476 197.84C291.708 197.84 292.492 198.56 292.556 199.76H288.188ZM293.884 199.936C293.884 198.96 293.564 198.176 292.924 197.552C292.284 196.944 291.484 196.64 290.54 196.64C289.388 196.64 288.476 196.992 287.82 197.696C287.164 198.416 286.828 199.312 286.828 200.4C286.828 201.536 287.18 202.448 287.884 203.136C288.588 203.824 289.516 204.16 290.684 204.16C291.628 204.16 292.476 203.888 293.228 203.36C293.356 203.28 293.42 203.136 293.42 202.928C293.42 202.816 293.388 202.72 293.324 202.64C293.196 202.496 293.052 202.432 292.892 202.432C292.78 202.432 292.652 202.464 292.54 202.528C292.044 202.816 291.452 202.96 290.78 202.96C289.356 202.96 288.38 202.144 288.268 200.8H293.324C293.58 200.8 293.852 200.544 293.868 200.288C293.884 200.208 293.884 200.096 293.884 199.936ZM217.792 224.792C217.968 225 218.176 225.112 218.416 225.112C218.816 225.112 219.056 224.824 219.056 224.504C219.056 224.328 218.992 224.168 218.864 224.024L216.304 221.24L218.624 218.712C218.832 218.504 218.848 218.136 218.624 217.896C218.4 217.656 217.936 217.608 217.552 218.056L215.136 220.856C214.928 221.096 214.928 221.512 215.136 221.784L217.792 224.792ZM214.432 218.328C214.496 217.544 213.088 217.544 213.152 218.328V224.504C213.088 225.288 214.496 225.288 214.432 224.504V218.328ZM220.359 222.888C220.359 224.248 221.239 225.112 222.567 225.112C223.543 225.112 224.311 224.76 224.871 224.072V224.552C224.871 224.856 225.143 225.112 225.479 225.112C225.815 225.112 226.087 224.856 226.087 224.552V220.584C226.087 218.616 225.303 217.64 223.319 217.64C222.695 217.64 222.023 217.784 221.335 218.072C221.127 218.152 221.015 218.328 221.015 218.584C221.015 218.664 221.031 218.728 221.063 218.808C221.159 219.016 221.319 219.128 221.559 219.128C221.639 219.128 221.719 219.112 221.799 219.08C222.295 218.888 222.775 218.792 223.239 218.792C224.567 218.792 224.871 219.528 224.871 221.064C224.439 220.76 223.847 220.6 223.079 220.6C221.479 220.6 220.359 221.464 220.359 222.888ZM224.871 223.032C224.343 223.656 223.735 223.96 223.015 223.96C222.199 223.96 221.719 223.528 221.719 222.824C221.719 222.056 222.407 221.64 223.255 221.64C223.879 221.64 224.423 221.8 224.871 222.12V223.032ZM232.358 221.08C231.926 221.384 231.382 221.528 230.71 221.528C229.67 221.528 229.158 220.968 229.158 219.832V218.328C229.158 217.992 228.87 217.72 228.486 217.72C228.086 217.72 227.798 217.992 227.798 218.328V219.976C227.798 221.816 228.646 222.728 230.358 222.728C231.142 222.728 231.798 222.552 232.358 222.2V224.504C232.294 225.288 233.702 225.288 233.638 224.504V218.328C233.702 217.544 232.294 217.544 232.358 218.328V221.08ZM236.829 220.76C236.973 219.624 237.837 218.84 239.117 218.84C240.349 218.84 241.133 219.56 241.197 220.76H236.829ZM242.525 220.936C242.525 219.96 242.205 219.176 241.565 218.552C240.925 217.944 240.125 217.64 239.181 217.64C238.029 217.64 237.117 217.992 236.461 218.696C235.805 219.416 235.469 220.312 235.469 221.4C235.469 222.536 235.821 223.448 236.525 224.136C237.229 224.824 238.157 225.16 239.325 225.16C240.269 225.16 241.117 224.888 241.869 224.36C241.997 224.28 242.061 224.136 242.061 223.928C242.061 223.816 242.029 223.72 241.965 223.64C241.837 223.496 241.693 223.432 241.533 223.432C241.421 223.432 241.293 223.464 241.181 223.528C240.685 223.816 240.093 223.96 239.421 223.96C237.997 223.96 237.021 223.144 236.909 221.8H241.965C242.221 221.8 242.493 221.544 242.509 221.288C242.525 221.208 242.525 221.096 242.525 220.936ZM249.189 219.256C249.269 219.304 249.381 219.32 249.493 219.32C249.733 219.32 249.909 219.224 250.021 219.032C250.069 218.952 250.101 218.856 250.101 218.744C250.101 218.504 249.989 218.312 249.765 218.2C249.109 217.832 248.325 217.64 247.429 217.64C246.389 217.64 245.509 218.008 244.821 218.728C244.133 219.448 243.781 220.344 243.781 221.4C243.781 222.536 244.133 223.432 244.853 224.12C245.557 224.808 246.485 225.16 247.637 225.16C248.613 225.16 249.445 224.856 250.133 224.232C250.245 224.136 250.309 223.992 250.309 223.816C250.309 223.656 250.245 223.528 250.133 223.416C250.021 223.304 249.909 223.256 249.765 223.256C249.605 223.256 249.445 223.32 249.269 223.464C248.837 223.8 248.325 223.96 247.733 223.96C246.997 223.96 246.389 223.72 245.893 223.256C245.397 222.792 245.141 222.168 245.141 221.4C245.141 220.664 245.381 220.056 245.877 219.56C246.357 219.08 246.933 218.84 247.605 218.84C248.133 218.84 248.661 218.984 249.189 219.256ZM254.801 219.08H256.833C257.617 219.144 257.617 217.736 256.833 217.8H251.489C250.705 217.736 250.705 219.144 251.489 219.08H253.521V224.504C253.457 225.288 254.865 225.288 254.801 224.504V219.08ZM264.552 219.592C264.552 218.36 263.512 217.736 261.448 217.736C261.272 217.736 260.6 217.752 259.448 217.784C259.112 217.8 258.84 218.088 258.84 218.424V224.376C258.84 224.712 259.112 225 259.448 225.016C260.696 225.048 261.368 225.064 261.48 225.064C263.688 225.064 264.792 224.36 264.792 222.968C264.792 222.04 264.232 221.464 263.112 221.256C263.96 221.112 264.552 220.44 264.552 219.592ZM261.656 221.768C262.84 221.768 263.432 222.136 263.432 222.872C263.432 223.64 262.824 224.024 261.592 224.024C261.384 224.024 260.888 224.008 260.12 223.976V221.768H261.656ZM260.12 218.824C260.76 218.792 261.24 218.776 261.544 218.776C262.648 218.776 263.192 219.128 263.192 219.848C263.192 220.536 262.616 220.968 261.736 220.968H260.12V218.824ZM267.338 224.088C268.042 224.808 268.97 225.16 270.106 225.16C271.242 225.16 272.17 224.808 272.89 224.088C273.594 223.384 273.946 222.488 273.946 221.4C273.946 220.312 273.594 219.416 272.89 218.696C272.17 217.992 271.242 217.64 270.106 217.64C268.97 217.64 268.042 217.992 267.338 218.696C266.618 219.416 266.266 220.312 266.266 221.4C266.266 222.488 266.618 223.384 267.338 224.088ZM267.626 221.4C267.626 219.88 268.682 218.84 270.106 218.84C271.562 218.84 272.586 219.912 272.586 221.4C272.586 222.92 271.562 223.96 270.106 223.96C268.65 223.96 267.626 222.888 267.626 221.4ZM285.851 218.408C285.851 218.072 285.579 217.8 285.243 217.8H279.979C279.643 217.8 279.371 218.072 279.371 218.408V224.504C279.307 225.288 280.715 225.288 280.651 224.504V219H284.571V224.504C284.507 225.288 285.915 225.288 285.851 224.504V218.408ZM289.432 224.664C289.928 225 290.616 225.16 291.464 225.16C292.568 225.16 293.48 224.792 294.168 224.056C294.856 223.32 295.208 222.392 295.208 221.288C295.208 220.216 294.904 219.336 294.312 218.648C293.704 217.976 292.888 217.64 291.88 217.64C290.904 217.64 289.944 218.056 289.432 218.648V218.328C289.496 217.544 288.088 217.544 288.152 218.328V227.592C288.088 228.376 289.496 228.376 289.432 227.592V224.664ZM289.432 219.832C289.96 219.176 290.664 218.84 291.512 218.84C292.968 218.84 293.848 219.848 293.848 221.336C293.848 222.872 292.872 223.96 291.352 223.96C290.632 223.96 289.992 223.768 289.432 223.4V219.832ZM297.635 224.088C298.339 224.808 299.267 225.16 300.403 225.16C301.539 225.16 302.467 224.808 303.187 224.088C303.891 223.384 304.243 222.488 304.243 221.4C304.243 220.312 303.891 219.416 303.187 218.696C302.467 217.992 301.539 217.64 300.403 217.64C299.267 217.64 298.339 217.992 297.635 218.696C296.915 219.416 296.563 220.312 296.563 221.4C296.563 222.488 296.915 223.384 297.635 224.088ZM297.923 221.4C297.923 219.88 298.979 218.84 300.403 218.84C301.859 218.84 302.883 219.912 302.883 221.4C302.883 222.92 301.859 223.96 300.403 223.96C298.947 223.96 297.923 222.888 297.923 221.4ZM311.825 225V226.152C311.825 226.488 312.097 226.76 312.433 226.76C312.753 226.76 313.025 226.488 313.025 226.152V224.408C313.025 224.072 312.753 223.8 312.417 223.8H311.825V218.408C311.825 218.072 311.553 217.8 311.217 217.8H307.521C307.185 217.8 306.897 218.072 306.881 218.408L306.801 219.704C306.673 221.576 306.209 223.16 305.697 223.8H305.409C305.073 223.8 304.801 224.072 304.801 224.408V226.152C304.801 226.488 305.073 226.76 305.409 226.76C305.729 226.76 306.001 226.488 306.001 226.152V225H311.825ZM307.057 223.8C307.441 223.288 307.889 221.88 308.033 220.2L308.113 219H310.545V223.8H307.057ZM314.884 218.12C314.756 217.848 314.548 217.72 314.276 217.72C313.844 217.72 313.572 218.024 313.572 218.392C313.572 218.504 313.588 218.616 313.636 218.696L316.66 225L316.5 225.384C316.004 226.536 315.556 227.016 314.964 227.016C314.772 227.016 314.452 226.936 314.34 226.936C314.004 226.936 313.828 227.112 313.828 227.448C313.828 227.944 314.26 228.2 315.108 228.2C315.636 228.2 316.116 227.976 316.516 227.544C316.916 227.096 317.364 226.248 317.86 225L320.404 218.648C320.452 218.52 320.468 218.424 320.468 218.344C320.468 217.976 320.212 217.72 319.764 217.72C319.46 217.72 319.252 217.88 319.14 218.216L317.62 222.36C317.492 222.744 317.38 223.112 317.284 223.464C317.012 222.792 316.868 222.424 316.852 222.376L314.884 218.12ZM326.636 224.792C326.812 225 327.02 225.112 327.26 225.112C327.66 225.112 327.9 224.824 327.9 224.504C327.9 224.328 327.836 224.168 327.708 224.024L325.148 221.24L327.468 218.712C327.676 218.504 327.692 218.136 327.468 217.896C327.244 217.656 326.78 217.608 326.396 218.056L323.98 220.856C323.772 221.096 323.772 221.512 323.98 221.784L326.636 224.792ZM323.276 218.328C323.34 217.544 321.932 217.544 321.996 218.328V224.504C321.932 225.288 323.34 225.288 323.276 224.504V218.328ZM337.315 224.408C337.315 224.072 337.043 223.8 336.707 223.8H336.115V218.328C336.179 217.544 334.771 217.544 334.835 218.328V223.8H330.995V218.328C331.059 217.544 329.651 217.544 329.715 218.328V224.392C329.715 224.728 329.987 225 330.323 225H336.115V226.152C336.115 226.488 336.387 226.76 336.723 226.76C337.043 226.76 337.315 226.488 337.315 226.152V224.408ZM345.419 218.376C345.419 218.04 345.147 217.72 344.779 217.72C344.507 217.72 344.203 217.912 343.867 218.312L339.979 223.096V218.328C340.043 217.544 338.635 217.544 338.699 218.328V224.472C338.699 224.808 338.971 225.112 339.339 225.112C339.627 225.112 339.931 224.92 340.251 224.536L344.139 219.752V224.504C344.075 225.288 345.483 225.288 345.419 224.504V218.376ZM354.45 218.376C354.45 218.04 354.178 217.72 353.81 217.72C353.538 217.72 353.234 217.912 352.898 218.312L349.01 223.096V218.328C349.074 217.544 347.666 217.544 347.73 218.328V224.472C347.73 224.808 348.002 225.112 348.37 225.112C348.658 225.112 348.962 224.92 349.282 224.536L353.17 219.752V224.504C353.106 225.288 354.514 225.288 354.45 224.504V218.376Z" fill="#666666"/>
<circle cx="25.5" cy="25.5" r="25.5" transform="matrix(-1 0 0 1 471 239)" fill="#FD9339"/>
<g filter="url(#filter9_d_6485_15664)">
<circle cx="16.5" cy="16.5" r="16.5" transform="matrix(-1 0 0 1 462 248)" fill="#FF9E4D"/>
</g>
<path d="M445.024 265.15H442.162C441.406 265.15 441.406 263.89 442.162 263.89H445.024V261.082C445.024 260.74 445.294 260.452 445.708 260.452C446.122 260.452 446.374 260.74 446.374 261.082V263.89H449.182C449.938 263.89 449.938 265.15 449.182 265.15H446.374V267.994C446.374 268.336 446.086 268.642 445.708 268.642C445.294 268.642 445.024 268.336 445.024 267.994V265.15Z" fill="white"/>
<path d="M181.286 172.363C187.519 172.363 192.572 167.411 192.572 161.302C192.572 155.193 187.519 150.24 181.286 150.24C175.053 150.24 170 155.193 170 161.302C170 167.411 175.053 172.363 181.286 172.363Z" stroke="#FF9E4C" stroke-width="3" stroke-linecap="round" stroke-linejoin="round"/>
<path d="M175.175 170.609L173.225 185.004L181.286 180.264L189.347 185.004L187.396 170.593" stroke="#FF9E4C" stroke-width="3" stroke-linecap="round" stroke-linejoin="round"/>
<defs>
<filter id="filter0_d_6485_15664" x="655.895" y="221.5" width="281.605" height="132.803" filterUnits="userSpaceOnUse" color-interpolation-filters="sRGB">
<feFlood flood-opacity="0" result="BackgroundImageFix"/>
<feColorMatrix in="SourceAlpha" type="matrix" values="0 0 0 0 0 0 0 0 0 0 0 0 0 0 0 0 0 0 127 0" result="hardAlpha"/>
<feOffset dy="4"/>
<feGaussianBlur stdDeviation="6.5"/>
<feColorMatrix type="matrix" values="0 0 0 0 0 0 0 0 0 0 0 0 0 0 0 0 0 0 0.13 0"/>
<feBlend mode="normal" in2="BackgroundImageFix" result="effect1_dropShadow_6485_15664"/>
<feBlend mode="normal" in="SourceGraphic" in2="effect1_dropShadow_6485_15664" result="shape"/>
</filter>
<filter id="filter1_d_6485_15664" x="627" y="320" width="42" height="42" filterUnits="userSpaceOnUse" color-interpolation-filters="sRGB">
<feFlood flood-opacity="0" result="BackgroundImageFix"/>
<feColorMatrix in="SourceAlpha" type="matrix" values="0 0 0 0 0 0 0 0 0 0 0 0 0 0 0 0 0 0 127 0" result="hardAlpha"/>
<feOffset dx="-5" dy="5"/>
<feGaussianBlur stdDeviation="2"/>
<feColorMatrix type="matrix" values="0 0 0 0 0.904167 0 0 0 0 0.524442 0 0 0 0 0.203438 0 0 0 1 0"/>
<feBlend mode="normal" in2="BackgroundImageFix" result="effect1_dropShadow_6485_15664"/>
<feBlend mode="normal" in="SourceGraphic" in2="effect1_dropShadow_6485_15664" result="shape"/>
</filter>
<filter id="filter2_d_6485_15664" x="885.895" y="416.5" width="331.605" height="132.803" filterUnits="userSpaceOnUse" color-interpolation-filters="sRGB">
<feFlood flood-opacity="0" result="BackgroundImageFix"/>
<feColorMatrix in="SourceAlpha" type="matrix" values="0 0 0 0 0 0 0 0 0 0 0 0 0 0 0 0 0 0 127 0" result="hardAlpha"/>
<feOffset dy="4"/>
<feGaussianBlur stdDeviation="6.5"/>
<feColorMatrix type="matrix" values="0 0 0 0 0 0 0 0 0 0 0 0 0 0 0 0 0 0 0.13 0"/>
<feBlend mode="normal" in2="BackgroundImageFix" result="effect1_dropShadow_6485_15664"/>
<feBlend mode="normal" in="SourceGraphic" in2="effect1_dropShadow_6485_15664" result="shape"/>
</filter>
<filter id="filter3_d_6485_15664" x="857" y="515" width="42" height="42" filterUnits="userSpaceOnUse" color-interpolation-filters="sRGB">
<feFlood flood-opacity="0" result="BackgroundImageFix"/>
<feColorMatrix in="SourceAlpha" type="matrix" values="0 0 0 0 0 0 0 0 0 0 0 0 0 0 0 0 0 0 127 0" result="hardAlpha"/>
<feOffset dx="-5" dy="5"/>
<feGaussianBlur stdDeviation="2"/>
<feColorMatrix type="matrix" values="0 0 0 0 0.904167 0 0 0 0 0.524442 0 0 0 0 0.203438 0 0 0 1 0"/>
<feBlend mode="normal" in2="BackgroundImageFix" result="effect1_dropShadow_6485_15664"/>
<feBlend mode="normal" in="SourceGraphic" in2="effect1_dropShadow_6485_15664" result="shape"/>
</filter>
<filter id="filter4_d_6485_15664" x="799.895" y="0.5" width="317.605" height="132.803" filterUnits="userSpaceOnUse" color-interpolation-filters="sRGB">
<feFlood flood-opacity="0" result="BackgroundImageFix"/>
<feColorMatrix in="SourceAlpha" type="matrix" values="0 0 0 0 0 0 0 0 0 0 0 0 0 0 0 0 0 0 127 0" result="hardAlpha"/>
<feOffset dy="4"/>
<feGaussianBlur stdDeviation="6.5"/>
<feColorMatrix type="matrix" values="0 0 0 0 0 0 0 0 0 0 0 0 0 0 0 0 0 0 0.13 0"/>
<feBlend mode="normal" in2="BackgroundImageFix" result="effect1_dropShadow_6485_15664"/>
<feBlend mode="normal" in="SourceGraphic" in2="effect1_dropShadow_6485_15664" result="shape"/>
</filter>
<filter id="filter5_d_6485_15664" x="771" y="99" width="42" height="42" filterUnits="userSpaceOnUse" color-interpolation-filters="sRGB">
<feFlood flood-opacity="0" result="BackgroundImageFix"/>
<feColorMatrix in="SourceAlpha" type="matrix" values="0 0 0 0 0 0 0 0 0 0 0 0 0 0 0 0 0 0 127 0" result="hardAlpha"/>
<feOffset dx="-5" dy="5"/>
<feGaussianBlur stdDeviation="2"/>
<feColorMatrix type="matrix" values="0 0 0 0 0.904167 0 0 0 0 0.524442 0 0 0 0 0.203438 0 0 0 1 0"/>
<feBlend mode="normal" in2="BackgroundImageFix" result="effect1_dropShadow_6485_15664"/>
<feBlend mode="normal" in="SourceGraphic" in2="effect1_dropShadow_6485_15664" result="shape"/>
</filter>
<filter id="filter6_d_6485_15664" x="0.5" y="368.5" width="317.605" height="132.803" filterUnits="userSpaceOnUse" color-interpolation-filters="sRGB">
<feFlood flood-opacity="0" result="BackgroundImageFix"/>
<feColorMatrix in="SourceAlpha" type="matrix" values="0 0 0 0 0 0 0 0 0 0 0 0 0 0 0 0 0 0 127 0" result="hardAlpha"/>
<feOffset dy="4"/>
<feGaussianBlur stdDeviation="6.5"/>
<feColorMatrix type="matrix" values="0 0 0 0 0 0 0 0 0 0 0 0 0 0 0 0 0 0 0.13 0"/>
<feBlend mode="normal" in2="BackgroundImageFix" result="effect1_dropShadow_6485_15664"/>
<feBlend mode="normal" in="SourceGraphic" in2="effect1_dropShadow_6485_15664" result="shape"/>
</filter>
<filter id="filter7_d_6485_15664" x="296" y="467" width="42" height="42" filterUnits="userSpaceOnUse" color-interpolation-filters="sRGB">
<feFlood flood-opacity="0" result="BackgroundImageFix"/>
<feColorMatrix in="SourceAlpha" type="matrix" values="0 0 0 0 0 0 0 0 0 0 0 0 0 0 0 0 0 0 127 0" result="hardAlpha"/>
<feOffset dx="-5" dy="5"/>
<feGaussianBlur stdDeviation="2"/>
<feColorMatrix type="matrix" values="0 0 0 0 0.904167 0 0 0 0 0.524442 0 0 0 0 0.203438 0 0 0 1 0"/>
<feBlend mode="normal" in2="BackgroundImageFix" result="effect1_dropShadow_6485_15664"/>
<feBlend mode="normal" in="SourceGraphic" in2="effect1_dropShadow_6485_15664" result="shape"/>
</filter>
<filter id="filter8_d_6485_15664" x="124.5" y="149.5" width="317.605" height="132.803" filterUnits="userSpaceOnUse" color-interpolation-filters="sRGB">
<feFlood flood-opacity="0" result="BackgroundImageFix"/>
<feColorMatrix in="SourceAlpha" type="matrix" values="0 0 0 0 0 0 0 0 0 0 0 0 0 0 0 0 0 0 127 0" result="hardAlpha"/>
<feOffset dy="4"/>
<feGaussianBlur stdDeviation="6.5"/>
<feColorMatrix type="matrix" values="0 0 0 0 0 0 0 0 0 0 0 0 0 0 0 0 0 0 0.13 0"/>
<feBlend mode="normal" in2="BackgroundImageFix" result="effect1_dropShadow_6485_15664"/>
<feBlend mode="normal" in="SourceGraphic" in2="effect1_dropShadow_6485_15664" result="shape"/>
</filter>
<filter id="filter9_d_6485_15664" x="420" y="248" width="42" height="42" filterUnits="userSpaceOnUse" color-interpolation-filters="sRGB">
<feFlood flood-opacity="0" result="BackgroundImageFix"/>
<feColorMatrix in="SourceAlpha" type="matrix" values="0 0 0 0 0 0 0 0 0 0 0 0 0 0 0 0 0 0 127 0" result="hardAlpha"/>
<feOffset dx="-5" dy="5"/>
<feGaussianBlur stdDeviation="2"/>
<feColorMatrix type="matrix" values="0 0 0 0 0.904167 0 0 0 0 0.524442 0 0 0 0 0.203438 0 0 0 1 0"/>
<feBlend mode="normal" in2="BackgroundImageFix" result="effect1_dropShadow_6485_15664"/>
<feBlend mode="normal" in="SourceGraphic" in2="effect1_dropShadow_6485_15664" result="shape"/>
</filter>
</defs>
</svg>
