<svg width="116" height="32" viewBox="0 0 116 32" fill="none" xmlns="http://www.w3.org/2000/svg">
<path d="M42.7095 2.75781V3.76074H38.2534V12H37.0347V2.75781H42.7095ZM37.9678 6.52197H40.4878C41.1649 6.52197 41.7362 6.63623 42.2017 6.86475C42.6672 7.08903 43.0205 7.4043 43.2617 7.81055C43.5029 8.2168 43.6235 8.69287 43.6235 9.23877C43.6235 9.64502 43.5558 10.0174 43.4204 10.356C43.285 10.6903 43.084 10.9823 42.8174 11.2319C42.5508 11.4774 42.2228 11.6678 41.8335 11.8032C41.4442 11.9344 40.9956 12 40.4878 12H37.0347V2.75781H38.2598V11.0034H40.4878C40.9406 11.0034 41.3066 10.9209 41.5859 10.7559C41.8695 10.5866 42.0768 10.3665 42.208 10.0957C42.3392 9.82487 42.4048 9.53499 42.4048 9.22607C42.4048 8.91715 42.3392 8.63363 42.208 8.37549C42.0768 8.11735 41.8695 7.91211 41.5859 7.75977C41.3066 7.60319 40.9406 7.5249 40.4878 7.5249H37.9678V6.52197ZM47.9463 12.127C47.4681 12.127 47.0343 12.0465 46.645 11.8857C46.2599 11.7207 45.9277 11.4901 45.6484 11.1938C45.3734 10.8976 45.1618 10.5464 45.0137 10.1401C44.8656 9.73389 44.7915 9.28955 44.7915 8.80713V8.54053C44.7915 7.98193 44.874 7.4847 45.0391 7.04883C45.2041 6.60872 45.4284 6.23633 45.7119 5.93164C45.9954 5.62695 46.3171 5.39632 46.6768 5.23975C47.0365 5.08317 47.4089 5.00488 47.7939 5.00488C48.2848 5.00488 48.708 5.08952 49.0635 5.25879C49.4232 5.42806 49.7173 5.66504 49.9458 5.96973C50.1743 6.27018 50.3436 6.62565 50.4536 7.03613C50.5636 7.44238 50.6187 7.88672 50.6187 8.36914V8.896H45.4897V7.9375H49.4443V7.84863C49.4274 7.54395 49.3639 7.24772 49.2539 6.95996C49.1481 6.6722 48.9788 6.43522 48.7461 6.24902C48.5133 6.06283 48.196 5.96973 47.7939 5.96973C47.5273 5.96973 47.2819 6.02686 47.0576 6.14111C46.8333 6.25114 46.6408 6.41618 46.48 6.63623C46.3192 6.85628 46.1943 7.125 46.1055 7.44238C46.0166 7.75977 45.9722 8.12581 45.9722 8.54053V8.80713C45.9722 9.13298 46.0166 9.43978 46.1055 9.72754C46.1986 10.0111 46.3319 10.2607 46.5054 10.4766C46.6831 10.6924 46.8968 10.8617 47.1465 10.9844C47.4004 11.1071 47.6882 11.1685 48.0098 11.1685C48.4245 11.1685 48.7757 11.0838 49.0635 10.9146C49.3512 10.7453 49.603 10.5189 49.8188 10.2354L50.5298 10.8003C50.3817 11.0246 50.1934 11.2383 49.9648 11.4414C49.7363 11.6445 49.4549 11.8096 49.1206 11.9365C48.7905 12.0635 48.3991 12.127 47.9463 12.127ZM54.7383 11.1621C55.0176 11.1621 55.2757 11.105 55.5127 10.9907C55.7497 10.8765 55.9443 10.7199 56.0967 10.521C56.249 10.3179 56.3358 10.0872 56.3569 9.8291H57.4741C57.453 10.2354 57.3154 10.6141 57.0615 10.9653C56.8118 11.3123 56.4839 11.5938 56.0776 11.8096C55.6714 12.0212 55.2249 12.127 54.7383 12.127C54.222 12.127 53.7713 12.036 53.3862 11.854C53.0054 11.672 52.688 11.4224 52.4341 11.105C52.1844 10.7876 51.9961 10.4237 51.8691 10.0132C51.7464 9.59847 51.6851 9.16048 51.6851 8.69922V8.43262C51.6851 7.97135 51.7464 7.53548 51.8691 7.125C51.9961 6.71029 52.1844 6.34424 52.4341 6.02686C52.688 5.70947 53.0054 5.4598 53.3862 5.27783C53.7713 5.09587 54.222 5.00488 54.7383 5.00488C55.2757 5.00488 55.7454 5.11491 56.1475 5.33496C56.5495 5.55078 56.8647 5.84701 57.0933 6.22363C57.326 6.59603 57.453 7.01921 57.4741 7.49316H56.3569C56.3358 7.20964 56.2554 6.95361 56.1157 6.7251C55.9803 6.49658 55.7941 6.31462 55.5571 6.1792C55.3244 6.03955 55.0514 5.96973 54.7383 5.96973C54.3786 5.96973 54.076 6.04167 53.8306 6.18555C53.5894 6.3252 53.3968 6.51562 53.2529 6.75684C53.1133 6.99382 53.0117 7.2583 52.9482 7.55029C52.889 7.83805 52.8594 8.13216 52.8594 8.43262V8.69922C52.8594 8.99967 52.889 9.2959 52.9482 9.58789C53.0075 9.87988 53.1069 10.1444 53.2466 10.3813C53.3905 10.6183 53.583 10.8088 53.8242 10.9526C54.0697 11.0923 54.3743 11.1621 54.7383 11.1621ZM63.3711 5.13184V6.10303H59.8989V5.13184H63.3711ZM60.0703 5.13184V12H58.896V5.13184H60.0703ZM64.4121 5.13184V12H63.2314V5.13184H64.4121ZM70.8867 5.13184V6.10303H67.5669V5.13184H70.8867ZM71.9214 5.13184V12H70.7471V5.13184H71.9214ZM67.2812 5.13184H68.4619L68.2842 8.44531C68.2546 8.95736 68.2059 9.41016 68.1382 9.80371C68.0747 10.193 67.9858 10.5273 67.8716 10.8066C67.7616 11.0859 67.6219 11.3145 67.4526 11.4922C67.2876 11.6657 67.0887 11.7948 66.856 11.8794C66.6232 11.9598 66.3545 12 66.0498 12H65.6816V10.9653L65.9355 10.9463C66.1175 10.9336 66.272 10.8913 66.3989 10.8193C66.5301 10.7474 66.6401 10.6416 66.729 10.502C66.8179 10.3581 66.8898 10.174 66.9448 9.94971C67.0041 9.72542 67.0485 9.45882 67.0781 9.1499C67.112 8.84098 67.1374 8.48128 67.1543 8.0708L67.2812 5.13184ZM77.8628 10.8257V7.29004C77.8628 7.01921 77.8078 6.78434 77.6978 6.58545C77.592 6.38232 77.4312 6.22575 77.2153 6.11572C76.9995 6.0057 76.7329 5.95068 76.4155 5.95068C76.1193 5.95068 75.859 6.00146 75.6348 6.10303C75.4147 6.20459 75.2412 6.33789 75.1143 6.50293C74.9915 6.66797 74.9302 6.8457 74.9302 7.03613H73.7559C73.7559 6.79069 73.8193 6.54736 73.9463 6.30615C74.0732 6.06494 74.2552 5.84701 74.4922 5.65234C74.7334 5.45345 75.0212 5.29688 75.3555 5.18262C75.694 5.06413 76.0706 5.00488 76.4854 5.00488C76.9847 5.00488 77.4248 5.08952 77.8057 5.25879C78.1908 5.42806 78.4912 5.68408 78.707 6.02686C78.9271 6.3654 79.0371 6.79069 79.0371 7.30273V10.502C79.0371 10.7305 79.0562 10.9738 79.0942 11.2319C79.1366 11.4901 79.1979 11.7122 79.2783 11.8984V12H78.0532C77.994 11.8646 77.9474 11.6847 77.9136 11.4604C77.8797 11.2319 77.8628 11.0203 77.8628 10.8257ZM78.0659 7.83594L78.0786 8.66113H76.8916C76.5573 8.66113 76.259 8.68864 75.9966 8.74365C75.7342 8.79443 75.5142 8.87272 75.3364 8.97852C75.1587 9.08431 75.0233 9.21761 74.9302 9.37842C74.8371 9.53499 74.7905 9.71908 74.7905 9.93066C74.7905 10.1465 74.8392 10.3433 74.9365 10.521C75.0339 10.6987 75.1799 10.8405 75.3745 10.9463C75.5734 11.0479 75.8167 11.0986 76.1045 11.0986C76.4642 11.0986 76.7816 11.0225 77.0566 10.8701C77.3317 10.7178 77.5496 10.5316 77.7104 10.3115C77.8755 10.0915 77.9644 9.87777 77.9771 9.67041L78.4785 10.2354C78.4489 10.4131 78.3685 10.6099 78.2373 10.8257C78.1061 11.0415 77.9305 11.2489 77.7104 11.4478C77.4946 11.6424 77.2365 11.8053 76.936 11.9365C76.6398 12.0635 76.3055 12.127 75.9331 12.127C75.4676 12.127 75.0592 12.036 74.708 11.854C74.361 11.672 74.0902 11.4287 73.8955 11.124C73.7051 10.8151 73.6099 10.4702 73.6099 10.0894C73.6099 9.72119 73.6818 9.39746 73.8257 9.11816C73.9696 8.83464 74.1769 8.59977 74.4478 8.41357C74.7186 8.22314 75.0444 8.07926 75.4253 7.98193C75.8062 7.8846 76.2314 7.83594 76.7012 7.83594H78.0659ZM83.582 5.13184V12H82.4014V5.13184H83.582ZM85.8862 5.13184V6.08398H80.1416V5.13184H85.8862ZM91.7007 8.10889V9.06104H88.0698V8.10889H91.7007ZM88.3174 5.13184V12H87.1431V5.13184H88.3174ZM92.6528 5.13184V12H91.4722V5.13184H92.6528ZM98.5942 10.8257V7.29004C98.5942 7.01921 98.5392 6.78434 98.4292 6.58545C98.3234 6.38232 98.1626 6.22575 97.9468 6.11572C97.731 6.0057 97.4644 5.95068 97.147 5.95068C96.8507 5.95068 96.5905 6.00146 96.3662 6.10303C96.1462 6.20459 95.9727 6.33789 95.8457 6.50293C95.723 6.66797 95.6616 6.8457 95.6616 7.03613H94.4873C94.4873 6.79069 94.5508 6.54736 94.6777 6.30615C94.8047 6.06494 94.9867 5.84701 95.2236 5.65234C95.4648 5.45345 95.7526 5.29688 96.0869 5.18262C96.4255 5.06413 96.8021 5.00488 97.2168 5.00488C97.7161 5.00488 98.1562 5.08952 98.5371 5.25879C98.9222 5.42806 99.2227 5.68408 99.4385 6.02686C99.6585 6.3654 99.7686 6.79069 99.7686 7.30273V10.502C99.7686 10.7305 99.7876 10.9738 99.8257 11.2319C99.868 11.4901 99.9294 11.7122 100.01 11.8984V12H98.7847C98.7254 11.8646 98.6789 11.6847 98.645 11.4604C98.6112 11.2319 98.5942 11.0203 98.5942 10.8257ZM98.7974 7.83594L98.8101 8.66113H97.623C97.2887 8.66113 96.9904 8.68864 96.728 8.74365C96.4657 8.79443 96.2456 8.87272 96.0679 8.97852C95.8901 9.08431 95.7547 9.21761 95.6616 9.37842C95.5685 9.53499 95.522 9.71908 95.522 9.93066C95.522 10.1465 95.5706 10.3433 95.668 10.521C95.7653 10.6987 95.9113 10.8405 96.106 10.9463C96.3049 11.0479 96.5482 11.0986 96.8359 11.0986C97.1956 11.0986 97.513 11.0225 97.7881 10.8701C98.0632 10.7178 98.2811 10.5316 98.4419 10.3115C98.6069 10.0915 98.6958 9.87777 98.7085 9.67041L99.21 10.2354C99.1803 10.4131 99.0999 10.6099 98.9688 10.8257C98.8376 11.0415 98.6619 11.2489 98.4419 11.4478C98.2261 11.6424 97.9679 11.8053 97.6675 11.9365C97.3713 12.0635 97.0369 12.127 96.6646 12.127C96.1991 12.127 95.7907 12.036 95.4395 11.854C95.0924 11.672 94.8216 11.4287 94.627 11.124C94.4365 10.8151 94.3413 10.4702 94.3413 10.0894C94.3413 9.72119 94.4132 9.39746 94.5571 9.11816C94.701 8.83464 94.9084 8.59977 95.1792 8.41357C95.45 8.22314 95.7759 8.07926 96.1567 7.98193C96.5376 7.8846 96.9629 7.83594 97.4326 7.83594H98.7974ZM103.006 8.72461H104.275L102.289 12H101.019L103.006 8.72461ZM103.99 5.13184H106.859V12H105.685V6.08398H103.99C103.655 6.08398 103.382 6.14111 103.171 6.25537C102.959 6.3654 102.805 6.50928 102.708 6.68701C102.61 6.86475 102.562 7.04883 102.562 7.23926C102.562 7.42546 102.606 7.60531 102.695 7.77881C102.784 7.94808 102.923 8.08773 103.114 8.19775C103.304 8.30778 103.55 8.36279 103.85 8.36279H106.002V9.32764H103.85C103.457 9.32764 103.107 9.27474 102.803 9.16895C102.498 9.06315 102.24 8.91715 102.028 8.73096C101.817 8.54053 101.656 8.31836 101.546 8.06445C101.436 7.80632 101.381 7.52702 101.381 7.22656C101.381 6.92611 101.438 6.64893 101.552 6.39502C101.671 6.14111 101.84 5.91895 102.06 5.72852C102.284 5.53809 102.557 5.39209 102.879 5.29053C103.205 5.18473 103.575 5.13184 103.99 5.13184ZM38.1328 21.1318H39.3071L39.2056 23.7026C39.1802 24.3543 39.1061 24.9172 38.9834 25.3911C38.8607 25.8651 38.7041 26.2692 38.5137 26.6035C38.3232 26.9336 38.1095 27.2108 37.8726 27.4351C37.6398 27.6593 37.3986 27.8477 37.1489 28H36.5649L36.5967 27.0415L36.8379 27.0352C36.9775 26.8701 37.113 26.7008 37.2441 26.5273C37.3753 26.3496 37.4959 26.1401 37.606 25.8989C37.716 25.6535 37.807 25.3551 37.8789 25.0039C37.9551 24.6484 38.0037 24.2147 38.0249 23.7026L38.1328 21.1318ZM38.4248 21.1318H42.5571V28H41.3828V22.2173H38.4248V21.1318ZM36.2983 27.0352H43.4395V30.0249H42.2651V28H37.4727V30.0249H36.292L36.2983 27.0352ZM44.4297 24.6421V24.4961C44.4297 24.001 44.5016 23.5418 44.6455 23.1187C44.7894 22.6912 44.9967 22.321 45.2676 22.0078C45.5384 21.6904 45.8664 21.445 46.2515 21.2715C46.6366 21.0938 47.0682 21.0049 47.5464 21.0049C48.0288 21.0049 48.4626 21.0938 48.8477 21.2715C49.237 21.445 49.5671 21.6904 49.8379 22.0078C50.113 22.321 50.3224 22.6912 50.4663 23.1187C50.6102 23.5418 50.6821 24.001 50.6821 24.4961V24.6421C50.6821 25.1372 50.6102 25.5964 50.4663 26.0195C50.3224 26.4427 50.113 26.813 49.8379 27.1304C49.5671 27.4435 49.2391 27.689 48.854 27.8667C48.4731 28.0402 48.0415 28.127 47.5591 28.127C47.0767 28.127 46.6429 28.0402 46.2578 27.8667C45.8727 27.689 45.5426 27.4435 45.2676 27.1304C44.9967 26.813 44.7894 26.4427 44.6455 26.0195C44.5016 25.5964 44.4297 25.1372 44.4297 24.6421ZM45.604 24.4961V24.6421C45.604 24.9849 45.6442 25.3086 45.7246 25.6133C45.805 25.9137 45.9256 26.1803 46.0864 26.4131C46.2515 26.6458 46.4567 26.8299 46.7021 26.9653C46.9476 27.0965 47.2332 27.1621 47.5591 27.1621C47.8807 27.1621 48.1621 27.0965 48.4033 26.9653C48.6488 26.8299 48.8519 26.6458 49.0127 26.4131C49.1735 26.1803 49.2941 25.9137 49.3745 25.6133C49.4591 25.3086 49.5015 24.9849 49.5015 24.6421V24.4961C49.5015 24.1576 49.4591 23.8381 49.3745 23.5376C49.2941 23.2329 49.1714 22.9642 49.0063 22.7314C48.8455 22.4945 48.6424 22.3083 48.397 22.1729C48.1558 22.0374 47.8722 21.9697 47.5464 21.9697C47.2248 21.9697 46.9412 22.0374 46.6958 22.1729C46.4546 22.3083 46.2515 22.4945 46.0864 22.7314C45.9256 22.9642 45.805 23.2329 45.7246 23.5376C45.6442 23.8381 45.604 24.1576 45.604 24.4961ZM54.9033 27.1621C55.1826 27.1621 55.4408 27.105 55.6777 26.9907C55.9147 26.8765 56.1094 26.7199 56.2617 26.521C56.4141 26.3179 56.5008 26.0872 56.522 25.8291H57.6392C57.618 26.2354 57.4805 26.6141 57.2266 26.9653C56.9769 27.3123 56.6489 27.5938 56.2427 27.8096C55.8364 28.0212 55.39 28.127 54.9033 28.127C54.387 28.127 53.9364 28.036 53.5513 27.854C53.1704 27.672 52.853 27.4224 52.5991 27.105C52.3494 26.7876 52.1611 26.4237 52.0342 26.0132C51.9115 25.5985 51.8501 25.1605 51.8501 24.6992V24.4326C51.8501 23.9714 51.9115 23.5355 52.0342 23.125C52.1611 22.7103 52.3494 22.3442 52.5991 22.0269C52.853 21.7095 53.1704 21.4598 53.5513 21.2778C53.9364 21.0959 54.387 21.0049 54.9033 21.0049C55.4408 21.0049 55.9105 21.1149 56.3125 21.335C56.7145 21.5508 57.0298 21.847 57.2583 22.2236C57.491 22.596 57.618 23.0192 57.6392 23.4932H56.522C56.5008 23.2096 56.4204 22.9536 56.2808 22.7251C56.1453 22.4966 55.9591 22.3146 55.7222 22.1792C55.4894 22.0396 55.2165 21.9697 54.9033 21.9697C54.5436 21.9697 54.241 22.0417 53.9956 22.1855C53.7544 22.3252 53.5618 22.5156 53.418 22.7568C53.2783 22.9938 53.1768 23.2583 53.1133 23.5503C53.054 23.8381 53.0244 24.1322 53.0244 24.4326V24.6992C53.0244 24.9997 53.054 25.2959 53.1133 25.5879C53.1725 25.8799 53.272 26.1444 53.4116 26.3813C53.5555 26.6183 53.748 26.8088 53.9893 26.9526C54.2347 27.0923 54.5394 27.1621 54.9033 27.1621ZM61.7588 21.1318V28H60.5781V21.1318H61.7588ZM64.063 21.1318V22.084H58.3184V21.1318H64.063ZM69.1665 26.8257V23.29C69.1665 23.0192 69.1115 22.7843 69.0015 22.5854C68.8957 22.3823 68.7349 22.2257 68.519 22.1157C68.3032 22.0057 68.0366 21.9507 67.7192 21.9507C67.423 21.9507 67.1628 22.0015 66.9385 22.103C66.7184 22.2046 66.5449 22.3379 66.418 22.5029C66.2952 22.668 66.2339 22.8457 66.2339 23.0361H65.0596C65.0596 22.7907 65.123 22.5474 65.25 22.3062C65.377 22.0649 65.5589 21.847 65.7959 21.6523C66.0371 21.4535 66.3249 21.2969 66.6592 21.1826C66.9977 21.0641 67.3743 21.0049 67.7891 21.0049C68.2884 21.0049 68.7285 21.0895 69.1094 21.2588C69.4945 21.4281 69.7949 21.6841 70.0107 22.0269C70.2308 22.3654 70.3408 22.7907 70.3408 23.3027V26.502C70.3408 26.7305 70.3599 26.9738 70.3979 27.2319C70.4403 27.4901 70.5016 27.7122 70.582 27.8984V28H69.3569C69.2977 27.8646 69.2511 27.6847 69.2173 27.4604C69.1834 27.2319 69.1665 27.0203 69.1665 26.8257ZM69.3696 23.8359L69.3823 24.6611H68.1953C67.861 24.6611 67.5627 24.6886 67.3003 24.7437C67.0379 24.7944 66.8179 24.8727 66.6401 24.9785C66.4624 25.0843 66.327 25.2176 66.2339 25.3784C66.1408 25.535 66.0942 25.7191 66.0942 25.9307C66.0942 26.1465 66.1429 26.3433 66.2402 26.521C66.3376 26.6987 66.4836 26.8405 66.6782 26.9463C66.8771 27.0479 67.1204 27.0986 67.4082 27.0986C67.7679 27.0986 68.0853 27.0225 68.3604 26.8701C68.6354 26.7178 68.8534 26.5316 69.0142 26.3115C69.1792 26.0915 69.2681 25.8778 69.2808 25.6704L69.7822 26.2354C69.7526 26.4131 69.6722 26.6099 69.541 26.8257C69.4098 27.0415 69.2342 27.2489 69.0142 27.4478C68.7983 27.6424 68.5402 27.8053 68.2397 27.9365C67.9435 28.0635 67.6092 28.127 67.2368 28.127C66.7713 28.127 66.363 28.036 66.0117 27.854C65.6647 27.672 65.3939 27.4287 65.1992 27.124C65.0088 26.8151 64.9136 26.4702 64.9136 26.0894C64.9136 25.7212 64.9855 25.3975 65.1294 25.1182C65.2733 24.8346 65.4806 24.5998 65.7515 24.4136C66.0223 24.2231 66.3481 24.0793 66.729 23.9819C67.1099 23.8846 67.5352 23.8359 68.0049 23.8359H69.3696ZM75.4126 24.9785H73.1592L73.1465 24.0391H74.9873C75.3512 24.0391 75.6538 24.0031 75.895 23.9312C76.1405 23.8592 76.3245 23.7513 76.4473 23.6074C76.57 23.4635 76.6313 23.2858 76.6313 23.0742C76.6313 22.9092 76.5954 22.7653 76.5234 22.6426C76.4557 22.5156 76.3521 22.4119 76.2124 22.3315C76.0728 22.2469 75.8993 22.1855 75.6919 22.1475C75.4888 22.1051 75.2497 22.084 74.9746 22.084H73.4702V28H72.2959V21.1318H74.9746C75.4105 21.1318 75.8019 21.1699 76.1489 21.2461C76.5002 21.3223 76.7985 21.4386 77.0439 21.5952C77.2936 21.7476 77.484 21.9422 77.6152 22.1792C77.7464 22.4162 77.812 22.6955 77.812 23.0171C77.812 23.2244 77.7697 23.4212 77.6851 23.6074C77.6004 23.7936 77.4756 23.9587 77.3105 24.1025C77.1455 24.2464 76.9424 24.3649 76.7012 24.458C76.46 24.5469 76.1828 24.604 75.8696 24.6294L75.4126 24.9785ZM75.4126 28H72.7339L73.3179 27.0479H75.4126C75.7384 27.0479 76.0093 27.0076 76.2251 26.9272C76.4409 26.8426 76.6017 26.7241 76.7075 26.5718C76.8175 26.4152 76.8726 26.229 76.8726 26.0132C76.8726 25.7974 76.8175 25.6133 76.7075 25.4609C76.6017 25.3044 76.4409 25.1859 76.2251 25.1055C76.0093 25.0208 75.7384 24.9785 75.4126 24.9785H73.6289L73.6416 24.0391H75.8696L76.2949 24.3945C76.6715 24.4242 76.991 24.5173 77.2534 24.6738C77.5158 24.8304 77.7147 25.0293 77.8501 25.2705C77.9855 25.5075 78.0532 25.7656 78.0532 26.0449C78.0532 26.3665 77.9919 26.6501 77.8691 26.8955C77.7507 27.141 77.5771 27.3462 77.3486 27.5112C77.1201 27.672 76.8429 27.7948 76.5171 27.8794C76.1912 27.9598 75.8231 28 75.4126 28ZM80.9033 21.1318V28H79.729V21.1318H80.9033ZM85.4102 21.1318L82.1538 25.0674H80.5098L80.332 24.0391H81.6777L83.9819 21.1318H85.4102ZM84.147 28L81.6206 24.8896L82.376 24.0391L85.6387 28H84.147ZM90.7104 26.8257V23.29C90.7104 23.0192 90.6554 22.7843 90.5454 22.5854C90.4396 22.3823 90.2788 22.2257 90.063 22.1157C89.8472 22.0057 89.5806 21.9507 89.2632 21.9507C88.967 21.9507 88.7067 22.0015 88.4824 22.103C88.2624 22.2046 88.0889 22.3379 87.9619 22.5029C87.8392 22.668 87.7778 22.8457 87.7778 23.0361H86.6035C86.6035 22.7907 86.667 22.5474 86.7939 22.3062C86.9209 22.0649 87.1029 21.847 87.3398 21.6523C87.5811 21.4535 87.8688 21.2969 88.2031 21.1826C88.5417 21.0641 88.9183 21.0049 89.333 21.0049C89.8324 21.0049 90.2725 21.0895 90.6533 21.2588C91.0384 21.4281 91.3389 21.6841 91.5547 22.0269C91.7747 22.3654 91.8848 22.7907 91.8848 23.3027V26.502C91.8848 26.7305 91.9038 26.9738 91.9419 27.2319C91.9842 27.4901 92.0456 27.7122 92.126 27.8984V28H90.9009C90.8416 27.8646 90.7951 27.6847 90.7612 27.4604C90.7274 27.2319 90.7104 27.0203 90.7104 26.8257ZM90.9136 23.8359L90.9263 24.6611H89.7393C89.4049 24.6611 89.1066 24.6886 88.8442 24.7437C88.5819 24.7944 88.3618 24.8727 88.1841 24.9785C88.0063 25.0843 87.8709 25.2176 87.7778 25.3784C87.6847 25.535 87.6382 25.7191 87.6382 25.9307C87.6382 26.1465 87.6868 26.3433 87.7842 26.521C87.8815 26.6987 88.0275 26.8405 88.2222 26.9463C88.4211 27.0479 88.6644 27.0986 88.9521 27.0986C89.3118 27.0986 89.6292 27.0225 89.9043 26.8701C90.1794 26.7178 90.3973 26.5316 90.5581 26.3115C90.7231 26.0915 90.812 25.8778 90.8247 25.6704L91.3262 26.2354C91.2965 26.4131 91.2161 26.6099 91.085 26.8257C90.9538 27.0415 90.7782 27.2489 90.5581 27.4478C90.3423 27.6424 90.0841 27.8053 89.7837 27.9365C89.4875 28.0635 89.1532 28.127 88.7808 28.127C88.3153 28.127 87.9069 28.036 87.5557 27.854C87.2087 27.672 86.9378 27.4287 86.7432 27.124C86.5527 26.8151 86.4575 26.4702 86.4575 26.0894C86.4575 25.7212 86.5295 25.3975 86.6733 25.1182C86.8172 24.8346 87.0246 24.5998 87.2954 24.4136C87.5662 24.2231 87.8921 24.0793 88.2729 23.9819C88.6538 23.8846 89.0791 23.8359 89.5488 23.8359H90.9136Z" fill="#808080"/>
<g clip-path="url(#clip0_10740_7533)">
<path d="M24.5 11.4372V24.1667C24.5 25.4558 23.4558 26.5 22.1667 26.5H5.83333C4.54417 26.5 3.5 25.4558 3.5 24.1667V11.4372C3.5 11.1222 3.56417 10.8095 3.68783 10.5202L5.22783 6.91633C5.59533 6.05767 6.43883 5.5 7.37333 5.5H20.6267C21.5612 5.5 22.4047 6.05767 22.7722 6.91633L24.3122 10.5202C24.4358 10.8107 24.5 11.1222 24.5 11.4372Z" stroke="#292929" stroke-width="1.2" stroke-linecap="round" stroke-linejoin="round"/>
<path d="M22.1667 9.10383V21.8333C22.1667 23.1225 21.1225 24.1667 19.8334 24.1667H3.50002C2.21085 24.1667 1.16669 23.1225 1.16669 21.8333V9.10383C1.16669 8.78883 1.23085 8.47616 1.35452 8.18683L2.89452 4.583C3.26202 3.72433 4.10552 3.16666 5.04002 3.16666H18.2934C19.2279 3.16666 20.0714 3.72433 20.4389 4.583L21.9789 8.18683C22.1025 8.47733 22.1667 8.78883 22.1667 9.10383Z" fill="#FBE8BB"/>
<path d="M16.3333 5.49992L17.4999 11.3332V15.0957C17.4999 15.5951 17.0508 15.9999 16.4966 15.9999H11.5033C10.9491 15.9999 10.4999 15.5951 10.4999 15.0957V11.3332L11.6666 5.49992" fill="white"/>
<path d="M16.3333 5.49992L17.4999 11.3332V15.0957C17.4999 15.5951 17.0508 15.9999 16.4966 15.9999H11.5033C10.9491 15.9999 10.4999 15.5951 10.4999 15.0957V11.3332L11.6666 5.49992" stroke="#292929" stroke-width="1.2" stroke-linecap="round" stroke-linejoin="round"/>
<path d="M24.5 11.4372V24.1667C24.5 25.4558 23.4558 26.5 22.1667 26.5H5.83333C4.54417 26.5 3.5 25.4558 3.5 24.1667V11.4372C3.5 11.1222 3.56417 10.8095 3.68783 10.5202L5.22783 6.91633C5.59533 6.05767 6.43883 5.5 7.37333 5.5H20.6267C21.5612 5.5 22.4047 6.05767 22.7722 6.91633L24.3122 10.5202C24.4358 10.8107 24.5 11.1222 24.5 11.4372Z" stroke="#292929" stroke-width="1.2" stroke-linecap="round" stroke-linejoin="round"/>
<path d="M3.5 11.3333H24.4883" stroke="#292929" stroke-width="1.2" stroke-linecap="round" stroke-linejoin="round"/>
<path d="M7 21.8333H9.33333" stroke="#FD9339" stroke-width="1.2" stroke-linecap="round" stroke-linejoin="round"/>
</g>
<defs>
<clipPath id="clip0_10740_7533">
<rect width="28" height="28" fill="white" transform="translate(0 2)"/>
</clipPath>
</defs>
</svg>
