<svg width="136" height="32" viewBox="0 0 136 32" fill="none" xmlns="http://www.w3.org/2000/svg">
<path d="M42.6523 9.06104H43.8711C43.8076 9.64502 43.6405 10.1676 43.3696 10.6289C43.0988 11.0902 42.7158 11.4562 42.2207 11.7271C41.7256 11.9937 41.1077 12.127 40.3672 12.127C39.8255 12.127 39.3325 12.0254 38.8882 11.8223C38.4481 11.6191 38.0693 11.3314 37.752 10.959C37.4346 10.5824 37.1891 10.1317 37.0156 9.60693C36.8464 9.07796 36.7617 8.48975 36.7617 7.84229V6.92188C36.7617 6.27441 36.8464 5.68831 37.0156 5.16357C37.1891 4.6346 37.4367 4.1818 37.7583 3.80518C38.0841 3.42855 38.4756 3.13867 38.9326 2.93555C39.3896 2.73242 39.9038 2.63086 40.4751 2.63086C41.1733 2.63086 41.7637 2.76204 42.2461 3.02441C42.7285 3.28678 43.103 3.65072 43.3696 4.11621C43.6405 4.57747 43.8076 5.11279 43.8711 5.72217H42.6523C42.5931 5.29053 42.4831 4.92025 42.3223 4.61133C42.1615 4.29818 41.9329 4.05697 41.6367 3.8877C41.3405 3.71842 40.9533 3.63379 40.4751 3.63379C40.0646 3.63379 39.7028 3.71208 39.3896 3.86865C39.0807 4.02523 38.8205 4.2474 38.6089 4.53516C38.4015 4.82292 38.245 5.16781 38.1392 5.56982C38.0334 5.97184 37.9805 6.41829 37.9805 6.90918V7.84229C37.9805 8.29508 38.027 8.72038 38.1201 9.11816C38.2174 9.51595 38.3634 9.86507 38.5581 10.1655C38.7528 10.466 39.0003 10.703 39.3008 10.8765C39.6012 11.0457 39.9567 11.1304 40.3672 11.1304C40.8877 11.1304 41.3024 11.0479 41.6113 10.8828C41.9202 10.7178 42.153 10.4808 42.3096 10.1719C42.4704 9.86296 42.5846 9.49268 42.6523 9.06104ZM46.6387 5.13184V12H45.4644V5.13184H46.6387ZM51.1455 5.13184L47.8892 9.06738H46.2451L46.0674 8.03906H47.4131L49.7173 5.13184H51.1455ZM49.8823 12L47.356 8.88965L48.1113 8.03906L51.374 12H49.8823ZM53.6655 10.1401L56.833 5.13184H58.0137V12H56.833V6.9917L53.6655 12H52.4976V5.13184H53.6655V10.1401ZM61.1367 5.13184H62.311L62.2095 7.70264C62.1841 8.35433 62.11 8.91715 61.9873 9.39111C61.8646 9.86507 61.708 10.2692 61.5176 10.6035C61.3271 10.9336 61.1134 11.2108 60.8765 11.4351C60.6437 11.6593 60.4025 11.8477 60.1528 12H59.5688L59.6006 11.0415L59.8418 11.0352C59.9814 10.8701 60.1169 10.7008 60.248 10.5273C60.3792 10.3496 60.4998 10.1401 60.6099 9.89893C60.7199 9.65348 60.8109 9.35514 60.8828 9.00391C60.959 8.64844 61.0076 8.21468 61.0288 7.70264L61.1367 5.13184ZM61.4287 5.13184H65.561V12H64.3867V6.21729H61.4287V5.13184ZM59.3022 11.0352H66.4434V14.0249H65.269V12H60.4766V14.0249H59.2959L59.3022 11.0352ZM69.0205 5.13184V12H67.8462V5.13184H69.0205ZM73.5273 5.13184L70.271 9.06738H68.627L68.4492 8.03906H69.7949L72.0991 5.13184H73.5273ZM72.2642 12L69.7378 8.88965L70.4932 8.03906L73.7559 12H72.2642ZM78.8276 10.8257V7.29004C78.8276 7.01921 78.7726 6.78434 78.6626 6.58545C78.5568 6.38232 78.396 6.22575 78.1802 6.11572C77.9644 6.0057 77.6978 5.95068 77.3804 5.95068C77.0841 5.95068 76.8239 6.00146 76.5996 6.10303C76.3796 6.20459 76.2061 6.33789 76.0791 6.50293C75.9564 6.66797 75.895 6.8457 75.895 7.03613H74.7207C74.7207 6.79069 74.7842 6.54736 74.9111 6.30615C75.0381 6.06494 75.2201 5.84701 75.457 5.65234C75.6982 5.45345 75.986 5.29688 76.3203 5.18262C76.6589 5.06413 77.0355 5.00488 77.4502 5.00488C77.9495 5.00488 78.3896 5.08952 78.7705 5.25879C79.1556 5.42806 79.4561 5.68408 79.6719 6.02686C79.8919 6.3654 80.002 6.79069 80.002 7.30273V10.502C80.002 10.7305 80.021 10.9738 80.0591 11.2319C80.1014 11.4901 80.1628 11.7122 80.2432 11.8984V12H79.0181C78.9588 11.8646 78.9123 11.6847 78.8784 11.4604C78.8446 11.2319 78.8276 11.0203 78.8276 10.8257ZM79.0308 7.83594L79.0435 8.66113H77.8564C77.5221 8.66113 77.2238 8.68864 76.9614 8.74365C76.6991 8.79443 76.479 8.87272 76.3013 8.97852C76.1235 9.08431 75.9881 9.21761 75.895 9.37842C75.8019 9.53499 75.7554 9.71908 75.7554 9.93066C75.7554 10.1465 75.804 10.3433 75.9014 10.521C75.9987 10.6987 76.1447 10.8405 76.3394 10.9463C76.5382 11.0479 76.7816 11.0986 77.0693 11.0986C77.429 11.0986 77.7464 11.0225 78.0215 10.8701C78.2965 10.7178 78.5145 10.5316 78.6753 10.3115C78.8403 10.0915 78.9292 9.87777 78.9419 9.67041L79.4434 10.2354C79.4137 10.4131 79.3333 10.6099 79.2021 10.8257C79.071 11.0415 78.8953 11.2489 78.6753 11.4478C78.4595 11.6424 78.2013 11.8053 77.9009 11.9365C77.6047 12.0635 77.2703 12.127 76.8979 12.127C76.4325 12.127 76.0241 12.036 75.6729 11.854C75.3258 11.672 75.055 11.4287 74.8604 11.124C74.6699 10.8151 74.5747 10.4702 74.5747 10.0894C74.5747 9.72119 74.6466 9.39746 74.7905 9.11816C74.9344 8.83464 75.1418 8.59977 75.4126 8.41357C75.6834 8.22314 76.0093 8.07926 76.3901 7.98193C76.771 7.8846 77.1963 7.83594 77.666 7.83594H79.0308ZM89.6504 5.13184V6.10303H86.1782V5.13184H89.6504ZM86.3496 5.13184V12H85.1753V5.13184H86.3496ZM90.6914 5.13184V12H89.5107V5.13184H90.6914ZM93.751 6.45215V14.6406H92.5703V5.13184H93.6494L93.751 6.45215ZM98.3784 8.50879V8.64209C98.3784 9.14144 98.3192 9.60482 98.2007 10.0322C98.0822 10.4554 97.9087 10.8236 97.6802 11.1367C97.4559 11.4499 97.1787 11.6932 96.8486 11.8667C96.5186 12.0402 96.1398 12.127 95.7124 12.127C95.2765 12.127 94.8914 12.055 94.5571 11.9111C94.2228 11.7673 93.9393 11.5578 93.7065 11.2827C93.4738 11.0076 93.2876 10.6776 93.1479 10.2925C93.0125 9.90739 92.9194 9.47363 92.8687 8.99121V8.28027C92.9194 7.77246 93.0146 7.31755 93.1543 6.91553C93.2939 6.51351 93.478 6.17074 93.7065 5.88721C93.9393 5.59945 94.2207 5.38151 94.5508 5.2334C94.8809 5.08105 95.2617 5.00488 95.6934 5.00488C96.125 5.00488 96.508 5.08952 96.8423 5.25879C97.1766 5.42383 97.458 5.66081 97.6865 5.96973C97.915 6.27865 98.0864 6.64893 98.2007 7.08057C98.3192 7.50798 98.3784 7.98405 98.3784 8.50879ZM97.1978 8.64209V8.50879C97.1978 8.16602 97.1618 7.8444 97.0898 7.54395C97.0179 7.23926 96.9058 6.97266 96.7534 6.74414C96.6053 6.51139 96.4149 6.32943 96.1821 6.19824C95.9494 6.06283 95.6722 5.99512 95.3506 5.99512C95.0544 5.99512 94.7962 6.0459 94.5762 6.14746C94.3604 6.24902 94.1763 6.38656 94.0239 6.56006C93.8716 6.72933 93.7467 6.92399 93.6494 7.14404C93.5563 7.35986 93.4865 7.58415 93.4399 7.81689V9.46094C93.5246 9.75716 93.6431 10.0365 93.7954 10.2988C93.9478 10.557 94.1509 10.7664 94.4048 10.9272C94.6587 11.0838 94.9782 11.1621 95.3633 11.1621C95.6807 11.1621 95.9536 11.0965 96.1821 10.9653C96.4149 10.8299 96.6053 10.6458 96.7534 10.4131C96.9058 10.1803 97.0179 9.91374 97.0898 9.61328C97.1618 9.30859 97.1978 8.98486 97.1978 8.64209ZM101.146 10.1401L104.313 5.13184H105.494V12H104.313V6.9917L101.146 12H99.978V5.13184H101.146V10.1401ZM36.584 24.6421V24.4961C36.584 24.001 36.6559 23.5418 36.7998 23.1187C36.9437 22.6912 37.151 22.321 37.4219 22.0078C37.6927 21.6904 38.0207 21.445 38.4058 21.2715C38.7909 21.0938 39.2225 21.0049 39.7007 21.0049C40.1831 21.0049 40.6169 21.0938 41.002 21.2715C41.3913 21.445 41.7214 21.6904 41.9922 22.0078C42.2673 22.321 42.4767 22.6912 42.6206 23.1187C42.7645 23.5418 42.8364 24.001 42.8364 24.4961V24.6421C42.8364 25.1372 42.7645 25.5964 42.6206 26.0195C42.4767 26.4427 42.2673 26.813 41.9922 27.1304C41.7214 27.4435 41.3934 27.689 41.0083 27.8667C40.6274 28.0402 40.1958 28.127 39.7134 28.127C39.231 28.127 38.7972 28.0402 38.4121 27.8667C38.027 27.689 37.6969 27.4435 37.4219 27.1304C37.151 26.813 36.9437 26.4427 36.7998 26.0195C36.6559 25.5964 36.584 25.1372 36.584 24.6421ZM37.7583 24.4961V24.6421C37.7583 24.9849 37.7985 25.3086 37.8789 25.6133C37.9593 25.9137 38.0799 26.1803 38.2407 26.4131C38.4058 26.6458 38.611 26.8299 38.8564 26.9653C39.1019 27.0965 39.3875 27.1621 39.7134 27.1621C40.035 27.1621 40.3164 27.0965 40.5576 26.9653C40.8031 26.8299 41.0062 26.6458 41.167 26.4131C41.3278 26.1803 41.4484 25.9137 41.5288 25.6133C41.6134 25.3086 41.6558 24.9849 41.6558 24.6421V24.4961C41.6558 24.1576 41.6134 23.8381 41.5288 23.5376C41.4484 23.2329 41.3257 22.9642 41.1606 22.7314C40.9998 22.4945 40.7967 22.3083 40.5513 22.1729C40.3101 22.0374 40.0265 21.9697 39.7007 21.9697C39.3791 21.9697 39.0955 22.0374 38.8501 22.1729C38.6089 22.3083 38.4058 22.4945 38.2407 22.7314C38.0799 22.9642 37.9593 23.2329 37.8789 23.5376C37.7985 23.8381 37.7583 24.1576 37.7583 24.4961ZM48.8857 21.1318V22.103H45.4136V21.1318H48.8857ZM45.585 21.1318V28H44.4106V21.1318H45.585ZM49.9268 21.1318V28H48.7461V21.1318H49.9268ZM56.4014 21.1318V22.103H53.0815V21.1318H56.4014ZM57.436 21.1318V28H56.2617V21.1318H57.436ZM52.7959 21.1318H53.9766L53.7988 24.4453C53.7692 24.9574 53.7205 25.4102 53.6528 25.8037C53.5894 26.193 53.5005 26.5273 53.3862 26.8066C53.2762 27.0859 53.1366 27.3145 52.9673 27.4922C52.8022 27.6657 52.6034 27.7948 52.3706 27.8794C52.1379 27.9598 51.8691 28 51.5645 28H51.1963V26.9653L51.4502 26.9463C51.6322 26.9336 51.7866 26.8913 51.9136 26.8193C52.0448 26.7474 52.1548 26.6416 52.2437 26.502C52.3325 26.3581 52.4045 26.174 52.4595 25.9497C52.5187 25.7254 52.5632 25.4588 52.5928 25.1499C52.6266 24.841 52.652 24.4813 52.6689 24.0708L52.7959 21.1318ZM63.3774 26.8257V23.29C63.3774 23.0192 63.3224 22.7843 63.2124 22.5854C63.1066 22.3823 62.9458 22.2257 62.73 22.1157C62.5142 22.0057 62.2476 21.9507 61.9302 21.9507C61.634 21.9507 61.3737 22.0015 61.1494 22.103C60.9294 22.2046 60.7559 22.3379 60.6289 22.5029C60.5062 22.668 60.4448 22.8457 60.4448 23.0361H59.2705C59.2705 22.7907 59.334 22.5474 59.4609 22.3062C59.5879 22.0649 59.7699 21.847 60.0068 21.6523C60.248 21.4535 60.5358 21.2969 60.8701 21.1826C61.2087 21.0641 61.5853 21.0049 62 21.0049C62.4993 21.0049 62.9395 21.0895 63.3203 21.2588C63.7054 21.4281 64.0059 21.6841 64.2217 22.0269C64.4417 22.3654 64.5518 22.7907 64.5518 23.3027V26.502C64.5518 26.7305 64.5708 26.9738 64.6089 27.2319C64.6512 27.4901 64.7126 27.7122 64.793 27.8984V28H63.5679C63.5086 27.8646 63.4621 27.6847 63.4282 27.4604C63.3944 27.2319 63.3774 27.0203 63.3774 26.8257ZM63.5806 23.8359L63.5933 24.6611H62.4062C62.0719 24.6611 61.7736 24.6886 61.5112 24.7437C61.2489 24.7944 61.0288 24.8727 60.8511 24.9785C60.6733 25.0843 60.5379 25.2176 60.4448 25.3784C60.3517 25.535 60.3052 25.7191 60.3052 25.9307C60.3052 26.1465 60.3538 26.3433 60.4512 26.521C60.5485 26.6987 60.6945 26.8405 60.8892 26.9463C61.0881 27.0479 61.3314 27.0986 61.6191 27.0986C61.9788 27.0986 62.2962 27.0225 62.5713 26.8701C62.8464 26.7178 63.0643 26.5316 63.2251 26.3115C63.3901 26.0915 63.479 25.8778 63.4917 25.6704L63.9932 26.2354C63.9635 26.4131 63.8831 26.6099 63.752 26.8257C63.6208 27.0415 63.4451 27.2489 63.2251 27.4478C63.0093 27.6424 62.7511 27.8053 62.4507 27.9365C62.1545 28.0635 61.8201 28.127 61.4478 28.127C60.9823 28.127 60.5739 28.036 60.2227 27.854C59.8757 27.672 59.6048 27.4287 59.4102 27.124C59.2197 26.8151 59.1245 26.4702 59.1245 26.0894C59.1245 25.7212 59.1965 25.3975 59.3403 25.1182C59.4842 24.8346 59.6916 24.5998 59.9624 24.4136C60.2332 24.2231 60.5591 24.0793 60.9399 23.9819C61.3208 23.8846 61.7461 23.8359 62.2158 23.8359H63.5806ZM69.0967 21.1318V28H67.916V21.1318H69.0967ZM71.4009 21.1318V22.084H65.6562V21.1318H71.4009ZM74.8984 28.127C74.4202 28.127 73.9865 28.0465 73.5972 27.8857C73.2121 27.7207 72.8799 27.4901 72.6006 27.1938C72.3255 26.8976 72.1139 26.5464 71.9658 26.1401C71.8177 25.7339 71.7437 25.2896 71.7437 24.8071V24.5405C71.7437 23.9819 71.8262 23.4847 71.9912 23.0488C72.1562 22.6087 72.3805 22.2363 72.6641 21.9316C72.9476 21.627 73.2692 21.3963 73.6289 21.2397C73.9886 21.0832 74.361 21.0049 74.7461 21.0049C75.237 21.0049 75.6602 21.0895 76.0156 21.2588C76.3753 21.4281 76.6694 21.665 76.8979 21.9697C77.1265 22.2702 77.2957 22.6257 77.4058 23.0361C77.5158 23.4424 77.5708 23.8867 77.5708 24.3691V24.896H72.4419V23.9375H76.3965V23.8486C76.3796 23.5439 76.3161 23.2477 76.2061 22.96C76.1003 22.6722 75.931 22.4352 75.6982 22.249C75.4655 22.0628 75.1481 21.9697 74.7461 21.9697C74.4795 21.9697 74.234 22.0269 74.0098 22.1411C73.7855 22.2511 73.5929 22.4162 73.4321 22.6362C73.2713 22.8563 73.1465 23.125 73.0576 23.4424C72.9688 23.7598 72.9243 24.1258 72.9243 24.5405V24.8071C72.9243 25.133 72.9688 25.4398 73.0576 25.7275C73.1507 26.0111 73.284 26.2607 73.4575 26.4766C73.6353 26.6924 73.849 26.8617 74.0986 26.9844C74.3525 27.1071 74.6403 27.1685 74.9619 27.1685C75.3766 27.1685 75.7279 27.0838 76.0156 26.9146C76.3034 26.7453 76.5552 26.5189 76.771 26.2354L77.4819 26.8003C77.3338 27.0246 77.1455 27.2383 76.917 27.4414C76.6885 27.6445 76.4071 27.8096 76.0728 27.9365C75.7427 28.0635 75.3512 28.127 74.8984 28.127ZM86.8257 24.1089V25.061H83.1948V24.1089H86.8257ZM83.4424 21.1318V28H82.2681V21.1318H83.4424ZM87.7778 21.1318V28H86.5972V21.1318H87.7778ZM93.7192 26.8257V23.29C93.7192 23.0192 93.6642 22.7843 93.5542 22.5854C93.4484 22.3823 93.2876 22.2257 93.0718 22.1157C92.856 22.0057 92.5894 21.9507 92.272 21.9507C91.9757 21.9507 91.7155 22.0015 91.4912 22.103C91.2712 22.2046 91.0977 22.3379 90.9707 22.5029C90.848 22.668 90.7866 22.8457 90.7866 23.0361H89.6123C89.6123 22.7907 89.6758 22.5474 89.8027 22.3062C89.9297 22.0649 90.1117 21.847 90.3486 21.6523C90.5898 21.4535 90.8776 21.2969 91.2119 21.1826C91.5505 21.0641 91.9271 21.0049 92.3418 21.0049C92.8411 21.0049 93.2812 21.0895 93.6621 21.2588C94.0472 21.4281 94.3477 21.6841 94.5635 22.0269C94.7835 22.3654 94.8936 22.7907 94.8936 23.3027V26.502C94.8936 26.7305 94.9126 26.9738 94.9507 27.2319C94.993 27.4901 95.0544 27.7122 95.1348 27.8984V28H93.9097C93.8504 27.8646 93.8039 27.6847 93.77 27.4604C93.7362 27.2319 93.7192 27.0203 93.7192 26.8257ZM93.9224 23.8359L93.9351 24.6611H92.748C92.4137 24.6611 92.1154 24.6886 91.853 24.7437C91.5907 24.7944 91.3706 24.8727 91.1929 24.9785C91.0151 25.0843 90.8797 25.2176 90.7866 25.3784C90.6935 25.535 90.647 25.7191 90.647 25.9307C90.647 26.1465 90.6956 26.3433 90.793 26.521C90.8903 26.6987 91.0363 26.8405 91.231 26.9463C91.4299 27.0479 91.6732 27.0986 91.9609 27.0986C92.3206 27.0986 92.638 27.0225 92.9131 26.8701C93.1882 26.7178 93.4061 26.5316 93.5669 26.3115C93.7319 26.0915 93.8208 25.8778 93.8335 25.6704L94.335 26.2354C94.3053 26.4131 94.2249 26.6099 94.0938 26.8257C93.9626 27.0415 93.7869 27.2489 93.5669 27.4478C93.3511 27.6424 93.0929 27.8053 92.7925 27.9365C92.4963 28.0635 92.1619 28.127 91.7896 28.127C91.3241 28.127 90.9157 28.036 90.5645 27.854C90.2174 27.672 89.9466 27.4287 89.752 27.124C89.5615 26.8151 89.4663 26.4702 89.4663 26.0894C89.4663 25.7212 89.5382 25.3975 89.6821 25.1182C89.826 24.8346 90.0334 24.5998 90.3042 24.4136C90.575 24.2231 90.9009 24.0793 91.2817 23.9819C91.6626 23.8846 92.0879 23.8359 92.5576 23.8359H93.9224ZM102.714 27.1621C102.993 27.1621 103.251 27.105 103.488 26.9907C103.725 26.8765 103.92 26.7199 104.072 26.521C104.225 26.3179 104.311 26.0872 104.333 25.8291H105.45C105.429 26.2354 105.291 26.6141 105.037 26.9653C104.787 27.3123 104.459 27.5938 104.053 27.8096C103.647 28.0212 103.201 28.127 102.714 28.127C102.198 28.127 101.747 28.036 101.362 27.854C100.981 27.672 100.664 27.4224 100.41 27.105C100.16 26.7876 99.9717 26.4237 99.8447 26.0132C99.722 25.5985 99.6606 25.1605 99.6606 24.6992V24.4326C99.6606 23.9714 99.722 23.5355 99.8447 23.125C99.9717 22.7103 100.16 22.3442 100.41 22.0269C100.664 21.7095 100.981 21.4598 101.362 21.2778C101.747 21.0959 102.198 21.0049 102.714 21.0049C103.251 21.0049 103.721 21.1149 104.123 21.335C104.525 21.5508 104.84 21.847 105.069 22.2236C105.302 22.596 105.429 23.0192 105.45 23.4932H104.333C104.311 23.2096 104.231 22.9536 104.091 22.7251C103.956 22.4966 103.77 22.3146 103.533 22.1792C103.3 22.0396 103.027 21.9697 102.714 21.9697C102.354 21.9697 102.052 22.0417 101.806 22.1855C101.565 22.3252 101.372 22.5156 101.229 22.7568C101.089 22.9938 100.987 23.2583 100.924 23.5503C100.865 23.8381 100.835 24.1322 100.835 24.4326V24.6992C100.835 24.9997 100.865 25.2959 100.924 25.5879C100.983 25.8799 101.083 26.1444 101.222 26.3813C101.366 26.6183 101.559 26.8088 101.8 26.9526C102.045 27.0923 102.35 27.1621 102.714 27.1621ZM110.82 26.8257V23.29C110.82 23.0192 110.765 22.7843 110.655 22.5854C110.549 22.3823 110.388 22.2257 110.172 22.1157C109.957 22.0057 109.69 21.9507 109.373 21.9507C109.076 21.9507 108.816 22.0015 108.592 22.103C108.372 22.2046 108.198 22.3379 108.071 22.5029C107.949 22.668 107.887 22.8457 107.887 23.0361H106.713C106.713 22.7907 106.776 22.5474 106.903 22.3062C107.03 22.0649 107.212 21.847 107.449 21.6523C107.69 21.4535 107.978 21.2969 108.312 21.1826C108.651 21.0641 109.028 21.0049 109.442 21.0049C109.942 21.0049 110.382 21.0895 110.763 21.2588C111.148 21.4281 111.448 21.6841 111.664 22.0269C111.884 22.3654 111.994 22.7907 111.994 23.3027V26.502C111.994 26.7305 112.013 26.9738 112.051 27.2319C112.094 27.4901 112.155 27.7122 112.235 27.8984V28H111.01C110.951 27.8646 110.904 27.6847 110.871 27.4604C110.837 27.2319 110.82 27.0203 110.82 26.8257ZM111.023 23.8359L111.036 24.6611H109.849C109.514 24.6611 109.216 24.6886 108.954 24.7437C108.691 24.7944 108.471 24.8727 108.293 24.9785C108.116 25.0843 107.98 25.2176 107.887 25.3784C107.794 25.535 107.748 25.7191 107.748 25.9307C107.748 26.1465 107.796 26.3433 107.894 26.521C107.991 26.6987 108.137 26.8405 108.332 26.9463C108.53 27.0479 108.774 27.0986 109.062 27.0986C109.421 27.0986 109.739 27.0225 110.014 26.8701C110.289 26.7178 110.507 26.5316 110.667 26.3115C110.833 26.0915 110.921 25.8778 110.934 25.6704L111.436 26.2354C111.406 26.4131 111.326 26.6099 111.194 26.8257C111.063 27.0415 110.888 27.2489 110.667 27.4478C110.452 27.6424 110.194 27.8053 109.893 27.9365C109.597 28.0635 109.263 28.127 108.89 28.127C108.425 28.127 108.016 28.036 107.665 27.854C107.318 27.672 107.047 27.4287 106.853 27.124C106.662 26.8151 106.567 26.4702 106.567 26.0894C106.567 25.7212 106.639 25.3975 106.783 25.1182C106.927 24.8346 107.134 24.5998 107.405 24.4136C107.676 24.2231 108.001 24.0793 108.382 23.9819C108.763 23.8846 109.188 23.8359 109.658 23.8359H111.023ZM115.111 26.1401L118.278 21.1318H119.459V28H118.278V22.9917L115.111 28H113.943V21.1318H115.111V26.1401ZM117.637 18.6436H118.589C118.589 18.9736 118.513 19.2677 118.361 19.5259C118.208 19.7798 117.991 19.9787 117.707 20.1226C117.424 20.2664 117.087 20.3384 116.698 20.3384C116.11 20.3384 115.644 20.1818 115.301 19.8687C114.963 19.5513 114.793 19.1429 114.793 18.6436H115.746C115.746 18.8932 115.818 19.1133 115.961 19.3037C116.105 19.4941 116.351 19.5894 116.698 19.5894C117.036 19.5894 117.278 19.4941 117.421 19.3037C117.565 19.1133 117.637 18.8932 117.637 18.6436ZM124.144 21.1318V28H122.963V21.1318H124.144ZM126.448 21.1318V22.084H120.703V21.1318H126.448ZM129.945 28.127C129.467 28.127 129.033 28.0465 128.644 27.8857C128.259 27.7207 127.927 27.4901 127.647 27.1938C127.372 26.8976 127.161 26.5464 127.013 26.1401C126.865 25.7339 126.791 25.2896 126.791 24.8071V24.5405C126.791 23.9819 126.873 23.4847 127.038 23.0488C127.203 22.6087 127.427 22.2363 127.711 21.9316C127.994 21.627 128.316 21.3963 128.676 21.2397C129.035 21.0832 129.408 21.0049 129.793 21.0049C130.284 21.0049 130.707 21.0895 131.062 21.2588C131.422 21.4281 131.716 21.665 131.945 21.9697C132.173 22.2702 132.343 22.6257 132.453 23.0361C132.563 23.4424 132.618 23.8867 132.618 24.3691V24.896H127.489V23.9375H131.443V23.8486C131.426 23.5439 131.363 23.2477 131.253 22.96C131.147 22.6722 130.978 22.4352 130.745 22.249C130.512 22.0628 130.195 21.9697 129.793 21.9697C129.526 21.9697 129.281 22.0269 129.057 22.1411C128.832 22.2511 128.64 22.4162 128.479 22.6362C128.318 22.8563 128.193 23.125 128.104 23.4424C128.016 23.7598 127.971 24.1258 127.971 24.5405V24.8071C127.971 25.133 128.016 25.4398 128.104 25.7275C128.198 26.0111 128.331 26.2607 128.504 26.4766C128.682 26.6924 128.896 26.8617 129.146 26.9844C129.399 27.1071 129.687 27.1685 130.009 27.1685C130.424 27.1685 130.775 27.0838 131.062 26.9146C131.35 26.7453 131.602 26.5189 131.818 26.2354L132.529 26.8003C132.381 27.0246 132.192 27.2383 131.964 27.4414C131.735 27.6445 131.454 27.8096 131.12 27.9365C130.79 28.0635 130.398 28.127 129.945 28.127Z" fill="#808080"/>
<g clip-path="url(#clip0_10740_7522)">
<rect x="1" y="5" width="20" height="15" rx="2" fill="#FBE8BB"/>
<path d="M3.5 11.3333H24.5" stroke="#292929" stroke-width="1.2" stroke-linecap="round" stroke-linejoin="round"/>
<path d="M8.16675 17.0615H11.6667" stroke="#FD9339" stroke-width="1.2" stroke-linecap="round" stroke-linejoin="round"/>
<path d="M11.6667 21.8334H5.83333C4.54417 21.8334 3.5 20.7892 3.5 19.5V9.00004C3.5 7.71088 4.54417 6.66671 5.83333 6.66671H22.1667C23.4558 6.66671 24.5 7.71088 24.5 9.00004V14.8334" stroke="#292929" stroke-width="1.2" stroke-linecap="round" stroke-linejoin="round"/>
<path d="M18.655 21.8006L16.3217 24.134L18.655 26.4673" stroke="#292929" stroke-width="1.2" stroke-linecap="round" stroke-linejoin="round"/>
<path d="M21 19.5H22.1667C23.4559 19.5 24.5 20.5442 24.5 21.8333C24.5 23.1225 23.4559 24.1667 22.1667 24.1667H21.595H22.1667H16.3217" stroke="#292929" stroke-width="1.2" stroke-linecap="round" stroke-linejoin="round"/>
</g>
<defs>
<clipPath id="clip0_10740_7522">
<rect width="28" height="28" fill="white" transform="translate(0 2)"/>
</clipPath>
</defs>
</svg>
