<svg width="116" height="32" viewBox="0 0 116 32" fill="none" xmlns="http://www.w3.org/2000/svg">
<path d="M39.9038 7.56299H38.8057V6.78223H39.8594C40.3249 6.78223 40.7015 6.71663 40.9893 6.58545C41.277 6.45426 41.4865 6.2723 41.6177 6.03955C41.7489 5.8068 41.8145 5.53809 41.8145 5.2334C41.8145 4.94141 41.7425 4.6748 41.5986 4.43359C41.4548 4.18815 41.2326 3.99349 40.9321 3.84961C40.6317 3.7015 40.2445 3.62744 39.7705 3.62744C39.415 3.62744 39.0934 3.69515 38.8057 3.83057C38.5179 3.96175 38.2894 4.14583 38.1201 4.38281C37.9508 4.61556 37.8662 4.88428 37.8662 5.18896H36.6411C36.6411 4.79541 36.7236 4.44206 36.8887 4.12891C37.0537 3.81152 37.2801 3.54281 37.5679 3.32275C37.8556 3.09847 38.1878 2.92708 38.5645 2.80859C38.9453 2.6901 39.3473 2.63086 39.7705 2.63086C40.2656 2.63086 40.7142 2.68799 41.1162 2.80225C41.5182 2.91227 41.8631 3.07731 42.1509 3.29736C42.4386 3.51742 42.6587 3.79036 42.811 4.11621C42.9634 4.44206 43.0396 4.8208 43.0396 5.25244C43.0396 5.56982 42.9655 5.86816 42.8174 6.14746C42.6693 6.42676 42.4577 6.6722 42.1826 6.88379C41.9076 7.09538 41.5775 7.26253 41.1924 7.38525C40.8073 7.50374 40.3778 7.56299 39.9038 7.56299ZM38.8057 7.02344H39.9038C40.4243 7.02344 40.8877 7.07633 41.2939 7.18213C41.7002 7.28792 42.043 7.44238 42.3223 7.64551C42.6016 7.84863 42.8132 8.10042 42.957 8.40088C43.1051 8.6971 43.1792 9.03776 43.1792 9.42285C43.1792 9.85449 43.0946 10.2375 42.9253 10.5718C42.7603 10.9061 42.5254 11.1896 42.2207 11.4224C41.916 11.6551 41.5542 11.8307 41.1353 11.9492C40.7205 12.0677 40.2656 12.127 39.7705 12.127C39.3727 12.127 38.9792 12.0762 38.5898 11.9746C38.2048 11.8688 37.8556 11.708 37.5425 11.4922C37.2293 11.2721 36.9775 10.9928 36.7871 10.6543C36.6009 10.3158 36.5078 9.90951 36.5078 9.43555H37.7329C37.7329 9.74447 37.8175 10.028 37.9868 10.2861C38.1603 10.5443 38.3994 10.7516 38.7041 10.9082C39.0088 11.0605 39.3643 11.1367 39.7705 11.1367C40.236 11.1367 40.6296 11.0648 40.9512 10.9209C41.277 10.7728 41.5246 10.5718 41.6938 10.3179C41.8674 10.0597 41.9541 9.76986 41.9541 9.44824C41.9541 9.16471 41.9076 8.91927 41.8145 8.71191C41.7256 8.50033 41.5923 8.32682 41.4146 8.19141C41.241 8.05599 41.0231 7.95654 40.7607 7.89307C40.5026 7.82536 40.2021 7.7915 39.8594 7.7915H38.8057V7.02344ZM48.6636 10.8257V7.29004C48.6636 7.01921 48.6086 6.78434 48.4985 6.58545C48.3927 6.38232 48.2319 6.22575 48.0161 6.11572C47.8003 6.0057 47.5337 5.95068 47.2163 5.95068C46.9201 5.95068 46.6598 6.00146 46.4355 6.10303C46.2155 6.20459 46.042 6.33789 45.915 6.50293C45.7923 6.66797 45.731 6.8457 45.731 7.03613H44.5566C44.5566 6.79069 44.6201 6.54736 44.7471 6.30615C44.874 6.06494 45.056 5.84701 45.293 5.65234C45.5342 5.45345 45.8219 5.29688 46.1562 5.18262C46.4948 5.06413 46.8714 5.00488 47.2861 5.00488C47.7855 5.00488 48.2256 5.08952 48.6064 5.25879C48.9915 5.42806 49.292 5.68408 49.5078 6.02686C49.7279 6.3654 49.8379 6.79069 49.8379 7.30273V10.502C49.8379 10.7305 49.8569 10.9738 49.895 11.2319C49.9373 11.4901 49.9987 11.7122 50.0791 11.8984V12H48.854C48.7948 11.8646 48.7482 11.6847 48.7144 11.4604C48.6805 11.2319 48.6636 11.0203 48.6636 10.8257ZM48.8667 7.83594L48.8794 8.66113H47.6924C47.3581 8.66113 47.0597 8.68864 46.7974 8.74365C46.535 8.79443 46.3149 8.87272 46.1372 8.97852C45.9595 9.08431 45.8241 9.21761 45.731 9.37842C45.6379 9.53499 45.5913 9.71908 45.5913 9.93066C45.5913 10.1465 45.64 10.3433 45.7373 10.521C45.8346 10.6987 45.9806 10.8405 46.1753 10.9463C46.3742 11.0479 46.6175 11.0986 46.9053 11.0986C47.265 11.0986 47.5824 11.0225 47.8574 10.8701C48.1325 10.7178 48.3504 10.5316 48.5112 10.3115C48.6763 10.0915 48.7651 9.87777 48.7778 9.67041L49.2793 10.2354C49.2497 10.4131 49.1693 10.6099 49.0381 10.8257C48.9069 11.0415 48.7313 11.2489 48.5112 11.4478C48.2954 11.6424 48.0373 11.8053 47.7368 11.9365C47.4406 12.0635 47.1063 12.127 46.7339 12.127C46.2684 12.127 45.86 12.036 45.5088 11.854C45.1618 11.672 44.891 11.4287 44.6963 11.124C44.5059 10.8151 44.4106 10.4702 44.4106 10.0894C44.4106 9.72119 44.4826 9.39746 44.6265 9.11816C44.7703 8.83464 44.9777 8.59977 45.2485 8.41357C45.5194 8.22314 45.8452 8.07926 46.2261 7.98193C46.6069 7.8846 47.0322 7.83594 47.502 7.83594H48.8667ZM61.2319 11.0352L61.1177 14.0376H60.0703V12H59.1753V11.0352H61.2319ZM51.7168 5.13184H52.8911V11.0352H55.4048V5.13184H56.5854V11.0352H59.0928V5.13184H60.2671V12H51.7168V5.13184ZM63.7202 10.1401L66.8877 5.13184H68.0684V12H66.8877V6.9917L63.7202 12H62.5522V5.13184H63.7202V10.1401ZM72.7529 5.13184V12H71.5723V5.13184H72.7529ZM75.0571 5.13184V6.08398H69.3125V5.13184H75.0571ZM80.1606 10.8257V7.29004C80.1606 7.01921 80.1056 6.78434 79.9956 6.58545C79.8898 6.38232 79.729 6.22575 79.5132 6.11572C79.2974 6.0057 79.0308 5.95068 78.7134 5.95068C78.4172 5.95068 78.1569 6.00146 77.9326 6.10303C77.7126 6.20459 77.5391 6.33789 77.4121 6.50293C77.2894 6.66797 77.228 6.8457 77.228 7.03613H76.0537C76.0537 6.79069 76.1172 6.54736 76.2441 6.30615C76.3711 6.06494 76.5531 5.84701 76.79 5.65234C77.0312 5.45345 77.319 5.29688 77.6533 5.18262C77.9919 5.06413 78.3685 5.00488 78.7832 5.00488C79.2826 5.00488 79.7227 5.08952 80.1035 5.25879C80.4886 5.42806 80.7891 5.68408 81.0049 6.02686C81.2249 6.3654 81.335 6.79069 81.335 7.30273V10.502C81.335 10.7305 81.354 10.9738 81.3921 11.2319C81.4344 11.4901 81.4958 11.7122 81.5762 11.8984V12H80.3511C80.2918 11.8646 80.2453 11.6847 80.2114 11.4604C80.1776 11.2319 80.1606 11.0203 80.1606 10.8257ZM80.3638 7.83594L80.3765 8.66113H79.1895C78.8551 8.66113 78.5568 8.68864 78.2944 8.74365C78.0321 8.79443 77.812 8.87272 77.6343 8.97852C77.4565 9.08431 77.3211 9.21761 77.228 9.37842C77.1349 9.53499 77.0884 9.71908 77.0884 9.93066C77.0884 10.1465 77.137 10.3433 77.2344 10.521C77.3317 10.6987 77.4777 10.8405 77.6724 10.9463C77.8713 11.0479 78.1146 11.0986 78.4023 11.0986C78.762 11.0986 79.0794 11.0225 79.3545 10.8701C79.6296 10.7178 79.8475 10.5316 80.0083 10.3115C80.1733 10.0915 80.2622 9.87777 80.2749 9.67041L80.7764 10.2354C80.7467 10.4131 80.6663 10.6099 80.5352 10.8257C80.404 11.0415 80.2284 11.2489 80.0083 11.4478C79.7925 11.6424 79.5343 11.8053 79.2339 11.9365C78.9377 12.0635 78.6034 12.127 78.231 12.127C77.7655 12.127 77.3571 12.036 77.0059 11.854C76.6589 11.672 76.388 11.4287 76.1934 11.124C76.0029 10.8151 75.9077 10.4702 75.9077 10.0894C75.9077 9.72119 75.9797 9.39746 76.1235 9.11816C76.2674 8.83464 76.4748 8.59977 76.7456 8.41357C77.0164 8.22314 77.3423 8.07926 77.7231 7.98193C78.104 7.8846 78.5293 7.83594 78.999 7.83594H80.3638ZM41.4717 21.1318V22.103H37.9995V21.1318H41.4717ZM38.1709 21.1318V28H36.9966V21.1318H38.1709ZM42.5127 21.1318V28H41.332V21.1318H42.5127ZM44.0869 24.6421V24.4961C44.0869 24.001 44.1589 23.5418 44.3027 23.1187C44.4466 22.6912 44.654 22.321 44.9248 22.0078C45.1956 21.6904 45.5236 21.445 45.9087 21.2715C46.2938 21.0938 46.7254 21.0049 47.2036 21.0049C47.686 21.0049 48.1198 21.0938 48.5049 21.2715C48.8942 21.445 49.2243 21.6904 49.4951 22.0078C49.7702 22.321 49.9797 22.6912 50.1235 23.1187C50.2674 23.5418 50.3394 24.001 50.3394 24.4961V24.6421C50.3394 25.1372 50.2674 25.5964 50.1235 26.0195C49.9797 26.4427 49.7702 26.813 49.4951 27.1304C49.2243 27.4435 48.8963 27.689 48.5112 27.8667C48.1304 28.0402 47.6987 28.127 47.2163 28.127C46.7339 28.127 46.3001 28.0402 45.915 27.8667C45.5299 27.689 45.1999 27.4435 44.9248 27.1304C44.654 26.813 44.4466 26.4427 44.3027 26.0195C44.1589 25.5964 44.0869 25.1372 44.0869 24.6421ZM45.2612 24.4961V24.6421C45.2612 24.9849 45.3014 25.3086 45.3818 25.6133C45.4622 25.9137 45.5828 26.1803 45.7437 26.4131C45.9087 26.6458 46.1139 26.8299 46.3594 26.9653C46.6048 27.0965 46.8905 27.1621 47.2163 27.1621C47.5379 27.1621 47.8193 27.0965 48.0605 26.9653C48.306 26.8299 48.5091 26.6458 48.6699 26.4131C48.8307 26.1803 48.9513 25.9137 49.0317 25.6133C49.1164 25.3086 49.1587 24.9849 49.1587 24.6421V24.4961C49.1587 24.1576 49.1164 23.8381 49.0317 23.5376C48.9513 23.2329 48.8286 22.9642 48.6636 22.7314C48.5028 22.4945 48.2996 22.3083 48.0542 22.1729C47.813 22.0374 47.5295 21.9697 47.2036 21.9697C46.882 21.9697 46.5985 22.0374 46.353 22.1729C46.1118 22.3083 45.9087 22.4945 45.7437 22.7314C45.5828 22.9642 45.4622 23.2329 45.3818 23.5376C45.3014 23.8381 45.2612 24.1576 45.2612 24.4961ZM53.0879 21.1318V28H51.9136V21.1318H53.0879ZM57.5947 21.1318L54.3384 25.0674H52.6943L52.5166 24.0391H53.8623L56.1665 21.1318H57.5947ZM56.3315 28L53.8052 24.8896L54.5605 24.0391L57.8232 28H56.3315ZM60.7749 27.2891L62.6855 21.1318H63.9424L61.1875 29.0601C61.124 29.2293 61.0394 29.4113 60.9336 29.606C60.832 29.8049 60.7008 29.9932 60.54 30.1709C60.3792 30.3486 60.1846 30.4925 59.9561 30.6025C59.7318 30.7168 59.4631 30.7739 59.1499 30.7739C59.0568 30.7739 58.9383 30.7612 58.7944 30.7358C58.6506 30.7104 58.549 30.6893 58.4897 30.6724L58.4834 29.7202C58.5173 29.7244 58.5701 29.7287 58.6421 29.7329C58.7183 29.7414 58.7712 29.7456 58.8008 29.7456C59.0674 29.7456 59.2938 29.7096 59.48 29.6377C59.6662 29.57 59.8228 29.4536 59.9497 29.2886C60.0809 29.1278 60.193 28.9056 60.2861 28.6221L60.7749 27.2891ZM59.3721 21.1318L61.1558 26.4639L61.4604 27.7017L60.6162 28.1333L58.0898 21.1318H59.3721ZM69.5791 21.1318V22.103H66.1069V21.1318H69.5791ZM66.2783 21.1318V28H65.104V21.1318H66.2783ZM70.6201 21.1318V28H69.4395V21.1318H70.6201ZM76.5552 26.8257V23.29C76.5552 23.0192 76.5002 22.7843 76.3901 22.5854C76.2843 22.3823 76.1235 22.2257 75.9077 22.1157C75.6919 22.0057 75.4253 21.9507 75.1079 21.9507C74.8117 21.9507 74.5514 22.0015 74.3271 22.103C74.1071 22.2046 73.9336 22.3379 73.8066 22.5029C73.6839 22.668 73.6226 22.8457 73.6226 23.0361H72.4482C72.4482 22.7907 72.5117 22.5474 72.6387 22.3062C72.7656 22.0649 72.9476 21.847 73.1846 21.6523C73.4258 21.4535 73.7135 21.2969 74.0479 21.1826C74.3864 21.0641 74.763 21.0049 75.1777 21.0049C75.6771 21.0049 76.1172 21.0895 76.498 21.2588C76.8831 21.4281 77.1836 21.6841 77.3994 22.0269C77.6195 22.3654 77.7295 22.7907 77.7295 23.3027V26.502C77.7295 26.7305 77.7485 26.9738 77.7866 27.2319C77.8289 27.4901 77.8903 27.7122 77.9707 27.8984V28H76.7456C76.6864 27.8646 76.6398 27.6847 76.606 27.4604C76.5721 27.2319 76.5552 27.0203 76.5552 26.8257ZM76.7583 23.8359L76.771 24.6611H75.584C75.2497 24.6611 74.9513 24.6886 74.689 24.7437C74.4266 24.7944 74.2065 24.8727 74.0288 24.9785C73.8511 25.0843 73.7157 25.2176 73.6226 25.3784C73.5295 25.535 73.4829 25.7191 73.4829 25.9307C73.4829 26.1465 73.5316 26.3433 73.6289 26.521C73.7262 26.6987 73.8722 26.8405 74.0669 26.9463C74.2658 27.0479 74.5091 27.0986 74.7969 27.0986C75.1566 27.0986 75.474 27.0225 75.749 26.8701C76.0241 26.7178 76.242 26.5316 76.4028 26.3115C76.5679 26.0915 76.6567 25.8778 76.6694 25.6704L77.1709 26.2354C77.1413 26.4131 77.0609 26.6099 76.9297 26.8257C76.7985 27.0415 76.6229 27.2489 76.4028 27.4478C76.187 27.6424 75.9289 27.8053 75.6284 27.9365C75.3322 28.0635 74.9979 28.127 74.6255 28.127C74.16 28.127 73.7516 28.036 73.4004 27.854C73.0534 27.672 72.7826 27.4287 72.5879 27.124C72.3975 26.8151 72.3022 26.4702 72.3022 26.0894C72.3022 25.7212 72.3742 25.3975 72.5181 25.1182C72.6619 24.8346 72.8693 24.5998 73.1401 24.4136C73.411 24.2231 73.7368 24.0793 74.1177 23.9819C74.4985 23.8846 74.9238 23.8359 75.3936 23.8359H76.7583ZM82.2744 21.1318V28H81.0938V21.1318H82.2744ZM84.5786 21.1318V22.084H78.834V21.1318H84.5786ZM88.0762 28.127C87.598 28.127 87.1642 28.0465 86.7749 27.8857C86.3898 27.7207 86.0576 27.4901 85.7783 27.1938C85.5033 26.8976 85.2917 26.5464 85.1436 26.1401C84.9954 25.7339 84.9214 25.2896 84.9214 24.8071V24.5405C84.9214 23.9819 85.0039 23.4847 85.1689 23.0488C85.334 22.6087 85.5583 22.2363 85.8418 21.9316C86.1253 21.627 86.4469 21.3963 86.8066 21.2397C87.1663 21.0832 87.5387 21.0049 87.9238 21.0049C88.4147 21.0049 88.8379 21.0895 89.1934 21.2588C89.5531 21.4281 89.8472 21.665 90.0757 21.9697C90.3042 22.2702 90.4735 22.6257 90.5835 23.0361C90.6935 23.4424 90.7485 23.8867 90.7485 24.3691V24.896H85.6196V23.9375H89.5742V23.8486C89.5573 23.5439 89.4938 23.2477 89.3838 22.96C89.278 22.6722 89.1087 22.4352 88.876 22.249C88.6432 22.0628 88.3258 21.9697 87.9238 21.9697C87.6572 21.9697 87.4118 22.0269 87.1875 22.1411C86.9632 22.2511 86.7707 22.4162 86.6099 22.6362C86.4491 22.8563 86.3242 23.125 86.2354 23.4424C86.1465 23.7598 86.1021 24.1258 86.1021 24.5405V24.8071C86.1021 25.133 86.1465 25.4398 86.2354 25.7275C86.3285 26.0111 86.4618 26.2607 86.6353 26.4766C86.813 26.6924 87.0267 26.8617 87.2764 26.9844C87.5303 27.1071 87.818 27.1685 88.1396 27.1685C88.5544 27.1685 88.9056 27.0838 89.1934 26.9146C89.4811 26.7453 89.7329 26.5189 89.9487 26.2354L90.6597 26.8003C90.5116 27.0246 90.3232 27.2383 90.0947 27.4414C89.8662 27.6445 89.5848 27.8096 89.2505 27.9365C88.9204 28.0635 88.529 28.127 88.0762 28.127ZM96.709 21.1318V22.103H93.3892V21.1318H96.709ZM97.7437 21.1318V28H96.5693V21.1318H97.7437ZM93.1035 21.1318H94.2842L94.1064 24.4453C94.0768 24.9574 94.0282 25.4102 93.9604 25.8037C93.897 26.193 93.8081 26.5273 93.6938 26.8066C93.5838 27.0859 93.4442 27.3145 93.2749 27.4922C93.1099 27.6657 92.911 27.7948 92.6782 27.8794C92.4455 27.9598 92.1768 28 91.8721 28H91.5039V26.9653L91.7578 26.9463C91.9398 26.9336 92.0942 26.8913 92.2212 26.8193C92.3524 26.7474 92.4624 26.6416 92.5513 26.502C92.6401 26.3581 92.7121 26.174 92.7671 25.9497C92.8263 25.7254 92.8708 25.4588 92.9004 25.1499C92.9342 24.841 92.9596 24.4813 92.9766 24.0708L93.1035 21.1318ZM102.485 28.127C102.007 28.127 101.573 28.0465 101.184 27.8857C100.799 27.7207 100.467 27.4901 100.188 27.1938C99.9124 26.8976 99.7008 26.5464 99.5527 26.1401C99.4046 25.7339 99.3306 25.2896 99.3306 24.8071V24.5405C99.3306 23.9819 99.4131 23.4847 99.5781 23.0488C99.7432 22.6087 99.9674 22.2363 100.251 21.9316C100.535 21.627 100.856 21.3963 101.216 21.2397C101.576 21.0832 101.948 21.0049 102.333 21.0049C102.824 21.0049 103.247 21.0895 103.603 21.2588C103.962 21.4281 104.256 21.665 104.485 21.9697C104.713 22.2702 104.883 22.6257 104.993 23.0361C105.103 23.4424 105.158 23.8867 105.158 24.3691V24.896H100.029V23.9375H103.983V23.8486C103.966 23.5439 103.903 23.2477 103.793 22.96C103.687 22.6722 103.518 22.4352 103.285 22.249C103.052 22.0628 102.735 21.9697 102.333 21.9697C102.066 21.9697 101.821 22.0269 101.597 22.1411C101.372 22.2511 101.18 22.4162 101.019 22.6362C100.858 22.8563 100.733 23.125 100.645 23.4424C100.556 23.7598 100.511 24.1258 100.511 24.5405V24.8071C100.511 25.133 100.556 25.4398 100.645 25.7275C100.738 26.0111 100.871 26.2607 101.044 26.4766C101.222 26.6924 101.436 26.8617 101.686 26.9844C101.939 27.1071 102.227 27.1685 102.549 27.1685C102.964 27.1685 103.315 27.0838 103.603 26.9146C103.89 26.7453 104.142 26.5189 104.358 26.2354L105.069 26.8003C104.921 27.0246 104.732 27.2383 104.504 27.4414C104.275 27.6445 103.994 27.8096 103.66 27.9365C103.33 28.0635 102.938 28.127 102.485 28.127ZM107.798 26.1401L110.966 21.1318H112.146V28H110.966V22.9917L107.798 28H106.63V21.1318H107.798V26.1401ZM110.325 18.6436H111.277C111.277 18.9736 111.201 19.2677 111.048 19.5259C110.896 19.7798 110.678 19.9787 110.395 20.1226C110.111 20.2664 109.775 20.3384 109.385 20.3384C108.797 20.3384 108.332 20.1818 107.989 19.8687C107.65 19.5513 107.481 19.1429 107.481 18.6436H108.433C108.433 18.8932 108.505 19.1133 108.649 19.3037C108.793 19.4941 109.038 19.5894 109.385 19.5894C109.724 19.5894 109.965 19.4941 110.109 19.3037C110.253 19.1133 110.325 18.8932 110.325 18.6436Z" fill="#808080"/>
<g clip-path="url(#clip0_10740_7513)">
<rect x="1" y="3" width="21" height="21" rx="5" fill="#FBE8BB"/>
<path d="M24.5 14.8333V11.3333C24.5 9.78624 23.8854 8.30251 22.7915 7.20854C21.6975 6.11458 20.2138 5.5 18.6667 5.5H9.33333C7.78624 5.5 6.30251 6.11458 5.20854 7.20854C4.11458 8.30251 3.5 9.78624 3.5 11.3333V20.6667C3.5 22.2138 4.11458 23.6975 5.20854 24.7915C6.30251 25.8854 7.78624 26.5 9.33333 26.5H14" stroke="#292929" stroke-width="1.2" stroke-linecap="round" stroke-linejoin="round"/>
<path d="M14 18.3333H11.6666C11.0478 18.3333 10.4543 18.5791 10.0167 19.0167C9.57915 19.4543 9.33331 20.0478 9.33331 20.6666V20.6666" stroke="#FD9339" stroke-width="1.2" stroke-linecap="round" stroke-linejoin="round"/>
<path d="M14 15.4167C15.4497 15.4167 16.625 14.2415 16.625 12.7917C16.625 11.342 15.4497 10.1667 14 10.1667C12.5503 10.1667 11.375 11.342 11.375 12.7917C11.375 14.2415 12.5503 15.4167 14 15.4167Z" fill="white" stroke="#292929" stroke-width="1.2" stroke-linecap="round" stroke-linejoin="round"/>
<path d="M17.5 22.9939C17.5 24.958 19.9714 26.4118 21.0708 26.9616C21.23 27.0417 21.4056 27.0834 21.5838 27.0833C21.7619 27.0832 21.9376 27.0414 22.0966 26.9612C23.1964 26.411 25.6666 24.9606 25.6666 22.9939V20.1974C25.6621 20.0501 25.6032 19.9096 25.5013 19.8031C25.3993 19.6966 25.2616 19.6316 25.1146 19.6206C24.0807 19.5257 23.091 19.1556 22.2485 18.5488C22.055 18.4087 21.8222 18.3333 21.5833 18.3333C21.3444 18.3333 21.1116 18.4087 20.9181 18.5488C20.0756 19.1556 19.0859 19.5257 18.052 19.6206C17.905 19.6316 17.7673 19.6966 17.6654 19.8031C17.5634 19.9096 17.5045 20.0501 17.5 20.1974V22.9939Z" fill="white" stroke="#292929" stroke-width="1.2" stroke-linecap="round" stroke-linejoin="round"/>
</g>
<defs>
<clipPath id="clip0_10740_7513">
<rect width="28" height="28" fill="white" transform="translate(0 2)"/>
</clipPath>
</defs>
</svg>
