<svg width="18" height="18" viewBox="0 0 18 18" fill="none" xmlns="http://www.w3.org/2000/svg">
<path d="M8.14199 9.858C7.26449 8.9805 6.60299 7.998 6.16349 7.00125C6.07049 6.7905 6.12524 6.54375 6.28799 6.381L6.90224 5.7675C7.40549 5.26425 7.40549 4.5525 6.96599 4.113L6.08549 3.2325C5.49974 2.64675 4.55024 2.64675 3.96449 3.2325L3.47549 3.7215C2.91974 4.27725 2.68799 5.079 2.83799 5.874C3.20849 7.83375 4.34699 9.9795 6.18374 11.8163C8.02049 13.653 10.1662 14.7915 12.126 15.162C12.921 15.312 13.7227 15.0803 14.2785 14.5245L14.7667 14.0363C15.3525 13.4505 15.3525 12.501 14.7667 11.9153L13.887 11.0355C13.4475 10.596 12.735 10.596 12.2962 11.0355L11.619 11.7135C11.4562 11.8763 11.2095 11.931 10.9987 11.838C10.002 11.3978 9.01949 10.7355 8.14199 9.858V9.858Z" stroke="#FD9339" stroke-linecap="round" stroke-linejoin="round"/>
</svg>
