<svg width="22" height="22" viewBox="0 0 22 22" fill="none" xmlns="http://www.w3.org/2000/svg">
<g clip-path="url(#clip0_10740_7468)">
<path d="M5.5 17.0353C6.93825 15.6374 8.88433 14.7776 11.0211 14.7776C13.1368 14.7776 15.0618 15.62 16.5 16.9922C15.0618 18.3902 13.1157 19.25 10.9789 19.25C8.86325 19.25 6.93825 18.4076 5.5 17.0353Z" stroke="#292929" stroke-linecap="round" stroke-linejoin="round"/>
<path d="M3.64375 14.6896C3.08458 13.5768 2.75 12.331 2.75 11C2.75 6.4405 6.4405 2.75 11 2.75C15.5595 2.75 19.25 6.4405 19.25 11C19.25 12.3292 18.9173 13.5758 18.3544 14.6878" stroke="#292929" stroke-linecap="round" stroke-linejoin="round"/>
<path d="M12.9445 7.22212C14.0185 8.29606 14.0185 10.0373 12.9445 11.1112C11.8706 12.1851 10.1294 12.1851 9.05545 11.1112C7.98152 10.0373 7.98152 8.29606 9.05545 7.22212C10.1294 6.14818 11.8706 6.14818 12.9445 7.22212Z" stroke="#292929" stroke-linecap="round" stroke-linejoin="round"/>
</g>
<defs>
<clipPath id="clip0_10740_7468">
<rect width="22" height="22" fill="white"/>
</clipPath>
</defs>
</svg>
